<svg width="104" height="70" viewBox="0 0 104 70" fill="none" xmlns="http://www.w3.org/2000/svg">
<g style="mix-blend-mode:luminosity" clip-path="url(#clip0_109_2413)">
<path d="M103.446 69.6688H96.1717L78.4864 62.9639L75.611 69.6688H68.2922L82.667 36.1045H89.1135L103.446 69.6688ZM85.8914 45.6388L81.3618 56.2612L92.34 60.5715L85.8914 45.6388Z" fill="#F7931E"/>
<path d="M58.6457 58.786L66.8788 69.6688H58.4712L50.8477 59.6136H44.9224V69.6688H38.2131V52.9087H45.7483L38.2131 42.9396V36.1045H54.3326C60.8232 36.1045 66.0948 41.3726 66.0948 47.8591C66.0948 52.6483 63.0891 57.1308 58.6457 58.786ZM54.1581 52.9087H54.3326C57.0777 52.9087 59.3414 50.6024 59.3414 47.8591C59.3414 45.1157 57.0755 42.8094 54.3326 42.8094H46.5346L54.1581 52.9087Z" fill="#4CBA2C"/>
<path d="M35.6005 69.9999H28.3258L10.6406 63.295L7.76516 69.9999H0.44635L14.8212 36.4355H21.2676L35.6005 69.9999ZM18.0455 45.9699L13.516 56.5923L24.4942 60.9026L18.0455 45.9699Z" fill="#F7931E"/>
<path fill-rule="evenodd" clip-rule="evenodd" d="M18.591 17.6206L21.7138 13.8444L18.5557 16.4796C18.5049 15.1223 18.4342 13.7539 18.3437 12.3856L20.1082 10.2492L18.2995 11.7566C18.2266 10.7435 18.1449 8.25181 18.0521 7.23438C17.9594 8.25181 17.8777 10.7457 17.8048 11.7566L15.9961 10.2492L17.7606 12.3856C17.6701 13.7539 17.6016 15.1201 17.5486 16.4796L14.3905 13.8444L17.5133 17.6206C17.4779 18.8654 17.4603 20.1057 17.4603 21.3394L12.7828 17.4418L17.4713 23.1117C17.5199 26.5215 17.712 29.8938 18.0499 33.2286C18.3878 29.8938 18.5778 26.5215 18.6285 23.1117L23.3149 17.4418L18.6418 21.3394C18.6418 20.1057 18.6263 18.8654 18.591 17.6206Z" fill="url(#paint0_radial_109_2413)"/>
<path fill-rule="evenodd" clip-rule="evenodd" d="M19.0857 30.9247C20.2186 29.0885 22.2923 27.623 24.1828 25.9612C26.4266 22.9089 26.1373 18.9649 24.2446 15.3013C27.056 21.9245 19.11 24.2551 19.0857 30.9247Z" fill="url(#paint1_radial_109_2413)"/>
<path fill-rule="evenodd" clip-rule="evenodd" d="M18.379 5.41821C18.644 6.03617 18.9664 6.66076 19.322 7.29417C20.5499 9.24076 24.6753 11.3838 27.4248 14.0123C25.5123 9.54312 21.1307 5.65436 19.0989 2.4917C19.0437 3.48486 18.7654 4.47139 18.379 5.41821Z" fill="url(#paint2_radial_109_2413)"/>
<path fill-rule="evenodd" clip-rule="evenodd" d="M19.322 7.29395C20.7752 9.86954 22.8334 12.5665 24.2446 15.301C26.1373 18.9625 26.4266 22.9086 24.1828 25.9609C38.6128 16.7621 22.0097 11.5601 19.322 7.29395Z" fill="url(#paint3_radial_109_2413)"/>
<path fill-rule="evenodd" clip-rule="evenodd" d="M19.322 7.29395C20.7752 9.86954 22.8334 12.5665 24.2446 15.301C26.1373 18.9625 26.4266 22.9086 24.1828 25.9609C25.6602 24.6566 27.0295 23.2308 27.734 21.4034C28.7455 18.7991 28.4164 16.3273 27.4248 14.0121C24.6753 11.3836 20.5499 9.24054 19.322 7.29395Z" fill="url(#paint4_radial_109_2413)"/>
<path fill-rule="evenodd" clip-rule="evenodd" d="M20.4107 8.52344C23.3656 11.6044 30.521 14.9701 29.9402 19.5166C30.7662 14.7958 23.5732 11.4058 20.4107 8.52344Z" fill="url(#paint5_radial_109_2413)"/>
<path fill-rule="evenodd" clip-rule="evenodd" d="M19.322 7.29395C20.5499 9.24054 24.6753 11.3836 27.4248 14.0121C27.1156 13.286 26.7402 12.5753 26.3184 11.8801C23.5821 10.1587 20.4881 8.76603 19.322 7.29395Z" fill="url(#paint6_radial_109_2413)"/>
<path fill-rule="evenodd" clip-rule="evenodd" d="M11.853 15.3013C9.96478 18.9627 9.67326 22.9089 11.917 25.9612C13.8053 27.6253 15.8812 29.0885 17.012 30.9248C16.9921 24.2551 9.04606 21.9245 11.853 15.3013Z" fill="url(#paint7_radial_109_2413)"/>
<path fill-rule="evenodd" clip-rule="evenodd" d="M8.67282 14.0124C11.4246 11.3838 15.5499 9.24079 16.7778 7.2942C18.2332 4.71419 19.079 2.25778 18.0499 0C17.6325 3.50916 11.1264 8.28956 8.67282 14.0124Z" fill="url(#paint8_radial_109_2413)"/>
<path fill-rule="evenodd" clip-rule="evenodd" d="M16.7779 7.29443C14.0902 11.5606 -2.51297 16.7625 11.9171 25.9614C9.67327 22.9091 9.96257 18.9651 11.853 15.3015C13.2664 12.567 15.3269 9.87002 16.7779 7.29443Z" fill="url(#paint9_radial_109_2413)"/>
<path fill-rule="evenodd" clip-rule="evenodd" d="M16.7779 7.29443C15.55 9.24102 11.4246 11.384 8.67506 14.0126C7.68346 16.33 7.3544 18.8018 8.36146 21.4039C9.07037 23.2291 10.4352 24.6548 11.9149 25.9614C9.67107 22.9091 9.96037 18.9651 11.8508 15.3015C13.2664 12.567 15.3269 9.87002 16.7779 7.29443Z" fill="url(#paint10_radial_109_2413)"/>
<path fill-rule="evenodd" clip-rule="evenodd" d="M6.16182 19.5166C5.581 14.9701 12.7364 11.6044 15.6913 8.52344C12.5266 11.4058 5.33145 14.7958 6.16182 19.5166Z" fill="url(#paint11_radial_109_2413)"/>
<path fill-rule="evenodd" clip-rule="evenodd" d="M9.78146 11.8826C9.35965 12.5778 8.98642 13.2884 8.67282 14.0146C11.4246 11.386 15.5499 9.24298 16.7778 7.29639C15.614 8.76626 12.5199 10.1589 9.78146 11.8826Z" fill="url(#paint12_radial_109_2413)"/>
<path fill-rule="evenodd" clip-rule="evenodd" d="M13.6617 7.06272C12.5398 8.39576 11.429 9.75528 10.4661 11.2097C11.652 10.5013 12.8667 9.84797 14.0482 9.13511C15.2982 6.44034 17.6104 3.7875 18.1007 0.770508C17.6789 2.09251 16.6453 3.44321 15.7885 4.51361C15.0972 5.37876 14.3728 6.21743 13.6617 7.06272Z" fill="url(#paint13_linear_109_2413)"/>
</g>
<defs>
<radialGradient id="paint0_radial_109_2413" cx="0" cy="0" r="1" gradientUnits="userSpaceOnUse" gradientTransform="translate(18.4308 -7.77856) scale(27.9249 27.9068)">
<stop stop-color="white"/>
<stop offset="0.28" stop-color="#E5E400"/>
<stop offset="0.8" stop-color="#16943B"/>
</radialGradient>
<radialGradient id="paint1_radial_109_2413" cx="0" cy="0" r="1" gradientUnits="userSpaceOnUse" gradientTransform="translate(12.0673 36.2135) scale(24.0866 24.0709)">
<stop stop-color="white"/>
<stop offset="0.5" stop-color="#F7B525"/>
<stop offset="1" stop-color="#C71B23"/>
</radialGradient>
<radialGradient id="paint2_radial_109_2413" cx="0" cy="0" r="1" gradientUnits="userSpaceOnUse" gradientTransform="translate(19.3292 -3.43876) scale(21.4873 21.4733)">
<stop stop-color="white"/>
<stop offset="0.5" stop-color="#F7B525"/>
<stop offset="1" stop-color="#C71B23"/>
</radialGradient>
<radialGradient id="paint3_radial_109_2413" cx="0" cy="0" r="1" gradientUnits="userSpaceOnUse" gradientTransform="translate(34.0776 14.2921) scale(20.7236 20.7102)">
<stop stop-color="white"/>
<stop offset="0.5" stop-color="#F7B525"/>
<stop offset="1" stop-color="#C71B23"/>
</radialGradient>
<radialGradient id="paint4_radial_109_2413" cx="0" cy="0" r="1" gradientUnits="userSpaceOnUse" gradientTransform="translate(36.9972 11.2247) scale(23.2921 23.2769)">
<stop stop-color="white"/>
<stop offset="0.5" stop-color="#F7B525"/>
<stop offset="1" stop-color="#C71B23"/>
</radialGradient>
<radialGradient id="paint5_radial_109_2413" cx="0" cy="0" r="1" gradientUnits="userSpaceOnUse" gradientTransform="translate(25.2079 14.0201) scale(15.8338 15.8235)">
<stop stop-color="white"/>
<stop offset="0.5" stop-color="#F7B525"/>
<stop offset="1" stop-color="#C71B23"/>
</radialGradient>
<radialGradient id="paint6_radial_109_2413" cx="0" cy="0" r="1" gradientUnits="userSpaceOnUse" gradientTransform="translate(22.923 -6.35741) scale(21.1123 21.0986)">
<stop stop-color="white"/>
<stop offset="0.5" stop-color="#F7B525"/>
<stop offset="1" stop-color="#C71B23"/>
</radialGradient>
<radialGradient id="paint7_radial_109_2413" cx="0" cy="0" r="1" gradientUnits="userSpaceOnUse" gradientTransform="translate(26.4413 34.1187) scale(27.5747 27.5567)">
<stop stop-color="white"/>
<stop offset="0.28" stop-color="#E5E400"/>
<stop offset="0.8" stop-color="#16943B"/>
</radialGradient>
<radialGradient id="paint8_radial_109_2413" cx="0" cy="0" r="1" gradientUnits="userSpaceOnUse" gradientTransform="translate(18.2811 -8.07778) scale(28.9734 28.9546)">
<stop stop-color="white"/>
<stop offset="0.28" stop-color="#E5E400"/>
<stop offset="0.8" stop-color="#16943B"/>
</radialGradient>
<radialGradient id="paint9_radial_109_2413" cx="0" cy="0" r="1" gradientUnits="userSpaceOnUse" gradientTransform="translate(1.81107 14.2927) scale(26.1888 26.1718)">
<stop stop-color="white"/>
<stop offset="0.28" stop-color="#E5E400"/>
<stop offset="0.8" stop-color="#16943B"/>
</radialGradient>
<radialGradient id="paint10_radial_109_2413" cx="0" cy="0" r="1" gradientUnits="userSpaceOnUse" gradientTransform="translate(0.238924 13.6942) scale(18.6479 18.6358)">
<stop stop-color="white"/>
<stop offset="0.28" stop-color="#E5E400"/>
<stop offset="0.8" stop-color="#16943B"/>
</radialGradient>
<radialGradient id="paint11_radial_109_2413" cx="0" cy="0" r="1" gradientUnits="userSpaceOnUse" gradientTransform="translate(10.8931 14.0201) scale(17.272 17.2608)">
<stop stop-color="white"/>
<stop offset="0.28" stop-color="#E5E400"/>
<stop offset="0.8" stop-color="#16943B"/>
</radialGradient>
<radialGradient id="paint12_radial_109_2413" cx="0" cy="0" r="1" gradientUnits="userSpaceOnUse" gradientTransform="translate(16.4844 -6.1327) scale(17.5194 17.508)">
<stop stop-color="white"/>
<stop offset="0.28" stop-color="#E5E400"/>
<stop offset="0.8" stop-color="#16943B"/>
</radialGradient>
<linearGradient id="paint13_linear_109_2413" x1="14.2848" y1="-6.13223" x2="14.2848" y2="8.84051" gradientUnits="userSpaceOnUse">
<stop stop-color="white"/>
<stop offset="1" stop-color="white" stop-opacity="0"/>
</linearGradient>
<clipPath id="clip0_109_2413">
<rect width="103" height="70" fill="white" transform="translate(0.44635)"/>
</clipPath>
</defs>
</svg>
