<svg width="173" height="70" viewBox="0 0 173 70" fill="none" xmlns="http://www.w3.org/2000/svg">
<g style="mix-blend-mode:luminosity" clip-path="url(#clip0_109_2434)">
<path d="M65.1279 21.8539H61.8683V19.9751H70.4923V21.8539H67.213V30.1391H65.1279V21.8539Z" fill="#333333"/>
<path d="M73.412 19.9751H75.497V23.8699H80.0099V19.9751H82.095V30.1363H80.0099V25.7487H75.497V30.1363H73.412V19.9751Z" fill="#333333"/>
<path d="M85.9757 19.9751H92.8378V21.8539H88.0635V23.9175H91.5705V25.6871H88.0635V28.2575H93.0233V30.1363H85.9757V19.9751Z" fill="#333333"/>
<path d="M65.1279 40.3339H61.8683V38.4551H70.4923V40.3339H67.213V48.6191H65.1279V40.3339Z" fill="#F7931E"/>
<path d="M73.3192 38.4551H75.4043V44.5675C75.4043 46.0459 76.3316 46.8775 77.6439 46.8775C78.9871 46.8775 79.8835 46.0459 79.8835 44.5675V38.4551H81.9685V44.4135C81.9685 47.1071 80.1139 48.8011 77.6411 48.8011C75.1373 48.8011 73.3136 47.1071 73.3136 44.4135V38.4551H73.3192Z" fill="#F7931E"/>
<path d="M85.7761 38.4551H87.8612V46.7403H92.3264V48.6191H85.7733V38.4551H85.7761Z" fill="#F7931E"/>
<path d="M95.4202 38.4551H97.5053V48.6163H95.4202V38.4551Z" fill="#F7931E"/>
<path d="M101.386 38.4551H105.219C107.352 38.4551 108.897 39.7795 108.897 41.7339C108.897 43.6743 107.352 45.0295 105.219 45.0295H103.474V48.6163H101.389V38.4551H101.386ZM105.216 43.2123C106.188 43.2123 106.762 42.6131 106.762 41.7339C106.762 40.8715 106.16 40.2863 105.216 40.2863H103.471V43.2123H105.216Z" fill="#F7931E"/>
<path d="M62.8237 56.9351H69.5313V58.8139H64.9116V61.3535H68.6967V63.2323H64.9116V67.0963H62.8265V56.9351H62.8237Z" fill="#333333"/>
<path d="M77.3826 56.7502C80.3191 56.6886 82.8678 59.105 82.8228 62.017C82.8678 64.9262 80.3191 67.3454 77.3826 67.2838C74.4461 67.3454 71.9283 64.929 71.9732 62.017C71.9283 59.1078 74.4461 56.6886 77.3826 56.7502ZM77.3966 58.6766C75.5111 58.6766 74.1201 60.0626 74.1201 62.017C74.1201 63.9714 75.5111 65.3574 77.3966 65.3574C79.2653 65.3574 80.6731 63.9714 80.6731 62.017C80.6731 60.0906 79.2681 58.6766 77.3966 58.6766Z" fill="#333333"/>
<path d="M86.0375 56.9351H88.1225V63.0475C88.1225 64.5259 89.0498 65.3575 90.3621 65.3575C91.7053 65.3575 92.6017 64.5259 92.6017 63.0475V56.9351H94.6868V62.8935C94.6868 65.5871 92.8322 67.2811 90.3593 67.2811C87.8556 67.2811 86.0319 65.5871 86.0319 62.8935V56.9351H86.0375Z" fill="#333333"/>
<path d="M107.18 56.9353V67.2841H106.486L100.582 61.0009V67.0993H98.4972V56.7505H99.1773L105.095 63.0029V56.9353H107.18Z" fill="#333333"/>
<path d="M111.061 56.9349H114.399C117.628 56.9041 120.008 58.9817 119.963 61.9861C120.011 64.9261 117.631 67.1437 114.399 67.0989H111.061V56.9349ZM114.382 65.2201C116.437 65.2201 117.813 63.9433 117.813 61.9861C117.813 60.0149 116.467 58.8137 114.382 58.8137H113.146V65.2201H114.382Z" fill="#333333"/>
<path d="M129.048 65.7749H124.875L124.305 67.0993H122.065L126.623 56.7505H127.317L131.861 67.0993H129.621L129.048 65.7749ZM126.963 60.6313L125.603 64.0641H128.323L126.963 60.6313Z" fill="#333333"/>
<path d="M135.941 58.8139H132.681V56.9351H141.305V58.8139H138.029V67.0991H135.944V58.8139H135.941Z" fill="#333333"/>
<path d="M144.228 56.9351H146.313V67.0963H144.228V56.9351Z" fill="#333333"/>
<path d="M155.013 56.7502C157.949 56.6886 160.498 59.105 160.453 62.017C160.501 64.9262 157.949 67.3454 155.013 67.2838C152.076 67.3454 149.559 64.929 149.603 62.017C149.559 59.1078 152.076 56.6886 155.013 56.7502ZM155.03 58.6766C153.144 58.6766 151.753 60.0626 151.753 62.017C151.753 63.9714 153.144 65.3574 155.03 65.3574C156.898 65.3574 158.306 63.9714 158.306 62.017C158.306 60.0906 156.898 58.6766 155.03 58.6766Z" fill="#333333"/>
<path d="M172.446 56.9353V67.2841H171.752L165.848 61.0009V67.0993H163.763V56.7505H164.443L170.361 63.0029V56.9353H172.446Z" fill="#333333"/>
<path d="M0.55629 25.3008C4.42291 26.9332 7.71628 28.2044 11.1108 30.2904C11.2035 31.8332 11.2429 33.1604 11.2513 34.3084C9.64959 33.1716 8.06754 32.256 6.66533 31.5448C8.21366 36.0556 8.08721 41.2244 7.96357 46.2672C7.82868 51.7692 7.75843 54.698 9.58215 58.7552C13.3673 67.1776 20.5666 69.2384 22.0222 69.9048C9.33206 68.9024 3.889 61.9388 4.6983 45.1052C5.25749 33.5076 3.54899 29.8284 0.55629 25.3008Z" fill="#E6394A"/>
<path d="M26.7315 0L25.023 3.6204C24.6465 4.4156 24.6296 5.3536 25.0511 6.1264C25.349 6.6724 25.8576 7.1428 26.7315 7.1428C27.6054 7.1428 28.114 6.6752 28.4119 6.1264C28.8334 5.3536 28.8166 4.4156 28.44 3.6204L26.7315 0Z" fill="#ADE0F3"/>
<path d="M32.2589 9.25391L30.5504 12.8743C30.1738 13.6695 30.157 14.6075 30.5785 15.3803C30.8763 15.9263 31.3849 16.3967 32.2589 16.3967C33.1328 16.3967 33.6414 15.9291 33.9393 15.3803C34.3608 14.6075 34.3439 13.6695 33.9674 12.8743L32.2589 9.25391Z" fill="#ADE0F3"/>
<path d="M20.4117 9.4834L18.8381 12.8126C18.4925 13.5434 18.4784 14.4086 18.8634 15.1198C19.136 15.6238 19.6052 16.055 20.4117 16.055C21.2182 16.055 21.6847 15.6238 21.96 15.1198C22.3478 14.4086 22.331 13.5462 21.9853 12.8126L20.4117 9.4834Z" fill="#ADE0F3"/>
<path d="M0.44635 25.3906C4.31297 27.023 7.60634 28.2942 11.0009 30.3802C11.0936 31.923 11.1329 33.2502 11.1414 34.3982C9.53965 33.2614 7.9576 32.3458 6.55539 31.6346C8.10372 36.1454 7.97727 41.3142 7.85363 46.357C7.71874 51.859 7.64849 54.7878 9.47221 58.845C13.2573 67.2674 20.4567 69.3282 21.9123 69.9946C9.22212 68.9922 3.77906 62.0286 4.58836 45.195C5.14474 33.6002 3.43905 29.9182 0.44635 25.3906Z" fill="#E6394A"/>
<path d="M52.6429 25.4014C48.7763 27.0338 45.4829 28.305 42.0884 30.391C41.9957 31.9338 41.9563 33.261 41.9479 34.409C43.5496 33.2722 45.1317 32.3566 46.5339 31.6454C44.9855 36.1562 45.112 41.325 45.2356 46.3678C45.3705 51.8698 45.4408 54.7986 43.6171 58.8558C39.8319 67.2782 32.6326 69.339 31.177 70.0054C43.8671 69.003 49.3102 62.0394 48.5009 45.2058C47.9445 33.6082 49.6502 29.929 52.6429 25.4014Z" fill="#E6394A"/>
<path d="M39.3683 42.9968C38.9299 37.9288 39.1491 32.256 39.4891 28.6748C40.0455 22.8424 41.0487 21.3584 42.6645 17.6372C39.7701 19.0736 36.0496 20.6724 32.5146 23.7692C30.7442 21.938 27.1193 17.7828 26.5517 14C25.984 17.7828 22.3591 21.938 20.5916 23.7692C17.0565 20.6724 13.336 19.0736 10.4417 17.6372C12.3104 21.9492 13.3641 23.2652 13.8475 31.8108C13.8559 31.9872 13.8699 32.1496 13.8784 32.3344C13.8784 32.3344 13.8756 32.3316 13.8727 32.3316C13.8559 32.3176 13.839 32.3064 13.8194 32.2924L14.1004 36.96L13.9992 36.8732C14.0048 40.054 13.8446 41.7788 13.7379 42.9968C12.5436 56.7504 16.0983 60.1048 22.1455 63.4732C26.1695 55.0872 25.8014 47.6616 21.5807 40.6896C21.0721 39.8496 20.5241 39.0656 19.9509 38.3208C19.9481 39.7264 19.934 41.6108 19.5687 43.9068C22.8958 50.7164 22.331 58.1616 21.3109 61.1296C15.7723 56.8792 16.6631 49.1568 16.9919 43.2768C17.1043 41.2356 17.3094 36.6268 17.1127 31.7268C16.9722 29.2376 16.7306 26.7232 16.34 24.5532C22.6035 29.0444 24.4132 34.2188 26.5573 39.5612C28.5749 34.5324 30.3565 29.148 36.7634 24.5532C36.1901 27.7564 35.9288 31.7184 35.8613 35.2268C34.2849 36.7836 32.7956 38.5924 31.5254 40.6896C27.3048 47.6616 26.9366 55.0844 30.9606 63.4732C37.0078 60.1048 40.5625 56.7504 39.3683 42.9968ZM27.9567 28.9688C27.5015 29.6492 26.577 31.2088 26.5517 31.2536C26.5264 31.2088 25.6496 29.7248 25.2169 29.0752C24.4554 27.93 23.6573 26.9108 22.834 25.9924C24.1828 24.3964 25.4501 22.8116 26.5517 21.0588C27.76 22.7892 29.0104 24.5924 30.2412 26.0204C29.4544 26.8996 28.6873 27.8768 27.9567 28.9688ZM31.7952 61.1296C30.5785 57.5932 29.9912 47.684 35.8979 40.0876C35.9456 41.3672 36.0046 42.0168 36.1142 43.2796C36.5976 48.8628 37.331 56.8792 31.7952 61.1296Z" fill="#F7931E"/>
</g>
<defs>
<clipPath id="clip0_109_2434">
<rect width="172" height="70" fill="white" transform="translate(0.44635)"/>
</clipPath>
</defs>
</svg>
