<svg width="204" height="70" viewBox="0 0 204 70" fill="none" xmlns="http://www.w3.org/2000/svg">
<g style="mix-blend-mode:luminosity" clip-path="url(#clip0_109_2466)">
<path d="M0.446289 41.8726H5.22768V59.4202C5.22768 63.1402 7.35568 65.2694 11.3998 65.2694C15.4439 65.2694 17.5719 63.1402 17.5719 59.4202V41.8726H22.3533V59.2255C22.3533 62.4028 21.3113 64.88 19.2672 66.6613C17.2231 68.4053 14.6183 69.2959 11.3998 69.2959C8.18128 69.2959 5.53231 68.4053 3.4926 66.624C1.44407 64.8469 0.446289 62.3655 0.446289 59.2296V41.8726Z" fill="#00162C"/>
<path d="M29.8676 49.4655H34.3885V52.796C35.9514 50.4721 38.5606 49.1548 41.47 49.1548C45.3375 49.1548 47.9026 51.284 47.9026 55.004V68.9891H43.3817V56.284C43.3817 53.9228 42.2515 52.7215 39.991 52.7215C38.4679 52.7215 37.1655 53.4961 36.0352 55.0081C34.9492 56.5202 34.384 58.5334 34.384 61.0893V68.9932H29.8676V49.4655Z" fill="#00162C"/>
<path d="M53.3815 59.2296C53.3815 56.4003 54.3396 54.0018 56.2954 52.0631C58.2512 50.1244 60.9002 49.1592 64.1628 49.1592C67.4211 49.1592 70.0303 50.1285 71.9861 52.0631C73.9419 54.0018 74.9397 56.4003 74.9397 59.2296C74.9397 62.0589 73.9419 64.4574 71.9861 66.3961C70.0303 68.3348 67.4211 69.3 64.1628 69.3C60.9046 69.3 58.2512 68.3307 56.2954 66.3961C54.3352 64.4574 53.3815 62.0548 53.3815 59.2296ZM58.1585 59.2296C58.1585 61.0109 58.6795 62.5602 59.7214 63.8402C60.8075 65.1202 62.2865 65.7375 64.154 65.7375C66.0215 65.7375 67.5005 65.1161 68.5425 63.8402C69.6285 62.5602 70.1495 61.0109 70.1495 59.2296C70.1495 57.4483 69.6285 55.9363 68.5425 54.6604C67.5005 53.3804 66.0215 52.7217 64.154 52.7217C62.2865 52.7217 60.8075 53.3804 59.7214 54.6604C58.6795 55.9363 58.1585 57.4442 58.1585 59.2296Z" fill="#00162C"/>
<path d="M99.6635 63.9148C97.8798 67.5188 94.754 69.3 90.189 69.3C86.8866 69.3 84.3215 68.3307 82.5423 66.4334C80.7586 64.4947 79.8933 62.0962 79.8933 59.2296C79.8933 56.363 80.7631 53.9603 82.5423 52.0631C84.3259 50.1244 86.8866 49.1592 90.189 49.1592C94.754 49.1592 97.8798 50.9405 99.6635 54.5444L95.6238 56.0937C94.4936 53.8485 92.6702 52.7217 90.1934 52.7217C86.4981 52.7217 84.6747 55.3149 84.6747 59.2296C84.6747 63.1401 86.4981 65.7375 90.1934 65.7375C92.6702 65.7375 94.4936 64.6149 95.6238 62.3655L99.6635 63.9148Z" fill="#00162C"/>
<path d="M105.226 41.9884C106.445 40.8658 108.44 40.8658 109.659 41.9884C110.877 43.0738 110.877 44.8551 109.659 45.9404C108.484 46.9884 106.401 46.9884 105.182 45.9404C104.008 44.8551 104.008 43.0738 105.226 41.9884ZM105.182 49.4657H109.703V68.9893H105.182V49.4657Z" fill="#00162C"/>
<path d="M120.957 68.9891H116.436V49.4655H120.957V52.7173C122.392 50.4307 124.996 49.1548 127.433 49.1548C128.431 49.1548 129.345 49.3081 130.215 49.6187L129.433 53.2973C128.74 52.9079 127.871 52.7173 126.868 52.7173C125.261 52.7173 123.871 53.492 122.696 55.0786C121.522 56.6279 120.957 58.8358 120.957 61.7397V68.9891Z" fill="#00162C"/>
<path d="M153.12 63.9148C151.336 67.5188 148.21 69.3 143.645 69.3C140.343 69.3 137.778 68.3307 135.998 66.4334C134.215 64.4947 133.349 62.0962 133.349 59.2296C133.349 56.363 134.219 53.9603 135.998 52.0631C137.782 50.1244 140.343 49.1592 143.645 49.1592C148.21 49.1592 151.336 50.9405 153.12 54.5444L149.08 56.0937C147.95 53.8485 146.126 52.7217 143.65 52.7217C139.954 52.7217 138.131 55.3149 138.131 59.2296C138.131 63.1401 139.954 65.7375 143.65 65.7375C146.126 65.7375 147.95 64.6149 149.08 62.3655L153.12 63.9148Z" fill="#00162C"/>
<path d="M159.292 41.5659H163.813V68.9893H159.292V41.5659Z" fill="#00162C"/>
<path d="M189.843 60.3522H174.329C174.329 63.4135 176.329 65.7375 179.759 65.7375C182.192 65.7375 184.408 64.4989 185.494 62.4442L189.362 63.7988C187.146 67.6347 184.581 69.3 179.759 69.3C172.545 69.3 169.548 63.8775 169.548 59.2296C169.548 54.5817 172.545 49.1592 179.759 49.1592C186.757 49.1592 189.843 54.2337 189.843 58.6124V60.3522ZM174.413 56.9802H185.062C184.669 54.5403 182.845 52.7176 179.759 52.7176C176.846 52.7217 174.934 54.4616 174.413 56.9802Z" fill="#00162C"/>
<path d="M96.7142 34.5361C102.079 34.5361 106.427 30.4558 106.427 25.4226C106.427 20.3893 102.079 16.3091 96.7142 16.3091C91.35 16.3091 87.0013 20.3893 87.0013 25.4226C87.0013 30.4558 91.35 34.5361 96.7142 34.5361Z" fill="#7AC943"/>
<path d="M75.5269 32.4896C80.6864 32.4896 84.8689 28.5651 84.8689 23.724C84.8689 18.883 80.6864 14.9585 75.5269 14.9585C70.3674 14.9585 66.1849 18.883 66.1849 23.724C66.1849 28.5651 70.3674 32.4896 75.5269 32.4896Z" fill="url(#paint0_linear_109_2466)"/>
<path d="M86.4627 30.294C95.5844 30.294 102.979 23.3557 102.979 14.7969C102.979 6.23809 95.5844 -0.700195 86.4627 -0.700195C77.341 -0.700195 69.9464 6.23809 69.9464 14.7969C69.9464 23.3557 77.341 30.294 86.4627 30.294Z" fill="url(#paint1_linear_109_2466)"/>
<path d="M101.195 23.6745C106.379 23.6745 110.582 19.7315 110.582 14.8675C110.582 10.0036 106.379 6.06055 101.195 6.06055C96.0116 6.06055 91.8093 10.0036 91.8093 14.8675C91.8093 19.7315 96.0116 23.6745 101.195 23.6745Z" fill="url(#paint2_linear_109_2466)"/>
</g>
<defs>
<linearGradient id="paint0_linear_109_2466" x1="66.1827" y1="23.7248" x2="84.8695" y2="23.7248" gradientUnits="userSpaceOnUse">
<stop stop-color="#74EBD5"/>
<stop offset="1" stop-color="#ACB6E5"/>
</linearGradient>
<linearGradient id="paint1_linear_109_2466" x1="69.9468" y1="14.7962" x2="102.978" y2="14.7962" gradientUnits="userSpaceOnUse">
<stop stop-color="#FC4A1A"/>
<stop offset="1" stop-color="#F7B733"/>
</linearGradient>
<linearGradient id="paint2_linear_109_2466" x1="91.8094" y1="14.8668" x2="110.582" y2="14.8668" gradientUnits="userSpaceOnUse">
<stop stop-color="#EE0979"/>
<stop offset="1" stop-color="#FF6A00"/>
</linearGradient>
<clipPath id="clip0_109_2466">
<rect width="203" height="70" fill="white" transform="translate(0.446289)"/>
</clipPath>
</defs>
</svg>
