<svg width="761" height="608" viewBox="0 0 761 608" fill="none" xmlns="http://www.w3.org/2000/svg">
<g clip-path="url(#clip0_1212_1945)">
<path style="mix-blend-mode:multiply" opacity="0.12" d="M156.077 563.418H156.412V608.074H169.461V563.418H254.033V608.074H267.081V563.418H267.417C269.027 563.246 270.516 562.485 271.598 561.283C272.681 560.081 273.28 558.522 273.28 556.905C273.28 555.289 272.681 553.73 271.598 552.527C270.516 551.325 269.027 550.565 267.417 550.393H267.081V518.184C267.149 517.288 267.031 516.387 266.734 515.538C266.437 514.689 265.967 513.911 265.355 513.251C264.742 512.592 264 512.066 263.174 511.706C262.349 511.346 261.458 511.161 260.557 511.161C259.656 511.161 258.765 511.346 257.939 511.706C257.114 512.066 256.372 512.592 255.759 513.251C255.147 513.911 254.677 514.689 254.38 515.538C254.083 516.387 253.965 517.288 254.033 518.184V550.337H169.516V518.184C169.614 517.271 169.519 516.347 169.236 515.472C168.952 514.598 168.488 513.793 167.873 513.109C167.257 512.426 166.505 511.879 165.664 511.505C164.823 511.131 163.913 510.938 162.992 510.938C162.072 510.938 161.161 511.131 160.321 511.505C159.48 511.879 158.727 512.426 158.112 513.109C157.497 513.793 157.032 514.598 156.749 515.472C156.466 516.347 156.37 517.271 156.468 518.184V550.337H156.133C154.522 550.509 153.033 551.269 151.951 552.472C150.868 553.674 150.27 555.233 150.27 556.849C150.27 558.466 150.868 560.025 151.951 561.227C153.033 562.43 154.522 563.19 156.133 563.362L156.077 563.418Z" fill="url(#paint0_linear_1212_1945)"/>
<path opacity="0.44" d="M234.965 441.393H299.405C384.742 441.393 359.185 360.416 398.051 360.416C441.222 360.416 422.097 465.043 454.681 476.244C487.265 487.445 508.273 431.215 537.109 431.215C565.946 431.215 573.421 500.303 573.421 500.303H234.983L234.965 441.393Z" fill="#DBEBFB"/>
<path opacity="0.44" d="M149.535 168.84V55.5047C149.535 12.8949 213.565 8.9874 213.565 60.0076C213.565 105.371 207.861 119.699 225.272 129.039C260.689 147.963 245.646 288.817 245.646 288.817L179.267 262.767L149.535 168.84Z" fill="#B8D0E3"/>
<path d="M0 500.303V292.129C0 244.662 52.9205 238.857 65.2419 219.562C77.5633 200.266 80.5085 132.109 80.5085 103.417C80.5085 74.7252 114.844 73.1436 114.844 105.966C114.844 152.223 116.131 181.213 128.34 179.743C140.55 178.273 135.591 57.123 162.956 57.123C190.32 57.123 197.049 185.883 204.58 203.894C223.929 250.114 284.417 239.601 284.417 293.003C284.417 316.578 284.007 399.267 284.007 422.098C284.007 444.929 311.465 444.78 314.503 422.098C317.542 399.416 340.302 379.767 367.219 389.294C411.322 404.924 397.044 447.534 420.4 461.396C459.545 484.71 525.235 466.68 534.406 500.303H0Z" fill="#ABDAF7"/>
<path d="M149.535 43.8753V46.6105C149.535 49.4673 151.855 51.7832 154.717 51.7832L268.872 51.7832C271.734 51.7832 274.054 49.4673 274.054 46.6105V43.8753C274.054 41.0184 271.734 38.7025 268.872 38.7025L154.717 38.7025C151.855 38.7025 149.535 41.0184 149.535 43.8753Z" fill="#8F5FE3"/>
<path d="M169.518 38.7021L179.267 51.7828H169.518V38.7021Z" fill="url(#paint1_linear_1212_1945)"/>
<path d="M273.663 47.3916L267.176 38.7021V51.727H267.511C268.86 51.7275 270.175 51.3109 271.277 50.5346C272.378 49.7582 273.212 48.6602 273.663 47.3916Z" fill="url(#paint2_linear_1212_1945)"/>
<path d="M149.535 105.055V107.79C149.535 110.647 151.855 112.963 154.717 112.963L268.872 112.963C271.734 112.963 274.054 110.647 274.054 107.79V105.055C274.054 102.198 271.734 99.8822 268.872 99.8822H154.717C151.855 99.8822 149.535 102.198 149.535 105.055Z" fill="#8F5FE3"/>
<path d="M169.518 99.8818L179.267 112.963H169.518V99.8818Z" fill="url(#paint3_linear_1212_1945)"/>
<path d="M273.663 108.571L267.176 99.8818V112.907H267.511C268.86 112.907 270.175 112.491 271.277 111.714C272.378 110.938 273.212 109.84 273.663 108.571Z" fill="url(#paint4_linear_1212_1945)"/>
<path d="M149.535 166.235V168.97C149.535 171.827 151.855 174.143 154.717 174.143H268.872C271.734 174.143 274.054 171.827 274.054 168.97V166.235C274.054 163.378 271.734 161.062 268.872 161.062H154.717C151.855 161.062 149.535 163.378 149.535 166.235Z" fill="#8F5FE3"/>
<path d="M169.518 161.08L179.267 174.142H169.518V161.08Z" fill="url(#paint5_linear_1212_1945)"/>
<path d="M273.663 169.77L267.176 161.08V174.105H267.511C268.86 174.108 270.177 173.693 271.279 172.916C272.381 172.139 273.214 171.04 273.663 169.77Z" fill="url(#paint6_linear_1212_1945)"/>
<path d="M149.535 227.414V230.15C149.535 233.006 151.855 235.322 154.717 235.322H268.872C271.734 235.322 274.054 233.006 274.054 230.15V227.414C274.054 224.558 271.734 222.242 268.872 222.242H154.717C151.855 222.242 149.535 224.558 149.535 227.414Z" fill="#8F5FE3"/>
<path d="M169.518 222.26L179.267 235.322H169.518V222.26Z" fill="url(#paint7_linear_1212_1945)"/>
<path d="M273.663 230.949L267.176 222.26V235.285H267.511C268.86 235.288 270.177 234.872 271.279 234.096C272.381 233.319 273.214 232.219 273.663 230.949Z" fill="url(#paint8_linear_1212_1945)"/>
<path d="M149.535 288.612V291.347C149.535 294.204 151.855 296.52 154.717 296.52H268.872C271.734 296.52 274.054 294.204 274.054 291.347V288.612C274.054 285.755 271.734 283.439 268.872 283.439H154.717C151.855 283.439 149.535 285.755 149.535 288.612Z" fill="#8F5FE3"/>
<path d="M169.518 283.439L179.267 296.52H169.518V283.439Z" fill="url(#paint9_linear_1212_1945)"/>
<path d="M273.663 292.129L267.176 283.439V296.464H267.511C268.86 296.465 270.175 296.048 271.277 295.272C272.378 294.495 273.212 293.397 273.663 292.129Z" fill="url(#paint10_linear_1212_1945)"/>
<path d="M149.535 349.791V352.526C149.535 355.383 151.855 357.699 154.717 357.699H268.872C271.734 357.699 274.054 355.383 274.054 352.526V349.791C274.054 346.934 271.734 344.619 268.872 344.619H154.717C151.855 344.619 149.535 346.934 149.535 349.791Z" fill="#8F5FE3"/>
<path d="M169.518 344.619L179.267 357.7H169.518V344.619Z" fill="url(#paint11_linear_1212_1945)"/>
<path d="M273.663 353.327L267.176 344.619V357.644H267.511C268.857 357.643 270.17 357.228 271.27 356.456C272.371 355.683 273.206 354.591 273.663 353.327Z" fill="url(#paint12_linear_1212_1945)"/>
<path d="M149.535 410.971V413.706C149.535 416.563 151.855 418.879 154.717 418.879H268.872C271.734 418.879 274.054 416.563 274.054 413.706V410.971C274.054 408.114 271.734 405.798 268.872 405.798H154.717C151.855 405.798 149.535 408.114 149.535 410.971Z" fill="#8F5FE3"/>
<path d="M169.518 405.817L179.267 418.879H169.518V405.817Z" fill="url(#paint13_linear_1212_1945)"/>
<path d="M273.663 414.507L267.176 405.817V418.842H267.511C268.86 418.845 270.177 418.43 271.279 417.653C272.381 416.876 273.214 415.777 273.663 414.507Z" fill="url(#paint14_linear_1212_1945)"/>
<path d="M149.535 472.151V474.886C149.535 477.743 151.855 480.059 154.717 480.059H268.872C271.734 480.059 274.054 477.743 274.054 474.886V472.151C274.054 469.294 271.734 466.978 268.872 466.978H154.717C151.855 466.978 149.535 469.294 149.535 472.151Z" fill="#8F5FE3"/>
<path d="M169.518 466.997L179.267 480.059H169.518V466.997Z" fill="url(#paint15_linear_1212_1945)"/>
<path d="M273.663 475.686L267.176 467.034V480.059H267.511C268.864 480.057 270.183 479.635 271.285 478.851C272.387 478.068 273.218 476.962 273.663 475.686Z" fill="url(#paint16_linear_1212_1945)"/>
<path d="M164.334 0H161.594C158.732 0 156.412 2.31591 156.412 5.17273V513.607C156.412 516.464 158.732 518.78 161.594 518.78H164.334C167.196 518.78 169.516 516.464 169.516 513.607V5.17273C169.516 2.31591 167.196 0 164.334 0Z" fill="#6331B5"/>
<path d="M262.012 0H259.272C256.41 0 254.09 2.31591 254.09 5.17273V513.607C254.09 516.464 256.41 518.78 259.272 518.78H262.012C264.874 518.78 267.194 516.464 267.194 513.607V5.17273C267.194 2.31591 264.874 0 262.012 0Z" fill="#6331B5"/>
<path d="M116.708 540.94C130.761 540.94 142.152 537.216 142.152 532.623C142.152 528.029 130.761 524.306 116.708 524.306C102.655 524.306 91.2637 528.029 91.2637 532.623C91.2637 537.216 102.655 540.94 116.708 540.94Z" fill="#B8D0E3"/>
<path d="M195.223 535.675C200.73 535.675 205.195 534.309 205.195 532.624C205.195 530.939 200.73 529.572 195.223 529.572C189.715 529.572 185.25 530.939 185.25 532.624C185.25 534.309 189.715 535.675 195.223 535.675Z" fill="#B8D0E3"/>
<path d="M306.152 524.306C322.161 524.306 335.138 521.465 335.138 517.961C335.138 514.457 322.161 511.616 306.152 511.616C290.144 511.616 277.166 514.457 277.166 517.961C277.166 521.465 290.144 524.306 306.152 524.306Z" fill="#B8D0E3"/>
<path style="mix-blend-mode:multiply" opacity="0.12" d="M587.811 586.955C566.561 586.955 549.225 589.002 549.113 591.57L552.655 516.9C552.767 514.798 568.499 513.179 587.811 513.179C607.123 513.179 622.855 514.872 622.949 516.9L626.509 591.57C626.322 589.002 609.061 586.955 587.811 586.955Z" fill="url(#paint17_linear_1212_1945)"/>
<path d="M627.384 439.757C627.253 442.362 609.545 444.464 587.81 444.464C566.075 444.464 548.348 442.362 548.218 439.757C548.087 437.152 565.814 434.975 587.81 434.975C609.806 434.975 627.514 437.114 627.384 439.757Z" fill="url(#paint18_linear_1212_1945)"/>
<path d="M569.705 400.334L539.383 408.512L542.981 421.804L573.303 413.626L569.705 400.334Z" fill="#3A79AB"/>
<path d="M571.984 412.888L543.725 420.517C543.47 420.592 543.233 420.721 543.032 420.894C542.83 421.068 542.668 421.283 542.557 421.525C542.446 421.766 542.388 422.029 542.387 422.295C542.386 422.561 542.442 422.824 542.551 423.066L545.72 429.579C546.346 430.854 547.396 431.873 548.692 432.46C549.988 433.048 551.448 433.167 552.822 432.798L554.686 432.277C555.106 432.161 555.544 432.13 555.976 432.184C556.408 432.239 556.825 432.378 557.203 432.595C557.581 432.811 557.912 433.1 558.177 433.444C558.443 433.789 558.637 434.182 558.75 434.602L565.05 457.731C565.173 458.21 565.391 458.659 565.69 459.053C565.99 459.447 566.364 459.778 566.793 460.025C567.222 460.273 567.695 460.433 568.187 460.496C568.678 460.559 569.177 460.523 569.654 460.392C570.136 460.269 570.588 460.051 570.985 459.751C571.381 459.451 571.713 459.075 571.961 458.645C572.21 458.215 572.369 457.74 572.431 457.247C572.493 456.755 572.455 456.255 572.32 455.777L566.075 432.704C565.96 432.287 565.929 431.85 565.984 431.42C566.039 430.99 566.179 430.575 566.395 430.2C566.612 429.824 566.901 429.495 567.246 429.232C567.591 428.969 567.985 428.777 568.405 428.667L570.269 428.146C571.644 427.777 572.846 426.942 573.669 425.784C574.493 424.626 574.886 423.217 574.781 421.801L574.24 414.581C574.222 414.315 574.147 414.055 574.019 413.82C573.891 413.585 573.715 413.38 573.501 413.219C573.286 413.059 573.04 412.946 572.779 412.889C572.517 412.832 572.246 412.831 571.984 412.888Z" fill="#F2823C"/>
<path d="M571.984 412.888L543.725 420.517C543.47 420.592 543.233 420.72 543.032 420.894C542.83 421.068 542.668 421.283 542.557 421.524C542.446 421.766 542.388 422.029 542.387 422.294C542.386 422.56 542.442 422.823 542.551 423.066L544.639 427.364L574.65 419.27L574.296 414.507C574.269 414.24 574.185 413.983 574.05 413.752C573.915 413.521 573.731 413.322 573.512 413.169C573.292 413.015 573.042 412.91 572.779 412.862C572.515 412.813 572.244 412.822 571.984 412.888Z" fill="#E5E400"/>
<path d="M541.898 407.827L544.583 417.726C544.596 417.778 544.619 417.828 544.652 417.872C544.684 417.915 544.725 417.952 544.772 417.98C544.819 418.008 544.871 418.026 544.925 418.033C544.978 418.041 545.033 418.037 545.086 418.023C545.139 418.011 545.188 417.987 545.231 417.954C545.274 417.922 545.31 417.881 545.336 417.833C545.362 417.786 545.379 417.734 545.384 417.68C545.389 417.626 545.383 417.572 545.366 417.521L542.7 407.622L541.898 407.827Z" fill="#316791"/>
<path d="M544.305 407.175L546.989 417.074C547.002 417.127 547.025 417.176 547.058 417.219C547.091 417.262 547.132 417.298 547.179 417.324C547.227 417.35 547.279 417.366 547.333 417.371C547.387 417.376 547.441 417.37 547.492 417.353C547.545 417.34 547.595 417.317 547.639 417.285C547.682 417.252 547.719 417.211 547.747 417.165C547.775 417.118 547.793 417.066 547.8 417.012C547.808 416.958 547.804 416.904 547.791 416.851L545.106 406.952L544.305 407.175Z" fill="#316791"/>
<path d="M546.801 406.505L549.466 416.404C549.497 416.508 549.566 416.597 549.659 416.652C549.753 416.707 549.864 416.725 549.97 416.702C550.023 416.689 550.072 416.666 550.116 416.633C550.16 416.601 550.197 416.56 550.224 416.513C550.252 416.467 550.27 416.415 550.278 416.361C550.285 416.307 550.282 416.252 550.268 416.2L547.584 406.301L546.801 406.505Z" fill="#316791"/>
<path d="M549.244 405.854L551.928 415.753C551.941 415.806 551.965 415.855 551.997 415.898C552.03 415.941 552.071 415.976 552.119 416.003C552.166 416.029 552.218 416.045 552.272 416.05C552.326 416.055 552.38 416.049 552.432 416.032C552.484 416.019 552.534 415.996 552.577 415.963C552.62 415.931 552.656 415.889 552.682 415.842C552.708 415.795 552.724 415.743 552.729 415.689C552.734 415.635 552.728 415.581 552.711 415.53L550.046 405.631L549.244 405.854Z" fill="#316791"/>
<path d="M551.76 405.184L554.444 415.083C554.457 415.136 554.481 415.185 554.514 415.228C554.546 415.272 554.587 415.308 554.634 415.336C554.681 415.364 554.732 415.382 554.786 415.389C554.84 415.397 554.895 415.394 554.947 415.381C555 415.367 555.049 415.344 555.093 415.311C555.136 415.279 555.173 415.238 555.201 415.191C555.228 415.145 555.247 415.093 555.254 415.039C555.262 414.986 555.259 414.931 555.245 414.878L552.561 404.979L551.76 405.184Z" fill="#316791"/>
<path d="M554.146 404.533L556.812 414.432C556.843 414.536 556.912 414.624 557.005 414.68C557.098 414.735 557.209 414.753 557.315 414.729C557.421 414.695 557.51 414.623 557.565 414.526C557.62 414.43 557.638 414.317 557.614 414.208L554.929 404.31L554.146 404.533Z" fill="#316791"/>
<path d="M556.588 403.882L559.272 413.763C559.278 413.822 559.296 413.879 559.326 413.93C559.356 413.982 559.397 414.026 559.445 414.06C559.494 414.094 559.55 414.117 559.608 414.128C559.667 414.138 559.727 414.136 559.784 414.121C559.842 414.106 559.895 414.078 559.941 414.04C559.987 414.003 560.024 413.955 560.05 413.902C560.076 413.848 560.09 413.79 560.091 413.73C560.091 413.671 560.079 413.612 560.055 413.558L557.352 403.659L556.588 403.882Z" fill="#316791"/>
<path d="M559.029 403.212L561.714 413.111C561.727 413.164 561.75 413.214 561.783 413.257C561.815 413.301 561.856 413.338 561.903 413.366C561.95 413.393 562.001 413.411 562.055 413.419C562.109 413.426 562.164 413.423 562.217 413.409C562.32 413.379 562.408 413.309 562.46 413.215C562.512 413.121 562.525 413.01 562.496 412.907L559.831 403.008L559.029 403.212Z" fill="#316791"/>
<path d="M561.473 402.561L564.157 412.46C564.187 412.566 564.257 412.656 564.353 412.71C564.449 412.764 564.563 412.778 564.669 412.749C564.776 412.719 564.866 412.648 564.92 412.552C564.974 412.456 564.988 412.343 564.958 412.237L562.274 402.338L561.473 402.561Z" fill="#316791"/>
<path d="M563.932 401.91L566.597 411.809C566.611 411.861 566.634 411.911 566.667 411.954C566.699 411.997 566.74 412.034 566.787 412.062C566.834 412.089 566.885 412.107 566.939 412.115C566.993 412.123 567.048 412.12 567.1 412.106C567.153 412.093 567.203 412.069 567.246 412.037C567.29 412.004 567.326 411.964 567.354 411.917C567.381 411.87 567.4 411.819 567.407 411.765C567.415 411.711 567.412 411.657 567.399 411.604L564.808 401.687L563.932 401.91Z" fill="#316791"/>
<path d="M566.375 401.24L569.059 411.139C569.068 411.196 569.09 411.251 569.121 411.299C569.153 411.347 569.195 411.389 569.244 411.42C569.293 411.451 569.348 411.471 569.405 411.48C569.463 411.488 569.521 411.484 569.577 411.468C569.633 411.452 569.684 411.425 569.729 411.387C569.773 411.35 569.809 411.304 569.834 411.251C569.859 411.199 569.873 411.142 569.874 411.084C569.876 411.026 569.865 410.969 569.842 410.915L567.177 401.017L566.375 401.24Z" fill="#316791"/>
<path d="M540.016 410.86C540.016 410.86 544.713 415.325 551.648 411.046C556.569 408.013 559.253 407.678 560.073 409.39C560.893 411.101 561.546 413.818 563.671 412.999C566.616 411.827 563.167 406.952 565.535 405.947C567.902 404.943 570.474 403.398 569.636 400.365L539.326 408.552L540.016 410.86Z" fill="#B8D0E3"/>
<path d="M611.205 432.89L608.223 432.239L611.69 416.219C611.988 414.791 612.763 413.506 613.887 412.573C615.01 411.64 616.417 411.115 617.878 411.083L634.804 410.618C636.241 410.579 637.624 410.058 638.729 409.14C639.835 408.222 640.599 406.96 640.9 405.557L641.906 400.886C642.001 400.413 641.909 399.922 641.648 399.516C641.387 399.11 640.978 398.821 640.508 398.709L618.139 393.89L618.773 390.913L641.142 395.732C642.404 396.009 643.504 396.773 644.203 397.857C644.902 398.942 645.142 400.258 644.87 401.519L643.863 406.208C643.413 408.275 642.282 410.132 640.65 411.482C639.017 412.831 636.979 413.595 634.86 413.651L617.934 414.097C617.16 414.122 616.416 414.404 615.821 414.9C615.227 415.396 614.816 416.076 614.654 416.833L611.205 432.89Z" fill="#3A79AB"/>
<path d="M613.953 420.96L610.8 420.281C609.864 420.08 608.942 420.674 608.74 421.609L597.039 475.813C596.838 476.747 597.433 477.668 598.369 477.869L601.521 478.547C602.457 478.749 603.38 478.154 603.581 477.22L615.282 423.016C615.484 422.081 614.889 421.161 613.953 420.96Z" fill="#FFBC00"/>
<path d="M638.625 391.676L595.752 382.372L593.664 392.066L636.537 401.37C637.935 401.668 639.52 399.732 640.098 397.072C640.676 394.411 640.023 391.973 638.625 391.676Z" fill="#4DA1E3"/>
<path d="M597.149 387.824C596.571 390.503 594.968 392.438 593.589 392.141C592.209 391.843 591.538 389.424 592.116 386.745C592.694 384.065 594.278 382.149 595.676 382.446C597.074 382.744 597.727 385.163 597.149 387.824Z" fill="#3A79AB"/>
<path d="M632.53 390.373L601.903 383.786C603.283 384.084 603.935 386.503 603.357 389.164C602.779 391.824 601.195 393.759 599.797 393.462L630.442 400.049C631.821 400.346 633.424 398.43 634.002 395.75C634.58 393.071 633.909 390.745 632.53 390.373Z" fill="#B8D0E3"/>
<path d="M587.811 446.567C566.561 446.567 549.225 444.52 549.113 441.971L552.655 516.622C552.767 518.724 568.499 520.436 587.811 520.436C607.123 520.436 622.855 518.724 622.949 516.622L626.509 441.971C626.322 444.464 609.061 446.567 587.811 446.567Z" fill="#FFBC00"/>
<path style="mix-blend-mode:screen" opacity="0.25" d="M565.293 445.635C555.563 444.817 549.188 443.458 549.113 441.914L552.655 516.565C552.655 517.905 559.142 519.077 568.779 519.765L565.293 445.635Z" fill="url(#paint19_linear_1212_1945)"/>
<path d="M587.81 452.278C607.793 452.278 624.346 450.418 626.955 448.185L627.366 439.756C627.235 442.361 609.527 444.463 587.792 444.463C566.057 444.463 548.33 442.361 548.199 439.756L548.609 448.185C551.256 450.492 567.809 452.278 587.81 452.278Z" fill="#E5E400"/>
<path style="mix-blend-mode:multiply" opacity="0.12" d="M623.6 502.648C623.317 503.237 622.932 503.772 622.463 504.229C621.518 505.217 620.342 505.954 619.04 506.373C617.738 506.792 616.351 506.88 615.007 506.629C598.23 503.169 582.33 448.725 582.162 448.185C582.12 448.035 582.046 447.896 581.944 447.777C581.843 447.659 581.716 447.565 581.574 447.501C581.431 447.437 581.277 447.405 581.121 447.407C580.965 447.41 580.811 447.447 580.671 447.515C580.358 447.633 580.098 447.86 579.94 448.154C579.783 448.449 579.737 448.79 579.813 449.115C580.466 451.404 596.235 505.327 614.242 509.03C614.91 509.177 615.591 509.251 616.274 509.253C618.921 509.166 621.451 508.144 623.413 506.369L623.6 502.648Z" fill="url(#paint20_linear_1212_1945)"/>
<path d="M625.559 461.88L625.223 468.746C629.436 482.329 633.462 499.522 629.249 503.727C628.378 504.72 627.258 505.464 626.003 505.883C624.748 506.301 623.405 506.379 622.11 506.108C604.924 502.685 582.499 448.725 582.275 448.185C582.224 448.026 582.141 447.88 582.03 447.755C581.92 447.63 581.785 447.529 581.634 447.459C581.482 447.389 581.318 447.35 581.151 447.346C580.984 447.342 580.818 447.372 580.664 447.435C580.509 447.498 580.369 447.593 580.253 447.712C580.137 447.832 580.046 447.974 579.988 448.13C579.929 448.286 579.903 448.452 579.912 448.619C579.921 448.785 579.964 448.948 580.038 449.097C580.97 451.367 603.19 504.806 621.644 508.49C622.318 508.631 623.006 508.699 623.695 508.695C625.065 508.677 626.417 508.378 627.667 507.818C628.918 507.258 630.04 506.448 630.964 505.439C637.209 499.205 629.883 474.477 625.559 461.88Z" fill="#8F5FE3"/>
</g>
<path d="M353.56 272.1C353.2 271.407 352.7 270.887 352.06 270.54C351.42 270.18 350.68 270 349.84 270C348.92 270 348.1 270.207 347.38 270.62C346.66 271.033 346.093 271.62 345.68 272.38C345.28 273.14 345.08 274.02 345.08 275.02C345.08 276.02 345.28 276.907 345.68 277.68C346.093 278.44 346.66 279.027 347.38 279.44C348.1 279.853 348.92 280.06 349.84 280.06C351.08 280.06 352.087 279.713 352.86 279.02C353.633 278.327 354.107 277.387 354.28 276.2H349.06V274.38H356.72V276.16C356.573 277.24 356.187 278.233 355.56 279.14C354.947 280.047 354.14 280.773 353.14 281.32C352.153 281.853 351.053 282.12 349.84 282.12C348.533 282.12 347.34 281.82 346.26 281.22C345.18 280.607 344.32 279.76 343.68 278.68C343.053 277.6 342.74 276.38 342.74 275.02C342.74 273.66 343.053 272.44 343.68 271.36C344.32 270.28 345.18 269.44 346.26 268.84C347.353 268.227 348.547 267.92 349.84 267.92C351.32 267.92 352.633 268.287 353.78 269.02C354.94 269.74 355.78 270.767 356.3 272.1H353.56ZM363.749 282.18C362.709 282.18 361.769 281.947 360.929 281.48C360.089 281 359.429 280.333 358.949 279.48C358.469 278.613 358.229 277.613 358.229 276.48C358.229 275.36 358.475 274.367 358.969 273.5C359.462 272.633 360.135 271.967 360.989 271.5C361.842 271.033 362.795 270.8 363.849 270.8C364.902 270.8 365.855 271.033 366.709 271.5C367.562 271.967 368.235 272.633 368.729 273.5C369.222 274.367 369.469 275.36 369.469 276.48C369.469 277.6 369.215 278.593 368.709 279.46C368.202 280.327 367.509 281 366.629 281.48C365.762 281.947 364.802 282.18 363.749 282.18ZM363.749 280.2C364.335 280.2 364.882 280.06 365.389 279.78C365.909 279.5 366.329 279.08 366.649 278.52C366.969 277.96 367.129 277.28 367.129 276.48C367.129 275.68 366.975 275.007 366.669 274.46C366.362 273.9 365.955 273.48 365.449 273.2C364.942 272.92 364.395 272.78 363.809 272.78C363.222 272.78 362.675 272.92 362.169 273.2C361.675 273.48 361.282 273.9 360.989 274.46C360.695 275.007 360.549 275.68 360.549 276.48C360.549 277.667 360.849 278.587 361.449 279.24C362.062 279.88 362.829 280.2 363.749 280.2ZM379.198 272.62C379.585 272.087 380.111 271.653 380.778 271.32C381.458 270.973 382.211 270.8 383.038 270.8C384.011 270.8 384.891 271.033 385.678 271.5C386.465 271.967 387.085 272.633 387.538 273.5C387.991 274.353 388.218 275.333 388.218 276.44C388.218 277.547 387.991 278.54 387.538 279.42C387.085 280.287 386.458 280.967 385.658 281.46C384.871 281.94 383.998 282.18 383.038 282.18C382.185 282.18 381.425 282.013 380.758 281.68C380.105 281.347 379.585 280.92 379.198 280.4V282H376.918V267.2H379.198V272.62ZM385.898 276.44C385.898 275.68 385.738 275.027 385.418 274.48C385.111 273.92 384.698 273.5 384.178 273.22C383.671 272.927 383.125 272.78 382.538 272.78C381.965 272.78 381.418 272.927 380.898 273.22C380.391 273.513 379.978 273.94 379.658 274.5C379.351 275.06 379.198 275.72 379.198 276.48C379.198 277.24 379.351 277.907 379.658 278.48C379.978 279.04 380.391 279.467 380.898 279.76C381.418 280.053 381.965 280.2 382.538 280.2C383.125 280.2 383.671 280.053 384.178 279.76C384.698 279.453 385.111 279.013 385.418 278.44C385.738 277.867 385.898 277.2 385.898 276.44ZM389.713 276.44C389.713 275.333 389.939 274.353 390.393 273.5C390.859 272.647 391.486 271.987 392.273 271.52C393.073 271.04 393.953 270.8 394.913 270.8C395.779 270.8 396.533 270.973 397.173 271.32C397.826 271.653 398.346 272.073 398.733 272.58V270.98H401.033V282H398.733V280.36C398.346 280.88 397.819 281.313 397.153 281.66C396.486 282.007 395.726 282.18 394.873 282.18C393.926 282.18 393.059 281.94 392.273 281.46C391.486 280.967 390.859 280.287 390.393 279.42C389.939 278.54 389.713 277.547 389.713 276.44ZM398.733 276.48C398.733 275.72 398.573 275.06 398.253 274.5C397.946 273.94 397.539 273.513 397.033 273.22C396.526 272.927 395.979 272.78 395.393 272.78C394.806 272.78 394.259 272.927 393.753 273.22C393.246 273.5 392.833 273.92 392.513 274.48C392.206 275.027 392.053 275.68 392.053 276.44C392.053 277.2 392.206 277.867 392.513 278.44C392.833 279.013 393.246 279.453 393.753 279.76C394.273 280.053 394.819 280.2 395.393 280.2C395.979 280.2 396.526 280.053 397.033 279.76C397.539 279.467 397.946 279.04 398.253 278.48C398.573 277.907 398.733 277.24 398.733 276.48ZM403.267 276.48C403.267 275.347 403.494 274.353 403.947 273.5C404.414 272.633 405.054 271.967 405.867 271.5C406.681 271.033 407.614 270.8 408.667 270.8C410.001 270.8 411.101 271.12 411.967 271.76C412.847 272.387 413.441 273.287 413.747 274.46H411.287C411.087 273.913 410.767 273.487 410.327 273.18C409.887 272.873 409.334 272.72 408.667 272.72C407.734 272.72 406.987 273.053 406.427 273.72C405.881 274.373 405.607 275.293 405.607 276.48C405.607 277.667 405.881 278.593 406.427 279.26C406.987 279.927 407.734 280.26 408.667 280.26C409.987 280.26 410.861 279.68 411.287 278.52H413.747C413.427 279.64 412.827 280.533 411.947 281.2C411.067 281.853 409.974 282.18 408.667 282.18C407.614 282.18 406.681 281.947 405.867 281.48C405.054 281 404.414 280.333 403.947 279.48C403.494 278.613 403.267 277.613 403.267 276.48ZM420.38 276.5L425.46 282H422.38L418.3 277.26V282H416.02V267.2H418.3V275.8L422.3 270.98H425.46L420.38 276.5ZM434.949 272.84V278.94C434.949 279.353 435.042 279.653 435.229 279.84C435.429 280.013 435.762 280.1 436.229 280.1H437.629V282H435.829C434.802 282 434.016 281.76 433.469 281.28C432.922 280.8 432.649 280.02 432.649 278.94V272.84H431.349V270.98H432.649V268.24H434.949V270.98H437.629V272.84H434.949ZM444.51 282.18C443.47 282.18 442.53 281.947 441.69 281.48C440.85 281 440.19 280.333 439.71 279.48C439.23 278.613 438.99 277.613 438.99 276.48C438.99 275.36 439.237 274.367 439.73 273.5C440.224 272.633 440.897 271.967 441.75 271.5C442.604 271.033 443.557 270.8 444.61 270.8C445.664 270.8 446.617 271.033 447.47 271.5C448.324 271.967 448.997 272.633 449.49 273.5C449.984 274.367 450.23 275.36 450.23 276.48C450.23 277.6 449.977 278.593 449.47 279.46C448.964 280.327 448.27 281 447.39 281.48C446.524 281.947 445.564 282.18 444.51 282.18ZM444.51 280.2C445.097 280.2 445.644 280.06 446.15 279.78C446.67 279.5 447.09 279.08 447.41 278.52C447.73 277.96 447.89 277.28 447.89 276.48C447.89 275.68 447.737 275.007 447.43 274.46C447.124 273.9 446.717 273.48 446.21 273.2C445.704 272.92 445.157 272.78 444.57 272.78C443.984 272.78 443.437 272.92 442.93 273.2C442.437 273.48 442.044 273.9 441.75 274.46C441.457 275.007 441.31 275.68 441.31 276.48C441.31 277.667 441.61 278.587 442.21 279.24C442.824 279.88 443.59 280.2 444.51 280.2ZM468.78 268.1V282H466.5V275.92H459.96V282H457.68V268.1H459.96V274.06H466.5V268.1H468.78ZM476.561 282.18C475.521 282.18 474.581 281.947 473.741 281.48C472.901 281 472.241 280.333 471.761 279.48C471.281 278.613 471.041 277.613 471.041 276.48C471.041 275.36 471.288 274.367 471.781 273.5C472.275 272.633 472.948 271.967 473.801 271.5C474.655 271.033 475.608 270.8 476.661 270.8C477.715 270.8 478.668 271.033 479.521 271.5C480.375 271.967 481.048 272.633 481.541 273.5C482.035 274.367 482.281 275.36 482.281 276.48C482.281 277.6 482.028 278.593 481.521 279.46C481.015 280.327 480.321 281 479.441 281.48C478.575 281.947 477.615 282.18 476.561 282.18ZM476.561 280.2C477.148 280.2 477.695 280.06 478.201 279.78C478.721 279.5 479.141 279.08 479.461 278.52C479.781 277.96 479.941 277.28 479.941 276.48C479.941 275.68 479.788 275.007 479.481 274.46C479.175 273.9 478.768 273.48 478.261 273.2C477.755 272.92 477.208 272.78 476.621 272.78C476.035 272.78 475.488 272.92 474.981 273.2C474.488 273.48 474.095 273.9 473.801 274.46C473.508 275.007 473.361 275.68 473.361 276.48C473.361 277.667 473.661 278.587 474.261 279.24C474.875 279.88 475.641 280.2 476.561 280.2ZM497.875 270.8C498.742 270.8 499.515 270.98 500.195 271.34C500.888 271.7 501.428 272.233 501.815 272.94C502.215 273.647 502.415 274.5 502.415 275.5V282H500.155V275.84C500.155 274.853 499.908 274.1 499.415 273.58C498.922 273.047 498.248 272.78 497.395 272.78C496.542 272.78 495.862 273.047 495.355 273.58C494.862 274.1 494.615 274.853 494.615 275.84V282H492.355V275.84C492.355 274.853 492.108 274.1 491.615 273.58C491.122 273.047 490.448 272.78 489.595 272.78C488.742 272.78 488.062 273.047 487.555 273.58C487.062 274.1 486.815 274.853 486.815 275.84V282H484.535V270.98H486.815V272.24C487.188 271.787 487.662 271.433 488.235 271.18C488.808 270.927 489.422 270.8 490.075 270.8C490.955 270.8 491.742 270.987 492.435 271.36C493.128 271.733 493.662 272.273 494.035 272.98C494.368 272.313 494.888 271.787 495.595 271.4C496.302 271 497.062 270.8 497.875 270.8ZM515.416 276.22C515.416 276.633 515.39 277.007 515.336 277.34H506.916C506.983 278.22 507.31 278.927 507.896 279.46C508.483 279.993 509.203 280.26 510.056 280.26C511.283 280.26 512.15 279.747 512.656 278.72H515.116C514.783 279.733 514.176 280.567 513.296 281.22C512.43 281.86 511.35 282.18 510.056 282.18C509.003 282.18 508.056 281.947 507.216 281.48C506.39 281 505.736 280.333 505.256 279.48C504.79 278.613 504.556 277.613 504.556 276.48C504.556 275.347 504.783 274.353 505.236 273.5C505.703 272.633 506.35 271.967 507.176 271.5C508.016 271.033 508.976 270.8 510.056 270.8C511.096 270.8 512.023 271.027 512.836 271.48C513.65 271.933 514.283 272.573 514.736 273.4C515.19 274.213 515.416 275.153 515.416 276.22ZM513.036 275.5C513.023 274.66 512.723 273.987 512.136 273.48C511.55 272.973 510.823 272.72 509.956 272.72C509.17 272.72 508.496 272.973 507.936 273.48C507.376 273.973 507.043 274.647 506.936 275.5H513.036Z" fill="#074269"/>
<path d="M342 284H516.156V285H342V284Z" fill="#074269"/>
<path d="M358.14 184.04L354.72 195H352.84L350.2 186.3L347.56 195H345.68L342.24 184.04H344.1L346.62 193.24L349.34 184.04H351.2L353.86 193.26L356.34 184.04H358.14ZM369.946 189.1C369.946 189.447 369.926 189.813 369.886 190.2H361.126C361.193 191.28 361.56 192.127 362.226 192.74C362.906 193.34 363.726 193.64 364.686 193.64C365.473 193.64 366.126 193.46 366.646 193.1C367.18 192.727 367.553 192.233 367.766 191.62H369.726C369.433 192.673 368.846 193.533 367.966 194.2C367.086 194.853 365.993 195.18 364.686 195.18C363.646 195.18 362.713 194.947 361.886 194.48C361.073 194.013 360.433 193.353 359.966 192.5C359.5 191.633 359.266 190.633 359.266 189.5C359.266 188.367 359.493 187.373 359.946 186.52C360.4 185.667 361.033 185.013 361.846 184.56C362.673 184.093 363.62 183.86 364.686 183.86C365.726 183.86 366.646 184.087 367.446 184.54C368.246 184.993 368.86 185.62 369.286 186.42C369.726 187.207 369.946 188.1 369.946 189.1ZM368.066 188.72C368.066 188.027 367.913 187.433 367.606 186.94C367.3 186.433 366.88 186.053 366.346 185.8C365.826 185.533 365.246 185.4 364.606 185.4C363.686 185.4 362.9 185.693 362.246 186.28C361.606 186.867 361.24 187.68 361.146 188.72H368.066ZM377.001 189.48C377.001 188.36 377.227 187.38 377.681 186.54C378.134 185.687 378.754 185.027 379.541 184.56C380.341 184.093 381.227 183.86 382.201 183.86C383.161 183.86 383.994 184.067 384.701 184.48C385.407 184.893 385.934 185.413 386.281 186.04V184.04H388.121V195H386.281V192.96C385.921 193.6 385.381 194.133 384.661 194.56C383.954 194.973 383.127 195.18 382.181 195.18C381.207 195.18 380.327 194.94 379.541 194.46C378.754 193.98 378.134 193.307 377.681 192.44C377.227 191.573 377.001 190.587 377.001 189.48ZM386.281 189.5C386.281 188.673 386.114 187.953 385.781 187.34C385.447 186.727 384.994 186.26 384.421 185.94C383.861 185.607 383.241 185.44 382.561 185.44C381.881 185.44 381.261 185.6 380.701 185.92C380.141 186.24 379.694 186.707 379.361 187.32C379.027 187.933 378.861 188.653 378.861 189.48C378.861 190.32 379.027 191.053 379.361 191.68C379.694 192.293 380.141 192.767 380.701 193.1C381.261 193.42 381.881 193.58 382.561 193.58C383.241 193.58 383.861 193.42 384.421 193.1C384.994 192.767 385.447 192.293 385.781 191.68C386.114 191.053 386.281 190.327 386.281 189.5ZM393.016 185.82C393.336 185.193 393.79 184.707 394.376 184.36C394.976 184.013 395.703 183.84 396.556 183.84V185.72H396.076C394.036 185.72 393.016 186.827 393.016 189.04V195H391.196V184.04H393.016V185.82ZM408.657 189.1C408.657 189.447 408.637 189.813 408.597 190.2H399.837C399.904 191.28 400.271 192.127 400.937 192.74C401.617 193.34 402.437 193.64 403.397 193.64C404.184 193.64 404.837 193.46 405.357 193.1C405.891 192.727 406.264 192.233 406.477 191.62H408.437C408.144 192.673 407.557 193.533 406.677 194.2C405.797 194.853 404.704 195.18 403.397 195.18C402.357 195.18 401.424 194.947 400.597 194.48C399.784 194.013 399.144 193.353 398.677 192.5C398.211 191.633 397.977 190.633 397.977 189.5C397.977 188.367 398.204 187.373 398.657 186.52C399.111 185.667 399.744 185.013 400.557 184.56C401.384 184.093 402.331 183.86 403.397 183.86C404.437 183.86 405.357 184.087 406.157 184.54C406.957 184.993 407.571 185.62 407.997 186.42C408.437 187.207 408.657 188.1 408.657 189.1ZM406.777 188.72C406.777 188.027 406.624 187.433 406.317 186.94C406.011 186.433 405.591 186.053 405.057 185.8C404.537 185.533 403.957 185.4 403.317 185.4C402.397 185.4 401.611 185.693 400.957 186.28C400.317 186.867 399.951 187.68 399.857 188.72H406.777ZM415.712 189.5C415.712 188.367 415.938 187.38 416.392 186.54C416.845 185.687 417.472 185.027 418.272 184.56C419.085 184.093 420.012 183.86 421.052 183.86C422.398 183.86 423.505 184.187 424.372 184.84C425.252 185.493 425.832 186.4 426.112 187.56H424.152C423.965 186.893 423.598 186.367 423.052 185.98C422.518 185.593 421.852 185.4 421.052 185.4C420.012 185.4 419.172 185.76 418.532 186.48C417.892 187.187 417.572 188.193 417.572 189.5C417.572 190.82 417.892 191.84 418.532 192.56C419.172 193.28 420.012 193.64 421.052 193.64C421.852 193.64 422.518 193.453 423.052 193.08C423.585 192.707 423.952 192.173 424.152 191.48H426.112C425.818 192.6 425.232 193.5 424.352 194.18C423.472 194.847 422.372 195.18 421.052 195.18C420.012 195.18 419.085 194.947 418.272 194.48C417.472 194.013 416.845 193.353 416.392 192.5C415.938 191.647 415.712 190.647 415.712 189.5ZM438.26 184.04V195H436.44V193.38C436.093 193.94 435.607 194.38 434.98 194.7C434.367 195.007 433.687 195.16 432.94 195.16C432.087 195.16 431.32 194.987 430.64 194.64C429.96 194.28 429.42 193.747 429.02 193.04C428.633 192.333 428.44 191.473 428.44 190.46V184.04H430.24V190.22C430.24 191.3 430.513 192.133 431.06 192.72C431.607 193.293 432.353 193.58 433.3 193.58C434.273 193.58 435.04 193.28 435.6 192.68C436.16 192.08 436.44 191.207 436.44 190.06V184.04H438.26ZM443.153 185.82C443.473 185.193 443.926 184.707 444.513 184.36C445.113 184.013 445.84 183.84 446.693 183.84V185.72H446.213C444.173 185.72 443.153 186.827 443.153 189.04V195H441.333V184.04H443.153V185.82ZM450.614 185.82C450.934 185.193 451.387 184.707 451.974 184.36C452.574 184.013 453.301 183.84 454.154 183.84V185.72H453.674C451.634 185.72 450.614 186.827 450.614 189.04V195H448.794V184.04H450.614V185.82ZM466.255 189.1C466.255 189.447 466.235 189.813 466.195 190.2H457.435C457.502 191.28 457.868 192.127 458.535 192.74C459.215 193.34 460.035 193.64 460.995 193.64C461.782 193.64 462.435 193.46 462.955 193.1C463.488 192.727 463.862 192.233 464.075 191.62H466.035C465.742 192.673 465.155 193.533 464.275 194.2C463.395 194.853 462.302 195.18 460.995 195.18C459.955 195.18 459.022 194.947 458.195 194.48C457.382 194.013 456.742 193.353 456.275 192.5C455.808 191.633 455.575 190.633 455.575 189.5C455.575 188.367 455.802 187.373 456.255 186.52C456.708 185.667 457.342 185.013 458.155 184.56C458.982 184.093 459.928 183.86 460.995 183.86C462.035 183.86 462.955 184.087 463.755 184.54C464.555 184.993 465.168 185.62 465.595 186.42C466.035 187.207 466.255 188.1 466.255 189.1ZM464.375 188.72C464.375 188.027 464.222 187.433 463.915 186.94C463.608 186.433 463.188 186.053 462.655 185.8C462.135 185.533 461.555 185.4 460.915 185.4C459.995 185.4 459.208 185.693 458.555 186.28C457.915 186.867 457.548 187.68 457.455 188.72H464.375ZM473.997 183.84C475.331 183.84 476.411 184.247 477.237 185.06C478.064 185.86 478.477 187.02 478.477 188.54V195H476.677V188.8C476.677 187.707 476.404 186.873 475.857 186.3C475.311 185.713 474.564 185.42 473.617 185.42C472.657 185.42 471.891 185.72 471.317 186.32C470.757 186.92 470.477 187.793 470.477 188.94V195H468.657V184.04H470.477V185.6C470.837 185.04 471.324 184.607 471.937 184.3C472.564 183.993 473.251 183.84 473.997 183.84ZM483.67 185.54V192C483.67 192.533 483.783 192.913 484.01 193.14C484.237 193.353 484.63 193.46 485.19 193.46H486.53V195H484.89C483.877 195 483.117 194.767 482.61 194.3C482.103 193.833 481.85 193.067 481.85 192V185.54H480.43V184.04H481.85V181.28H483.67V184.04H486.53V185.54H483.67ZM490.555 180.2V195H488.735V180.2H490.555ZM503.097 184.04L496.497 200.16H494.617L496.777 194.88L492.357 184.04H494.377L497.817 192.92L501.217 184.04H503.097ZM524.859 184.04L521.439 195H519.559L516.919 186.3L514.279 195H512.399L508.959 184.04H510.819L513.339 193.24L516.059 184.04H517.919L520.579 193.26L523.059 184.04H524.859ZM531.445 195.18C530.418 195.18 529.485 194.947 528.645 194.48C527.818 194.013 527.165 193.353 526.685 192.5C526.218 191.633 525.985 190.633 525.985 189.5C525.985 188.38 526.225 187.393 526.705 186.54C527.198 185.673 527.865 185.013 528.705 184.56C529.545 184.093 530.485 183.86 531.525 183.86C532.565 183.86 533.505 184.093 534.345 184.56C535.185 185.013 535.845 185.667 536.325 186.52C536.818 187.373 537.065 188.367 537.065 189.5C537.065 190.633 536.812 191.633 536.305 192.5C535.812 193.353 535.138 194.013 534.285 194.48C533.432 194.947 532.485 195.18 531.445 195.18ZM531.445 193.58C532.098 193.58 532.712 193.427 533.285 193.12C533.858 192.813 534.318 192.353 534.665 191.74C535.025 191.127 535.205 190.38 535.205 189.5C535.205 188.62 535.032 187.873 534.685 187.26C534.338 186.647 533.885 186.193 533.325 185.9C532.765 185.593 532.158 185.44 531.505 185.44C530.838 185.44 530.225 185.593 529.665 185.9C529.118 186.193 528.678 186.647 528.345 187.26C528.012 187.873 527.845 188.62 527.845 189.5C527.845 190.393 528.005 191.147 528.325 191.76C528.658 192.373 529.098 192.833 529.645 193.14C530.192 193.433 530.792 193.58 531.445 193.58ZM541.278 185.82C541.598 185.193 542.051 184.707 542.638 184.36C543.238 184.013 543.965 183.84 544.818 183.84V185.72H544.338C542.298 185.72 541.278 186.827 541.278 189.04V195H539.458V184.04H541.278V185.82ZM553.039 195L548.739 190.16V195H546.919V180.2H548.739V188.9L552.959 184.04H555.499L550.339 189.5L555.519 195H553.039ZM558.152 182.26C557.805 182.26 557.512 182.14 557.272 181.9C557.032 181.66 556.912 181.367 556.912 181.02C556.912 180.673 557.032 180.38 557.272 180.14C557.512 179.9 557.805 179.78 558.152 179.78C558.485 179.78 558.765 179.9 558.992 180.14C559.232 180.38 559.352 180.673 559.352 181.02C559.352 181.367 559.232 181.66 558.992 181.9C558.765 182.14 558.485 182.26 558.152 182.26ZM559.032 184.04V195H557.212V184.04H559.032ZM567.474 183.84C568.807 183.84 569.887 184.247 570.714 185.06C571.54 185.86 571.954 187.02 571.954 188.54V195H570.154V188.8C570.154 187.707 569.88 186.873 569.334 186.3C568.787 185.713 568.04 185.42 567.094 185.42C566.134 185.42 565.367 185.72 564.794 186.32C564.234 186.92 563.954 187.793 563.954 188.94V195H562.134V184.04H563.954V185.6C564.314 185.04 564.8 184.607 565.414 184.3C566.04 183.993 566.727 183.84 567.474 183.84ZM579.447 183.86C580.393 183.86 581.22 184.067 581.927 184.48C582.647 184.893 583.18 185.413 583.527 186.04V184.04H585.367V195.24C585.367 196.24 585.153 197.127 584.727 197.9C584.3 198.687 583.687 199.3 582.887 199.74C582.1 200.18 581.18 200.4 580.127 200.4C578.687 200.4 577.487 200.06 576.527 199.38C575.567 198.7 575 197.773 574.827 196.6H576.627C576.827 197.267 577.24 197.8 577.867 198.2C578.493 198.613 579.247 198.82 580.127 198.82C581.127 198.82 581.94 198.507 582.567 197.88C583.207 197.253 583.527 196.373 583.527 195.24V192.94C583.167 193.58 582.633 194.113 581.927 194.54C581.22 194.967 580.393 195.18 579.447 195.18C578.473 195.18 577.587 194.94 576.787 194.46C576 193.98 575.38 193.307 574.927 192.44C574.473 191.573 574.247 190.587 574.247 189.48C574.247 188.36 574.473 187.38 574.927 186.54C575.38 185.687 576 185.027 576.787 184.56C577.587 184.093 578.473 183.86 579.447 183.86ZM583.527 189.5C583.527 188.673 583.36 187.953 583.027 187.34C582.693 186.727 582.24 186.26 581.667 185.94C581.107 185.607 580.487 185.44 579.807 185.44C579.127 185.44 578.507 185.6 577.947 185.92C577.387 186.24 576.94 186.707 576.607 187.32C576.273 187.933 576.107 188.653 576.107 189.48C576.107 190.32 576.273 191.053 576.607 191.68C576.94 192.293 577.387 192.767 577.947 193.1C578.507 193.42 579.127 193.58 579.807 193.58C580.487 193.58 581.107 193.42 581.667 193.1C582.24 192.767 582.693 192.293 583.027 191.68C583.36 191.053 583.527 190.327 583.527 189.5ZM598.554 195.18C597.528 195.18 596.594 194.947 595.754 194.48C594.928 194.013 594.274 193.353 593.794 192.5C593.328 191.633 593.094 190.633 593.094 189.5C593.094 188.38 593.334 187.393 593.814 186.54C594.308 185.673 594.974 185.013 595.814 184.56C596.654 184.093 597.594 183.86 598.634 183.86C599.674 183.86 600.614 184.093 601.454 184.56C602.294 185.013 602.954 185.667 603.434 186.52C603.928 187.373 604.174 188.367 604.174 189.5C604.174 190.633 603.921 191.633 603.414 192.5C602.921 193.353 602.248 194.013 601.394 194.48C600.541 194.947 599.594 195.18 598.554 195.18ZM598.554 193.58C599.208 193.58 599.821 193.427 600.394 193.12C600.968 192.813 601.428 192.353 601.774 191.74C602.134 191.127 602.314 190.38 602.314 189.5C602.314 188.62 602.141 187.873 601.794 187.26C601.448 186.647 600.994 186.193 600.434 185.9C599.874 185.593 599.268 185.44 598.614 185.44C597.948 185.44 597.334 185.593 596.774 185.9C596.228 186.193 595.788 186.647 595.454 187.26C595.121 187.873 594.954 188.62 594.954 189.5C594.954 190.393 595.114 191.147 595.434 191.76C595.768 192.373 596.208 192.833 596.754 193.14C597.301 193.433 597.901 193.58 598.554 193.58ZM611.907 183.84C613.241 183.84 614.321 184.247 615.147 185.06C615.974 185.86 616.387 187.02 616.387 188.54V195H614.587V188.8C614.587 187.707 614.314 186.873 613.767 186.3C613.221 185.713 612.474 185.42 611.527 185.42C610.567 185.42 609.801 185.72 609.227 186.32C608.667 186.92 608.387 187.793 608.387 188.94V195H606.567V184.04H608.387V185.6C608.747 185.04 609.234 184.607 609.847 184.3C610.474 183.993 611.161 183.84 611.907 183.84ZM626.912 185.54V192C626.912 192.533 627.026 192.913 627.252 193.14C627.479 193.353 627.872 193.46 628.432 193.46H629.772V195H628.132C627.119 195 626.359 194.767 625.852 194.3C625.346 193.833 625.092 193.067 625.092 192V185.54H623.672V184.04H625.092V181.28H626.912V184.04H629.772V185.54H626.912ZM637.418 183.84C638.244 183.84 638.991 184.02 639.658 184.38C640.324 184.727 640.844 185.253 641.218 185.96C641.604 186.667 641.798 187.527 641.798 188.54V195H639.998V188.8C639.998 187.707 639.724 186.873 639.178 186.3C638.631 185.713 637.884 185.42 636.938 185.42C635.978 185.42 635.211 185.72 634.638 186.32C634.078 186.92 633.798 187.793 633.798 188.94V195H631.978V180.2H633.798V185.6C634.158 185.04 634.651 184.607 635.278 184.3C635.918 183.993 636.631 183.84 637.418 183.84ZM654.77 189.1C654.77 189.447 654.75 189.813 654.71 190.2H645.95C646.017 191.28 646.384 192.127 647.05 192.74C647.73 193.34 648.55 193.64 649.51 193.64C650.297 193.64 650.95 193.46 651.47 193.1C652.004 192.727 652.377 192.233 652.59 191.62H654.55C654.257 192.673 653.67 193.533 652.79 194.2C651.91 194.853 650.817 195.18 649.51 195.18C648.47 195.18 647.537 194.947 646.71 194.48C645.897 194.013 645.257 193.353 644.79 192.5C644.324 191.633 644.09 190.633 644.09 189.5C644.09 188.367 644.317 187.373 644.77 186.52C645.224 185.667 645.857 185.013 646.67 184.56C647.497 184.093 648.444 183.86 649.51 183.86C650.55 183.86 651.47 184.087 652.27 184.54C653.07 184.993 653.684 185.62 654.11 186.42C654.55 187.207 654.77 188.1 654.77 189.1ZM652.89 188.72C652.89 188.027 652.737 187.433 652.43 186.94C652.124 186.433 651.704 186.053 651.17 185.8C650.65 185.533 650.07 185.4 649.43 185.4C648.51 185.4 647.724 185.693 647.07 186.28C646.43 186.867 646.064 187.68 645.97 188.72H652.89ZM677.105 184.04L673.685 195H671.805L669.165 186.3L666.525 195H664.645L661.205 184.04H663.065L665.585 193.24L668.305 184.04H670.165L672.825 193.26L675.305 184.04H677.105ZM688.911 189.1C688.911 189.447 688.891 189.813 688.851 190.2H680.091C680.158 191.28 680.524 192.127 681.191 192.74C681.871 193.34 682.691 193.64 683.651 193.64C684.438 193.64 685.091 193.46 685.611 193.1C686.144 192.727 686.518 192.233 686.731 191.62H688.691C688.398 192.673 687.811 193.533 686.931 194.2C686.051 194.853 684.958 195.18 683.651 195.18C682.611 195.18 681.678 194.947 680.851 194.48C680.038 194.013 679.398 193.353 678.931 192.5C678.464 191.633 678.231 190.633 678.231 189.5C678.231 188.367 678.458 187.373 678.911 186.52C679.364 185.667 679.998 185.013 680.811 184.56C681.638 184.093 682.584 183.86 683.651 183.86C684.691 183.86 685.611 184.087 686.411 184.54C687.211 184.993 687.824 185.62 688.251 186.42C688.691 187.207 688.911 188.1 688.911 189.1ZM687.031 188.72C687.031 188.027 686.878 187.433 686.571 186.94C686.264 186.433 685.844 186.053 685.311 185.8C684.791 185.533 684.211 185.4 683.571 185.4C682.651 185.4 681.864 185.693 681.211 186.28C680.571 186.867 680.204 187.68 680.111 188.72H687.031ZM693.133 186.08C693.507 185.427 694.053 184.893 694.773 184.48C695.493 184.067 696.313 183.86 697.233 183.86C698.22 183.86 699.107 184.093 699.893 184.56C700.68 185.027 701.3 185.687 701.753 186.54C702.207 187.38 702.433 188.36 702.433 189.48C702.433 190.587 702.207 191.573 701.753 192.44C701.3 193.307 700.673 193.98 699.873 194.46C699.087 194.94 698.207 195.18 697.233 195.18C696.287 195.18 695.453 194.973 694.733 194.56C694.027 194.147 693.493 193.62 693.133 192.98V195H691.313V180.2H693.133V186.08ZM700.573 189.48C700.573 188.653 700.407 187.933 700.073 187.32C699.74 186.707 699.287 186.24 698.713 185.92C698.153 185.6 697.533 185.44 696.853 185.44C696.187 185.44 695.567 185.607 694.993 185.94C694.433 186.26 693.98 186.733 693.633 187.36C693.3 187.973 693.133 188.687 693.133 189.5C693.133 190.327 693.3 191.053 693.633 191.68C693.98 192.293 694.433 192.767 694.993 193.1C695.567 193.42 696.187 193.58 696.853 193.58C697.533 193.58 698.153 193.42 698.713 193.1C699.287 192.767 699.74 192.293 700.073 191.68C700.407 191.053 700.573 190.32 700.573 189.48ZM706.649 186.06C707.009 185.433 707.542 184.913 708.249 184.5C708.969 184.073 709.802 183.86 710.749 183.86C711.722 183.86 712.602 184.093 713.389 184.56C714.189 185.027 714.816 185.687 715.269 186.54C715.722 187.38 715.949 188.36 715.949 189.48C715.949 190.587 715.722 191.573 715.269 192.44C714.816 193.307 714.189 193.98 713.389 194.46C712.602 194.94 711.722 195.18 710.749 195.18C709.816 195.18 708.989 194.973 708.269 194.56C707.562 194.133 707.022 193.607 706.649 192.98V200.2H704.829V184.04H706.649V186.06ZM714.089 189.48C714.089 188.653 713.922 187.933 713.589 187.32C713.256 186.707 712.802 186.24 712.229 185.92C711.669 185.6 711.049 185.44 710.369 185.44C709.702 185.44 709.082 185.607 708.509 185.94C707.949 186.26 707.496 186.733 707.149 187.36C706.816 187.973 706.649 188.687 706.649 189.5C706.649 190.327 706.816 191.053 707.149 191.68C707.496 192.293 707.949 192.767 708.509 193.1C709.082 193.42 709.702 193.58 710.369 193.58C711.049 193.58 711.669 193.42 712.229 193.1C712.802 192.767 713.256 192.293 713.589 191.68C713.922 191.053 714.089 190.32 714.089 189.48ZM717.665 189.48C717.665 188.36 717.891 187.38 718.345 186.54C718.798 185.687 719.418 185.027 720.205 184.56C721.005 184.093 721.891 183.86 722.865 183.86C723.825 183.86 724.658 184.067 725.365 184.48C726.071 184.893 726.598 185.413 726.945 186.04V184.04H728.785V195H726.945V192.96C726.585 193.6 726.045 194.133 725.325 194.56C724.618 194.973 723.791 195.18 722.845 195.18C721.871 195.18 720.991 194.94 720.205 194.46C719.418 193.98 718.798 193.307 718.345 192.44C717.891 191.573 717.665 190.587 717.665 189.48ZM726.945 189.5C726.945 188.673 726.778 187.953 726.445 187.34C726.111 186.727 725.658 186.26 725.085 185.94C724.525 185.607 723.905 185.44 723.225 185.44C722.545 185.44 721.925 185.6 721.365 185.92C720.805 186.24 720.358 186.707 720.025 187.32C719.691 187.933 719.525 188.653 719.525 189.48C719.525 190.32 719.691 191.053 720.025 191.68C720.358 192.293 720.805 192.767 721.365 193.1C721.925 193.42 722.545 193.58 723.225 193.58C723.905 193.58 724.525 193.42 725.085 193.1C725.658 192.767 726.111 192.293 726.445 191.68C726.778 191.053 726.945 190.327 726.945 189.5ZM736.38 183.86C737.327 183.86 738.154 184.067 738.86 184.48C739.58 184.893 740.114 185.413 740.46 186.04V184.04H742.3V195.24C742.3 196.24 742.087 197.127 741.66 197.9C741.234 198.687 740.62 199.3 739.82 199.74C739.034 200.18 738.114 200.4 737.06 200.4C735.62 200.4 734.42 200.06 733.46 199.38C732.5 198.7 731.934 197.773 731.76 196.6H733.56C733.76 197.267 734.174 197.8 734.8 198.2C735.427 198.613 736.18 198.82 737.06 198.82C738.06 198.82 738.874 198.507 739.5 197.88C740.14 197.253 740.46 196.373 740.46 195.24V192.94C740.1 193.58 739.567 194.113 738.86 194.54C738.154 194.967 737.327 195.18 736.38 195.18C735.407 195.18 734.52 194.94 733.72 194.46C732.934 193.98 732.314 193.307 731.86 192.44C731.407 191.573 731.18 190.587 731.18 189.48C731.18 188.36 731.407 187.38 731.86 186.54C732.314 185.687 732.934 185.027 733.72 184.56C734.52 184.093 735.407 183.86 736.38 183.86ZM740.46 189.5C740.46 188.673 740.294 187.953 739.96 187.34C739.627 186.727 739.174 186.26 738.6 185.94C738.04 185.607 737.42 185.44 736.74 185.44C736.06 185.44 735.44 185.6 734.88 185.92C734.32 186.24 733.874 186.707 733.54 187.32C733.207 187.933 733.04 188.653 733.04 189.48C733.04 190.32 733.207 191.053 733.54 191.68C733.874 192.293 734.32 192.767 734.88 193.1C735.44 193.42 736.06 193.58 736.74 193.58C737.42 193.58 738.04 193.42 738.6 193.1C739.174 192.767 739.627 192.293 739.96 191.68C740.294 191.053 740.46 190.327 740.46 189.5ZM755.376 189.1C755.376 189.447 755.356 189.813 755.316 190.2H746.556C746.623 191.28 746.989 192.127 747.656 192.74C748.336 193.34 749.156 193.64 750.116 193.64C750.903 193.64 751.556 193.46 752.076 193.1C752.609 192.727 752.983 192.233 753.196 191.62H755.156C754.863 192.673 754.276 193.533 753.396 194.2C752.516 194.853 751.423 195.18 750.116 195.18C749.076 195.18 748.143 194.947 747.316 194.48C746.503 194.013 745.863 193.353 745.396 192.5C744.929 191.633 744.696 190.633 744.696 189.5C744.696 188.367 744.923 187.373 745.376 186.52C745.829 185.667 746.463 185.013 747.276 184.56C748.103 184.093 749.049 183.86 750.116 183.86C751.156 183.86 752.076 184.087 752.876 184.54C753.676 184.993 754.289 185.62 754.716 186.42C755.156 187.207 755.376 188.1 755.376 189.1ZM753.496 188.72C753.496 188.027 753.343 187.433 753.036 186.94C752.729 186.433 752.309 186.053 751.776 185.8C751.256 185.533 750.676 185.4 750.036 185.4C749.116 185.4 748.329 185.693 747.676 186.28C747.036 186.867 746.669 187.68 746.576 188.72H753.496ZM759.658 192.48L757.418 197.86H756.198L757.658 192.48H759.658ZM342.86 219.5C342.86 218.367 343.087 217.38 343.54 216.54C343.993 215.687 344.62 215.027 345.42 214.56C346.233 214.093 347.16 213.86 348.2 213.86C349.547 213.86 350.653 214.187 351.52 214.84C352.4 215.493 352.98 216.4 353.26 217.56H351.3C351.113 216.893 350.747 216.367 350.2 215.98C349.667 215.593 349 215.4 348.2 215.4C347.16 215.4 346.32 215.76 345.68 216.48C345.04 217.187 344.72 218.193 344.72 219.5C344.72 220.82 345.04 221.84 345.68 222.56C346.32 223.28 347.16 223.64 348.2 223.64C349 223.64 349.667 223.453 350.2 223.08C350.733 222.707 351.1 222.173 351.3 221.48H353.26C352.967 222.6 352.38 223.5 351.5 224.18C350.62 224.847 349.52 225.18 348.2 225.18C347.16 225.18 346.233 224.947 345.42 224.48C344.62 224.013 343.993 223.353 343.54 222.5C343.087 221.647 342.86 220.647 342.86 219.5ZM361.128 213.84C361.955 213.84 362.702 214.02 363.368 214.38C364.035 214.727 364.555 215.253 364.928 215.96C365.315 216.667 365.508 217.527 365.508 218.54V225H363.708V218.8C363.708 217.707 363.435 216.873 362.888 216.3C362.342 215.713 361.595 215.42 360.648 215.42C359.688 215.42 358.922 215.72 358.348 216.32C357.788 216.92 357.508 217.793 357.508 218.94V225H355.688V210.2H357.508V215.6C357.868 215.04 358.362 214.607 358.988 214.3C359.628 213.993 360.342 213.84 361.128 213.84ZM378.481 219.1C378.481 219.447 378.461 219.813 378.421 220.2H369.661C369.728 221.28 370.095 222.127 370.761 222.74C371.441 223.34 372.261 223.64 373.221 223.64C374.008 223.64 374.661 223.46 375.181 223.1C375.715 222.727 376.088 222.233 376.301 221.62H378.261C377.968 222.673 377.381 223.533 376.501 224.2C375.621 224.853 374.528 225.18 373.221 225.18C372.181 225.18 371.248 224.947 370.421 224.48C369.608 224.013 368.968 223.353 368.501 222.5C368.035 221.633 367.801 220.633 367.801 219.5C367.801 218.367 368.028 217.373 368.481 216.52C368.935 215.667 369.568 215.013 370.381 214.56C371.208 214.093 372.155 213.86 373.221 213.86C374.261 213.86 375.181 214.087 375.981 214.54C376.781 214.993 377.395 215.62 377.821 216.42C378.261 217.207 378.481 218.1 378.481 219.1ZM376.601 218.72C376.601 218.027 376.448 217.433 376.141 216.94C375.835 216.433 375.415 216.053 374.881 215.8C374.361 215.533 373.781 215.4 373.141 215.4C372.221 215.4 371.435 215.693 370.781 216.28C370.141 216.867 369.775 217.68 369.681 218.72H376.601ZM380.204 219.5C380.204 218.367 380.43 217.38 380.884 216.54C381.337 215.687 381.964 215.027 382.764 214.56C383.577 214.093 384.504 213.86 385.544 213.86C386.89 213.86 387.997 214.187 388.864 214.84C389.744 215.493 390.324 216.4 390.604 217.56H388.644C388.457 216.893 388.09 216.367 387.544 215.98C387.01 215.593 386.344 215.4 385.544 215.4C384.504 215.4 383.664 215.76 383.024 216.48C382.384 217.187 382.064 218.193 382.064 219.5C382.064 220.82 382.384 221.84 383.024 222.56C383.664 223.28 384.504 223.64 385.544 223.64C386.344 223.64 387.01 223.453 387.544 223.08C388.077 222.707 388.444 222.173 388.644 221.48H390.604C390.31 222.6 389.724 223.5 388.844 224.18C387.964 224.847 386.864 225.18 385.544 225.18C384.504 225.18 383.577 224.947 382.764 224.48C381.964 224.013 381.337 223.353 380.884 222.5C380.43 221.647 380.204 220.647 380.204 219.5ZM399.152 225L394.852 220.16V225H393.032V210.2H394.852V218.9L399.072 214.04H401.612L396.452 219.5L401.632 225H399.152ZM410.477 216.08C410.851 215.427 411.397 214.893 412.117 214.48C412.837 214.067 413.657 213.86 414.577 213.86C415.564 213.86 416.451 214.093 417.237 214.56C418.024 215.027 418.644 215.687 419.097 216.54C419.551 217.38 419.777 218.36 419.777 219.48C419.777 220.587 419.551 221.573 419.097 222.44C418.644 223.307 418.017 223.98 417.217 224.46C416.431 224.94 415.551 225.18 414.577 225.18C413.631 225.18 412.797 224.973 412.077 224.56C411.371 224.147 410.837 223.62 410.477 222.98V225H408.657V210.2H410.477V216.08ZM417.917 219.48C417.917 218.653 417.751 217.933 417.417 217.32C417.084 216.707 416.631 216.24 416.057 215.92C415.497 215.6 414.877 215.44 414.197 215.44C413.531 215.44 412.911 215.607 412.337 215.94C411.777 216.26 411.324 216.733 410.977 217.36C410.644 217.973 410.477 218.687 410.477 219.5C410.477 220.327 410.644 221.053 410.977 221.68C411.324 222.293 411.777 222.767 412.337 223.1C412.911 223.42 413.531 223.58 414.197 223.58C414.877 223.58 415.497 223.42 416.057 223.1C416.631 222.767 417.084 222.293 417.417 221.68C417.751 221.053 417.917 220.32 417.917 219.48ZM421.493 219.48C421.493 218.36 421.719 217.38 422.173 216.54C422.626 215.687 423.246 215.027 424.033 214.56C424.833 214.093 425.719 213.86 426.693 213.86C427.653 213.86 428.486 214.067 429.193 214.48C429.899 214.893 430.426 215.413 430.773 216.04V214.04H432.613V225H430.773V222.96C430.413 223.6 429.873 224.133 429.153 224.56C428.446 224.973 427.619 225.18 426.673 225.18C425.699 225.18 424.819 224.94 424.033 224.46C423.246 223.98 422.626 223.307 422.173 222.44C421.719 221.573 421.493 220.587 421.493 219.48ZM430.773 219.5C430.773 218.673 430.606 217.953 430.273 217.34C429.939 216.727 429.486 216.26 428.913 215.94C428.353 215.607 427.733 215.44 427.053 215.44C426.373 215.44 425.753 215.6 425.193 215.92C424.633 216.24 424.186 216.707 423.853 217.32C423.519 217.933 423.353 218.653 423.353 219.48C423.353 220.32 423.519 221.053 423.853 221.68C424.186 222.293 424.633 222.767 425.193 223.1C425.753 223.42 426.373 223.58 427.053 223.58C427.733 223.58 428.353 223.42 428.913 223.1C429.486 222.767 429.939 222.293 430.273 221.68C430.606 221.053 430.773 220.327 430.773 219.5ZM435.008 219.5C435.008 218.367 435.235 217.38 435.688 216.54C436.142 215.687 436.768 215.027 437.568 214.56C438.382 214.093 439.308 213.86 440.348 213.86C441.695 213.86 442.802 214.187 443.668 214.84C444.548 215.493 445.128 216.4 445.408 217.56H443.448C443.262 216.893 442.895 216.367 442.348 215.98C441.815 215.593 441.148 215.4 440.348 215.4C439.308 215.4 438.468 215.76 437.828 216.48C437.188 217.187 436.868 218.193 436.868 219.5C436.868 220.82 437.188 221.84 437.828 222.56C438.468 223.28 439.308 223.64 440.348 223.64C441.148 223.64 441.815 223.453 442.348 223.08C442.882 222.707 443.248 222.173 443.448 221.48H445.408C445.115 222.6 444.528 223.5 443.648 224.18C442.768 224.847 441.668 225.18 440.348 225.18C439.308 225.18 438.382 224.947 437.568 224.48C436.768 224.013 436.142 223.353 435.688 222.5C435.235 221.647 435.008 220.647 435.008 219.5ZM453.957 225L449.657 220.16V225H447.837V210.2H449.657V218.9L453.877 214.04H456.417L451.257 219.5L456.437 225H453.957ZM465.282 210.2V225H463.462V210.2H465.282ZM467.704 219.48C467.704 218.36 467.93 217.38 468.384 216.54C468.837 215.687 469.457 215.027 470.244 214.56C471.044 214.093 471.93 213.86 472.904 213.86C473.864 213.86 474.697 214.067 475.404 214.48C476.11 214.893 476.637 215.413 476.984 216.04V214.04H478.824V225H476.984V222.96C476.624 223.6 476.084 224.133 475.364 224.56C474.657 224.973 473.83 225.18 472.884 225.18C471.91 225.18 471.03 224.94 470.244 224.46C469.457 223.98 468.837 223.307 468.384 222.44C467.93 221.573 467.704 220.587 467.704 219.48ZM476.984 219.5C476.984 218.673 476.817 217.953 476.484 217.34C476.15 216.727 475.697 216.26 475.124 215.94C474.564 215.607 473.944 215.44 473.264 215.44C472.584 215.44 471.964 215.6 471.404 215.92C470.844 216.24 470.397 216.707 470.064 217.32C469.73 217.933 469.564 218.653 469.564 219.48C469.564 220.32 469.73 221.053 470.064 221.68C470.397 222.293 470.844 222.767 471.404 223.1C471.964 223.42 472.584 223.58 473.264 223.58C473.944 223.58 474.564 223.42 475.124 223.1C475.697 222.767 476.15 222.293 476.484 221.68C476.817 221.053 476.984 220.327 476.984 219.5ZM484.119 215.54V222C484.119 222.533 484.233 222.913 484.459 223.14C484.686 223.353 485.079 223.46 485.639 223.46H486.979V225H485.339C484.326 225 483.566 224.767 483.059 224.3C482.553 223.833 482.299 223.067 482.299 222V215.54H480.879V214.04H482.299V211.28H484.119V214.04H486.979V215.54H484.119ZM499.185 219.1C499.185 219.447 499.165 219.813 499.125 220.2H490.365C490.431 221.28 490.798 222.127 491.465 222.74C492.145 223.34 492.965 223.64 493.925 223.64C494.711 223.64 495.365 223.46 495.885 223.1C496.418 222.727 496.791 222.233 497.005 221.62H498.965C498.671 222.673 498.085 223.533 497.205 224.2C496.325 224.853 495.231 225.18 493.925 225.18C492.885 225.18 491.951 224.947 491.125 224.48C490.311 224.013 489.671 223.353 489.205 222.5C488.738 221.633 488.505 220.633 488.505 219.5C488.505 218.367 488.731 217.373 489.185 216.52C489.638 215.667 490.271 215.013 491.085 214.56C491.911 214.093 492.858 213.86 493.925 213.86C494.965 213.86 495.885 214.087 496.685 214.54C497.485 214.993 498.098 215.62 498.525 216.42C498.965 217.207 499.185 218.1 499.185 219.1ZM497.305 218.72C497.305 218.027 497.151 217.433 496.845 216.94C496.538 216.433 496.118 216.053 495.585 215.8C495.065 215.533 494.485 215.4 493.845 215.4C492.925 215.4 492.138 215.693 491.485 216.28C490.845 216.867 490.478 217.68 490.385 218.72H497.305ZM503.407 215.82C503.727 215.193 504.18 214.707 504.767 214.36C505.367 214.013 506.094 213.84 506.947 213.84V215.72H506.467C504.427 215.72 503.407 216.827 503.407 219.04V225H501.587V214.04H503.407V215.82Z" fill="#8F8C85"/>
<path d="M393.36 32.016L385.584 66H372.336L368.4 46.704L364.464 66H351.216L343.44 32.016H354.912L357.984 53.424L362.592 32.016H374.208L378.816 53.424L381.888 32.016H393.36ZM407.837 40.512V44.688H418.397V52.704H407.837V57.504H419.837V66H397.181V32.016H419.837V40.512H407.837ZM446.605 48.576C448.653 49.056 450.237 50.048 451.357 51.552C452.509 53.024 453.085 54.736 453.085 56.688C453.085 59.664 452.093 61.968 450.109 63.6C448.157 65.2 445.341 66 441.661 66H423.853V32.016H441.181C444.637 32.016 447.357 32.768 449.341 34.272C451.325 35.776 452.317 37.968 452.317 40.848C452.317 42.832 451.789 44.512 450.733 45.888C449.709 47.232 448.333 48.128 446.605 48.576ZM434.509 45.264H438.637C439.597 45.264 440.301 45.072 440.749 44.688C441.229 44.304 441.469 43.712 441.469 42.912C441.469 42.08 441.229 41.472 440.749 41.088C440.301 40.672 439.597 40.464 438.637 40.464H434.509V45.264ZM439.357 57.456C440.317 57.456 441.021 57.28 441.469 56.928C441.949 56.544 442.189 55.936 442.189 55.104C442.189 53.472 441.245 52.656 439.357 52.656H434.509V57.456H439.357ZM484.458 43.68C484.458 45.824 483.962 47.776 482.97 49.536C481.978 51.264 480.506 52.64 478.554 53.664C476.634 54.688 474.298 55.2 471.546 55.2H467.322V66H456.666V32.016H471.546C475.706 32.016 478.89 33.072 481.098 35.184C483.338 37.296 484.458 40.128 484.458 43.68ZM470.346 46.8C472.554 46.8 473.658 45.76 473.658 43.68C473.658 41.6 472.554 40.56 470.346 40.56H467.322V46.8H470.346ZM509.63 60.864H498.302L496.622 66H485.438L497.87 32.016H510.158L522.542 66H511.31L509.63 60.864ZM507.038 52.848L503.966 43.392L500.894 52.848H507.038ZM545.795 43.632C545.379 42.96 544.787 42.448 544.019 42.096C543.251 41.712 542.323 41.52 541.235 41.52C539.187 41.52 537.603 42.192 536.483 43.536C535.363 44.848 534.803 46.656 534.803 48.96C534.803 51.616 535.427 53.6 536.674 54.912C537.923 56.224 539.843 56.88 542.435 56.88C544.899 56.88 546.883 55.888 548.387 53.904H539.891V46.368H557.219V57.024C555.747 59.552 553.715 61.728 551.123 63.552C548.531 65.344 545.251 66.24 541.283 66.24C537.763 66.24 534.691 65.52 532.067 64.08C529.475 62.608 527.475 60.56 526.067 57.936C524.691 55.312 524.003 52.32 524.003 48.96C524.003 45.6 524.691 42.608 526.067 39.984C527.475 37.36 529.475 35.328 532.067 33.888C534.659 32.416 537.699 31.68 541.187 31.68C545.635 31.68 549.251 32.752 552.035 34.896C554.851 37.04 556.515 39.952 557.027 43.632H545.795ZM571.712 40.512V44.688H582.272V52.704H571.712V57.504H583.712V66H561.056V32.016H583.712V40.512H571.712ZM606.3 32.016V51.168C606.3 52.736 606.636 53.984 607.308 54.912C608.012 55.808 609.132 56.256 610.668 56.256C612.204 56.256 613.34 55.808 614.076 54.912C614.812 53.984 615.18 52.736 615.18 51.168V32.016H625.788V51.168C625.788 54.4 625.116 57.168 623.772 59.472C622.428 61.744 620.588 63.456 618.252 64.608C615.916 65.76 613.308 66.336 610.428 66.336C607.548 66.336 604.988 65.76 602.748 64.608C600.54 63.456 598.812 61.744 597.564 59.472C596.316 57.2 595.692 54.432 595.692 51.168V32.016H606.3ZM662.976 66H652.32L641.04 48.912V66H630.384V32.016H641.04L652.32 49.392V32.016H662.976V66ZM681.951 32.016C685.503 32.016 688.607 32.736 691.263 34.176C693.951 35.616 696.015 37.616 697.455 40.176C698.895 42.736 699.615 45.648 699.615 48.912C699.615 52.144 698.895 55.056 697.455 57.648C696.015 60.24 693.951 62.288 691.263 63.792C688.607 65.264 685.503 66 681.951 66H667.791V32.016H681.951ZM680.991 56.496C683.391 56.496 685.295 55.84 686.703 54.528C688.111 53.216 688.815 51.344 688.815 48.912C688.815 46.48 688.111 44.608 686.703 43.296C685.295 41.984 683.391 41.328 680.991 41.328H678.447V56.496H680.991ZM714.119 40.512V44.688H724.679V52.704H714.119V57.504H726.119V66H703.463V32.016H726.119V40.512H714.119ZM747.222 66L740.838 53.808H740.79V66H730.134V32.016H745.974C748.726 32.016 751.078 32.512 753.03 33.504C754.982 34.464 756.438 35.792 757.398 37.488C758.39 39.152 758.886 41.04 758.886 43.152C758.886 45.424 758.246 47.44 756.966 49.2C755.718 50.96 753.91 52.224 751.542 52.992L758.934 66H747.222ZM740.79 46.704H745.014C746.038 46.704 746.806 46.48 747.318 46.032C747.83 45.552 748.086 44.816 748.086 43.824C748.086 42.928 747.814 42.224 747.27 41.712C746.758 41.2 746.006 40.944 745.014 40.944H740.79V46.704ZM343.44 120.96C343.44 117.6 344.112 114.608 345.456 111.984C346.832 109.36 348.784 107.328 351.312 105.888C353.84 104.416 356.816 103.68 360.24 103.68C363.184 103.68 365.808 104.24 368.112 105.36C370.448 106.448 372.336 108 373.776 110.016C375.248 112.032 376.224 114.384 376.704 117.072H365.472C364.96 115.952 364.224 115.088 363.264 114.48C362.336 113.84 361.264 113.52 360.048 113.52C358.256 113.52 356.832 114.192 355.776 115.536C354.752 116.88 354.24 118.688 354.24 120.96C354.24 123.232 354.752 125.04 355.776 126.384C356.832 127.728 358.256 128.4 360.048 128.4C361.264 128.4 362.336 128.096 363.264 127.488C364.224 126.848 364.96 125.968 365.472 124.848H376.704C376.224 127.536 375.248 129.888 373.776 131.904C372.336 133.92 370.448 135.488 368.112 136.608C365.808 137.696 363.184 138.24 360.24 138.24C356.816 138.24 353.84 137.52 351.312 136.08C348.784 134.608 346.832 132.56 345.456 129.936C344.112 127.312 343.44 124.32 343.44 120.96ZM397.101 138.336C393.901 138.336 390.957 137.584 388.269 136.08C385.613 134.576 383.501 132.496 381.933 129.84C380.365 127.184 379.581 124.192 379.581 120.864C379.581 117.536 380.365 114.544 381.933 111.888C383.501 109.232 385.613 107.168 388.269 105.696C390.957 104.192 393.901 103.44 397.101 103.44C400.301 103.44 403.229 104.192 405.885 105.696C408.541 107.168 410.637 109.232 412.173 111.888C413.741 114.544 414.525 117.536 414.525 120.864C414.525 124.192 413.741 127.184 412.173 129.84C410.637 132.496 408.525 134.576 405.837 136.08C403.181 137.584 400.269 138.336 397.101 138.336ZM397.101 128.4C399.213 128.4 400.845 127.728 401.997 126.384C403.149 125.008 403.725 123.168 403.725 120.864C403.725 118.528 403.149 116.688 401.997 115.344C400.845 113.968 399.213 113.28 397.101 113.28C394.957 113.28 393.309 113.968 392.157 115.344C391.005 116.688 390.429 118.528 390.429 120.864C390.429 123.168 391.005 125.008 392.157 126.384C393.309 127.728 394.957 128.4 397.101 128.4ZM450.961 138H440.305L429.025 120.912V138H418.369V104.016H429.025L440.305 121.392V104.016H450.961V138ZM482.463 104.016V112.464H473.439V138H462.783V112.464H453.855V104.016H482.463ZM502.441 138L496.057 125.808H496.009V138H485.353V104.016H501.193C503.945 104.016 506.297 104.512 508.249 105.504C510.201 106.464 511.657 107.792 512.617 109.488C513.609 111.152 514.105 113.04 514.105 115.152C514.105 117.424 513.465 119.44 512.185 121.2C510.937 122.96 509.129 124.224 506.761 124.992L514.153 138H502.441ZM496.009 118.704H500.233C501.257 118.704 502.025 118.48 502.537 118.032C503.049 117.552 503.305 116.816 503.305 115.824C503.305 114.928 503.033 114.224 502.489 113.712C501.977 113.2 501.225 112.944 500.233 112.944H496.009V118.704ZM527.925 104.016V123.168C527.925 124.736 528.261 125.984 528.933 126.912C529.637 127.808 530.757 128.256 532.293 128.256C533.829 128.256 534.965 127.808 535.701 126.912C536.437 125.984 536.805 124.736 536.805 123.168V104.016H547.413V123.168C547.413 126.4 546.741 129.168 545.397 131.472C544.053 133.744 542.213 135.456 539.877 136.608C537.541 137.76 534.933 138.336 532.053 138.336C529.173 138.336 526.613 137.76 524.373 136.608C522.165 135.456 520.437 133.744 519.189 131.472C517.941 129.2 517.317 126.432 517.317 123.168V104.016H527.925ZM551.049 120.96C551.049 117.6 551.721 114.608 553.065 111.984C554.441 109.36 556.393 107.328 558.921 105.888C561.449 104.416 564.425 103.68 567.849 103.68C570.793 103.68 573.417 104.24 575.721 105.36C578.057 106.448 579.945 108 581.385 110.016C582.857 112.032 583.833 114.384 584.313 117.072H573.081C572.569 115.952 571.833 115.088 570.873 114.48C569.945 113.84 568.873 113.52 567.657 113.52C565.865 113.52 564.441 114.192 563.385 115.536C562.361 116.88 561.849 118.688 561.849 120.96C561.849 123.232 562.361 125.04 563.385 126.384C564.441 127.728 565.865 128.4 567.657 128.4C568.873 128.4 569.945 128.096 570.873 127.488C571.833 126.848 572.569 125.968 573.081 124.848H584.313C583.833 127.536 582.857 129.888 581.385 131.904C579.945 133.92 578.057 135.488 575.721 136.608C573.417 137.696 570.793 138.24 567.849 138.24C564.425 138.24 561.449 137.52 558.921 136.08C556.393 134.608 554.441 132.56 553.065 129.936C551.721 127.312 551.049 124.32 551.049 120.96ZM614.838 104.016V112.464H605.814V138H595.158V112.464H586.23V104.016H614.838ZM628.384 104.016V138H617.728V104.016H628.384ZM649.757 138.336C646.557 138.336 643.613 137.584 640.925 136.08C638.269 134.576 636.157 132.496 634.589 129.84C633.021 127.184 632.237 124.192 632.237 120.864C632.237 117.536 633.021 114.544 634.589 111.888C636.157 109.232 638.269 107.168 640.925 105.696C643.613 104.192 646.557 103.44 649.757 103.44C652.957 103.44 655.885 104.192 658.541 105.696C661.197 107.168 663.293 109.232 664.829 111.888C666.397 114.544 667.181 117.536 667.181 120.864C667.181 124.192 666.397 127.184 664.829 129.84C663.293 132.496 661.181 134.576 658.493 136.08C655.837 137.584 652.925 138.336 649.757 138.336ZM649.757 128.4C651.869 128.4 653.501 127.728 654.653 126.384C655.805 125.008 656.381 123.168 656.381 120.864C656.381 118.528 655.805 116.688 654.653 115.344C653.501 113.968 651.869 113.28 649.757 113.28C647.613 113.28 645.965 113.968 644.813 115.344C643.661 116.688 643.085 118.528 643.085 120.864C643.085 123.168 643.661 125.008 644.813 126.384C645.965 127.728 647.613 128.4 649.757 128.4ZM703.617 138H692.961L681.681 120.912V138H671.025V104.016H681.681L692.961 121.392V104.016H703.617V138Z" fill="#FFBC00"/>
<defs>
<linearGradient id="paint0_linear_1212_1945" x1="211.793" y1="498.275" x2="211.793" y2="605.637" gradientUnits="userSpaceOnUse">
<stop/>
<stop offset="0.04" stop-color="#131313"/>
<stop offset="0.14" stop-color="#4A4A4A"/>
<stop offset="0.26" stop-color="#7A7A7A"/>
<stop offset="0.37" stop-color="#A3A3A3"/>
<stop offset="0.49" stop-color="#C4C4C4"/>
<stop offset="0.61" stop-color="#DEDEDE"/>
<stop offset="0.73" stop-color="#F1F1F1"/>
<stop offset="0.86" stop-color="#FBFBFB"/>
<stop offset="1" stop-color="white"/>
</linearGradient>
<linearGradient id="paint1_linear_1212_1945" x1="173.059" y1="49.55" x2="165.809" y2="37.2952" gradientUnits="userSpaceOnUse">
<stop stop-color="#8F5FE3"/>
<stop offset="1" stop-color="#4B2987"/>
</linearGradient>
<linearGradient id="paint2_linear_1212_1945" x1="268.723" y1="46.7217" x2="261.472" y2="34.4855" gradientUnits="userSpaceOnUse">
<stop stop-color="#8F5FE3"/>
<stop offset="1" stop-color="#4B2987"/>
</linearGradient>
<linearGradient id="paint3_linear_1212_1945" x1="173.059" y1="110.73" x2="165.809" y2="98.4749" gradientUnits="userSpaceOnUse">
<stop stop-color="#8F5FE3"/>
<stop offset="1" stop-color="#4B2987"/>
</linearGradient>
<linearGradient id="paint4_linear_1212_1945" x1="268.723" y1="107.92" x2="261.473" y2="95.6652" gradientUnits="userSpaceOnUse">
<stop stop-color="#8F5FE3"/>
<stop offset="1" stop-color="#4B2987"/>
</linearGradient>
<linearGradient id="paint5_linear_1212_1945" x1="173.059" y1="171.909" x2="165.809" y2="159.673" gradientUnits="userSpaceOnUse">
<stop stop-color="#8F5FE3"/>
<stop offset="1" stop-color="#4B2987"/>
</linearGradient>
<linearGradient id="paint6_linear_1212_1945" x1="268.723" y1="169.1" x2="261.473" y2="156.845" gradientUnits="userSpaceOnUse">
<stop stop-color="#8F5FE3"/>
<stop offset="1" stop-color="#4B2987"/>
</linearGradient>
<linearGradient id="paint7_linear_1212_1945" x1="173.059" y1="233.089" x2="165.809" y2="220.853" gradientUnits="userSpaceOnUse">
<stop stop-color="#8F5FE3"/>
<stop offset="1" stop-color="#4B2987"/>
</linearGradient>
<linearGradient id="paint8_linear_1212_1945" x1="268.723" y1="230.279" x2="261.473" y2="218.025" gradientUnits="userSpaceOnUse">
<stop stop-color="#8F5FE3"/>
<stop offset="1" stop-color="#4B2987"/>
</linearGradient>
<linearGradient id="paint9_linear_1212_1945" x1="173.059" y1="294.287" x2="165.809" y2="282.032" gradientUnits="userSpaceOnUse">
<stop stop-color="#8F5FE3"/>
<stop offset="1" stop-color="#4B2987"/>
</linearGradient>
<linearGradient id="paint10_linear_1212_1945" x1="268.723" y1="291.459" x2="261.473" y2="279.223" gradientUnits="userSpaceOnUse">
<stop stop-color="#8F5FE3"/>
<stop offset="1" stop-color="#4B2987"/>
</linearGradient>
<linearGradient id="paint11_linear_1212_1945" x1="173.059" y1="355.467" x2="165.809" y2="343.212" gradientUnits="userSpaceOnUse">
<stop stop-color="#8F5FE3"/>
<stop offset="1" stop-color="#4B2987"/>
</linearGradient>
<linearGradient id="paint12_linear_1212_1945" x1="268.723" y1="352.657" x2="261.473" y2="340.403" gradientUnits="userSpaceOnUse">
<stop stop-color="#8F5FE3"/>
<stop offset="1" stop-color="#4B2987"/>
</linearGradient>
<linearGradient id="paint13_linear_1212_1945" x1="173.059" y1="416.647" x2="165.809" y2="404.41" gradientUnits="userSpaceOnUse">
<stop stop-color="#8F5FE3"/>
<stop offset="1" stop-color="#4B2987"/>
</linearGradient>
<linearGradient id="paint14_linear_1212_1945" x1="268.723" y1="413.837" x2="261.473" y2="401.582" gradientUnits="userSpaceOnUse">
<stop stop-color="#8F5FE3"/>
<stop offset="1" stop-color="#4B2987"/>
</linearGradient>
<linearGradient id="paint15_linear_1212_1945" x1="173.059" y1="477.826" x2="165.809" y2="465.59" gradientUnits="userSpaceOnUse">
<stop stop-color="#8F5FE3"/>
<stop offset="1" stop-color="#4B2987"/>
</linearGradient>
<linearGradient id="paint16_linear_1212_1945" x1="268.723" y1="475.017" x2="261.472" y2="462.762" gradientUnits="userSpaceOnUse">
<stop stop-color="#8F5FE3"/>
<stop offset="1" stop-color="#4B2987"/>
</linearGradient>
<linearGradient id="paint17_linear_1212_1945" x1="587.811" y1="508.118" x2="587.811" y2="541.554" gradientUnits="userSpaceOnUse">
<stop/>
<stop offset="1" stop-color="white"/>
</linearGradient>
<linearGradient id="paint18_linear_1212_1945" x1="587.81" y1="436.928" x2="587.81" y2="452.688" gradientUnits="userSpaceOnUse">
<stop stop-color="#BD8A2F"/>
<stop offset="1" stop-color="#91661A"/>
</linearGradient>
<linearGradient id="paint19_linear_1212_1945" x1="575.08" y1="480.84" x2="538.768" y2="480.84" gradientUnits="userSpaceOnUse">
<stop/>
<stop offset="0.05" stop-color="#131313"/>
<stop offset="0.26" stop-color="#595959"/>
<stop offset="0.45" stop-color="#949494"/>
<stop offset="0.63" stop-color="#C2C2C2"/>
<stop offset="0.78" stop-color="#E4E4E4"/>
<stop offset="0.91" stop-color="#F8F8F8"/>
<stop offset="1" stop-color="white"/>
</linearGradient>
<linearGradient id="paint20_linear_1212_1945" x1="584.343" y1="452.651" x2="615.816" y2="506.735" gradientUnits="userSpaceOnUse">
<stop/>
<stop offset="1" stop-color="white"/>
</linearGradient>
<clipPath id="clip0_1212_1945">
<rect width="645" height="608" fill="white"/>
</clipPath>
</defs>
</svg>
