<svg width="746" height="405" viewBox="0 0 746 405" fill="none" xmlns="http://www.w3.org/2000/svg">
<g clip-path="url(#clip0_715_1016)">
<path d="M743.495 337.048C743.259 338.021 743.053 338.966 742.788 339.998C737.836 357.866 729.808 374.731 719.065 389.834L658.563 389.657H655.38L328.972 388.742H325.17L261.928 388.565H257.832L56.9652 388.005C56.9652 388.005 4.80354 326.573 74.6471 269.095C107.388 242.186 151.269 246.346 184.894 242.864C186.338 242.687 187.841 242.54 189.196 242.333C224.56 237.701 246.604 221.915 226.417 144.462C223.698 134.061 222.604 123.302 223.175 112.566C223.175 111.09 223.352 109.615 223.499 108.14C230.189 36.2631 308.962 -25.7881 399.611 10.947C401.262 11.5961 402.912 12.3042 404.562 13.0419C427.19 23.444 447.849 37.6893 465.624 55.147C482.746 71.4934 497.657 86.2759 510.889 99.7011L515.339 104.245C579.053 169.394 601.185 200.936 635.075 219.466L637.816 220.912C648.689 226.364 660.122 230.619 671.913 233.6C685.156 236.957 697.773 242.426 709.28 249.798L711.844 251.569C739.34 270.954 751.747 300.962 743.495 337.048Z" fill="#E4EBF7"/>
<path d="M651.019 55.1479C597.973 14.8426 529.338 24.314 543.159 55.1479C556.98 85.9817 616.834 165.382 659.064 151.485C701.294 137.588 686.117 81.8508 651.019 55.1479Z" fill="#E4EBF7"/>
<path d="M711.844 251.57C666.873 287.714 626.382 305.92 590.782 305.92C582.073 305.94 573.4 304.789 564.996 302.497C511.774 287.744 471.518 226.46 445.378 120.061C433.796 72.8514 417.323 37.4441 399.611 10.8887C401.262 11.5378 402.912 12.246 404.562 12.9836C421.448 39.2735 436.979 73.8841 448.237 119.205C474.111 224.512 513.66 285.177 565.762 299.517C606.048 310.582 654.172 293.822 709.281 249.652L711.844 251.57Z" fill="white"/>
<path d="M637.816 220.912C624.26 234.091 611.146 240.701 598.474 240.74C595.604 240.733 592.745 240.387 589.957 239.707C551.97 230.501 526.39 161.398 510.889 99.7012L515.339 104.245C530.84 163.818 555.477 228.318 590.664 236.845C604.633 240.209 619.515 234.396 635.075 219.466L637.816 220.912Z" fill="white"/>
<path d="M328.972 388.743H325.17C349.719 358.5 361.978 326.073 361.183 292.554C359.709 230.591 314.031 177.687 269.443 152.783C251.427 142.687 235.678 128.988 223.175 112.537C223.175 111.062 223.352 109.587 223.499 108.111C236.074 125.407 252.24 139.772 270.887 150.216C316.212 175.533 362.627 229.322 364.13 292.495C364.748 318.667 357.646 352.51 328.972 388.743Z" fill="white"/>
<path d="M261.929 388.565H257.832C272.774 370.862 282.469 351.299 281.85 332.091C281.025 306.597 262.665 285.176 227.302 268.446C212.374 261.299 198.172 252.722 184.895 242.835C186.339 242.658 187.842 242.51 189.197 242.304C201.584 251.292 214.762 259.134 228.569 265.731C265.023 282.993 283.943 305.27 284.797 331.943C285.446 351.889 276.045 371.334 261.929 388.565Z" fill="white"/>
<path d="M743.495 337.049C743.259 338.023 743.053 338.967 742.788 340C720.921 338.171 702.414 342.449 687.473 352.835C674.627 362.228 664.623 374.992 658.563 389.718H655.38C661.635 374.02 672.174 360.4 685.793 350.416C701.383 339.498 720.744 335.043 743.495 337.049Z" fill="white"/>
<path d="M148.97 201.468C148.97 201.468 143.076 207.871 140.129 235.872C137.182 263.873 113.311 277.829 94.3031 279.305H93.92V278.951L93.2421 276.295L88.3796 258.414C88.3796 258.414 82.1909 209.493 146.818 201.674L148.97 201.468Z" fill="#ABDAF7"/>
<path d="M99.0482 389.805C99.0482 389.805 100.198 245.874 75.8849 199.078C51.5723 152.281 0 144.285 0 144.285C0 144.285 55.1086 158.684 75.8849 214.274C96.6611 269.863 90.2662 389.805 90.2662 389.805H99.0482Z" fill="#ABDAF7"/>
<path d="M91.062 362.63C11.7881 362.158 10.7861 274.112 10.7861 269.243V269.066C29.1753 296.566 94.3037 294.206 91.062 362.63Z" fill="#ABDAF7"/>
<path d="M91.062 362.629C11.7881 362.157 10.7861 274.111 10.7861 269.242C10.7861 273.078 13.9983 331.47 49.539 341.473C86.2584 351.8 91.062 362.629 91.062 362.629Z" fill="#33CCCC"/>
<path d="M166.534 323.445C157.369 348.614 170.925 374.196 147.791 389.804H107.447C107.447 389.804 105.03 333.418 166.534 323.445Z" fill="#ABDAF7"/>
<path d="M166.534 323.445C157.369 348.614 170.925 374.196 147.791 389.804H132.614C152.271 372.838 154.687 342.27 166.534 323.445Z" fill="#33CCCC"/>
<path d="M148.97 201.468C148.97 201.468 143.076 207.871 140.129 235.872C137.182 263.873 113.311 277.829 94.3034 279.305L93.8024 278.98L91.1206 277.062L93.1246 276.325C132.437 261.572 132.791 224.571 146.878 201.674L148.97 201.468Z" fill="#33CCCC"/>
<path d="M88.1738 239.618H87.9085C83.9301 240.533 37.4856 250.122 27.8195 204.034C18.3597 158.89 2.15124 145.907 0.176758 144.579C88.7926 158.506 88.1738 239.618 88.1738 239.618Z" fill="#ABDAF7"/>
<path d="M88.1738 239.618H87.9085C83.9301 240.533 37.4856 250.122 27.8195 204.034C18.3597 158.89 2.15124 145.907 0.176758 144.579C44.2047 167.682 22.8685 232.478 88.1738 239.618Z" fill="#33CCCC"/>
<path d="M744.026 389.805H37.9277V405H744.026V389.805Z" fill="#33CCCC"/>
<path d="M598.945 340.766C598.945 340.766 607.462 330.35 603.189 319.698C600.537 313.03 595.998 313.296 586.155 301.316C576.313 289.337 567.796 259.447 598.945 264.256C630.095 269.066 638.877 264.788 633.278 256.526C627.679 248.264 608.759 235.872 616.097 219.732C623.435 203.592 651.667 209.08 679.074 211.47C706.481 213.86 697.463 201.881 714.231 209.877C731 217.873 731 263.725 692.394 260.775C653.789 257.824 646.598 259.919 648.19 274.082C649.781 288.245 656.441 312.44 631.421 303.293C606.401 294.146 613.268 306.037 617.836 315.892C623.73 328.491 609.319 340.766 609.319 340.766H598.945Z" fill="white"/>
<path d="M595.998 229.587C587.865 227.965 579.23 214.834 572.422 226.401C566.853 235.843 583.886 250.006 596.912 244.104C607.079 239.826 606.666 231.741 595.998 229.587Z" fill="white"/>
<path d="M633.278 383.933V377.678C637.341 377.667 641.292 376.339 644.538 373.892C647.784 371.445 650.151 368.012 651.284 364.105L652.375 360.358C652.696 359.247 652.754 358.077 652.544 356.94C652.335 355.803 651.863 354.73 651.167 353.808C650.482 352.89 649.592 352.145 648.569 351.633C647.546 351.12 646.417 350.855 645.273 350.857H640.292V344.454H645.273C647.42 344.453 649.537 344.951 651.459 345.909C653.381 346.868 655.054 348.261 656.345 349.978C657.637 351.695 658.513 353.689 658.903 355.802C659.293 357.916 659.187 360.092 658.593 362.158L657.532 365.875C655.975 371.102 652.772 375.684 648.401 378.938C644.03 382.192 638.725 383.944 633.278 383.933Z" fill="#33CCCC"/>
<path d="M644.064 341.06L643.15 347.493L638.317 380.775C637.951 383.281 636.7 385.572 634.792 387.234C632.883 388.896 630.443 389.818 627.914 389.834H604.132C601.593 389.836 599.14 388.916 597.227 387.245C595.314 385.573 594.071 383.265 593.729 380.746L589.043 347.493L588.159 341.031C588.045 340.233 588.104 339.42 588.332 338.647C588.559 337.874 588.951 337.16 589.479 336.552C590.008 335.944 590.661 335.458 591.395 335.126C592.128 334.794 592.924 334.624 593.729 334.628H638.553C639.356 334.632 640.148 334.809 640.877 335.146C641.605 335.484 642.253 335.974 642.775 336.584C643.298 337.194 643.684 337.91 643.906 338.682C644.128 339.454 644.182 340.265 644.064 341.06Z" fill="#ABDAF7"/>
<path d="M644.064 341.06L643.15 347.493H589.014L588.13 341.031C588.016 340.233 588.074 339.42 588.302 338.647C588.53 337.874 588.922 337.16 589.45 336.552C589.979 335.944 590.632 335.458 591.365 335.126C592.099 334.794 592.895 334.624 593.7 334.628H638.523C639.329 334.628 640.125 334.801 640.857 335.137C641.589 335.473 642.24 335.962 642.766 336.573C643.292 337.183 643.68 337.9 643.904 338.675C644.128 339.449 644.182 340.263 644.064 341.06Z" fill="#33CCCC"/>
<path d="M543.159 389.805C543.159 389.805 550.703 384.11 547.963 358.234C545.222 332.357 543.159 313.975 543.159 313.975L486.636 320.171L493.031 371.954L543.159 389.805Z" fill="#F29C8B"/>
<path d="M493.709 333.419L501.223 389.775H315.917C315.917 389.775 297.646 252.779 336.664 221.296C353.845 207.399 375.741 201.114 394.896 198.429C409.641 196.365 424.577 196.048 439.396 197.485C439.396 197.485 444.022 197.485 451.184 198.075C467.127 199.491 495.565 203.976 512.393 219.614C536.764 242.009 547.933 332.003 547.933 332.003C547.933 332.003 526.538 336.635 493.709 333.419Z" fill="url(#paint0_linear_715_1016)"/>
<path d="M493.709 333.419L485.251 332.209L458.875 263.431C458.875 263.431 459.789 341.327 435.3 364.489C410.81 387.651 348.982 376.468 348.982 376.468L340.348 263.431L321.811 321.292L334.071 389.776H501.283L493.709 333.419Z" fill="#3150BC"/>
<path d="M451.184 197.927C449.534 213.477 444.966 236.285 432.147 245.432C411.753 260.185 393.187 254.048 385.201 238.852C377.215 223.656 386.822 201.674 389.386 199.875L394.897 198.281C409.641 196.218 424.577 195.901 439.396 197.337C439.396 197.337 444.082 197.308 451.184 197.927Z" fill="#78AAF9"/>
<path d="M315.917 389.804H289.011C284.966 389.803 280.972 388.901 277.317 387.164C273.663 385.427 270.44 382.898 267.882 379.761C265.324 376.623 263.494 372.955 262.526 369.023C261.557 365.09 261.474 360.992 262.282 357.023L273.569 301.434L315.917 389.804Z" fill="#F29C8B"/>
<path d="M312.528 293.144C312.528 293.144 316.742 284.056 312.528 280.25C309.925 277.962 306.59 276.685 303.127 276.65C303.127 276.65 300.533 267.65 284.354 269.244C268.175 270.837 266.672 286.033 275.69 293.232L312.528 293.144Z" fill="#FEB19E"/>
<path d="M302.125 283.259L284.09 235.193C283.729 234.228 283.021 233.433 282.105 232.964C281.189 232.494 280.131 232.384 279.139 232.656C278.571 232.809 278.042 233.081 277.587 233.454C277.133 233.827 276.762 234.293 276.5 234.82C276.238 235.347 276.091 235.924 276.069 236.512C276.046 237.1 276.148 237.687 276.369 238.232L295.553 284.645L302.125 283.259Z" fill="#525559"/>
<path d="M421.743 131.302C421.743 131.302 423.334 103.921 416.35 95.305C409.365 86.6892 401.91 89.9054 401.91 89.9054C401.91 89.9054 401.91 76.7162 384.994 72.9099C376.167 70.8031 366.963 70.8674 358.166 73.0974C349.37 75.3275 341.244 79.6568 334.483 85.7155C320.101 98.9047 298.942 92.0593 298.942 101.383C298.942 110.707 312.115 114.159 312.115 114.159C312.115 114.159 293.932 112.92 293.755 120.916C293.578 128.912 306.722 142.898 324.492 142.485C324.492 142.485 328.5 168.687 353.962 167.89L392.715 154.494L418.472 140.892L421.743 131.302Z" fill="url(#paint1_linear_715_1016)"/>
<path d="M439.454 197.336C439.454 197.336 433.737 248.47 406.419 245.047C391.301 243.188 390.328 229.822 391.684 221.147C392.149 217.83 393.01 214.581 394.248 211.469L380.662 192.526L418.973 151.483C424.955 170.869 431.527 187.451 439.454 197.336Z" fill="#FEB19E"/>
<path d="M391.625 221.297C392.09 217.98 392.95 214.73 394.189 211.619L380.603 192.676L418.914 151.633C433.914 205.009 405.535 217.992 391.625 221.297Z" fill="#FF856A"/>
<path d="M336.664 145.081C336.664 145.081 364.277 206.217 393.128 204.093C417.353 202.234 424.926 162.371 418.944 151.572C418.944 151.572 429.73 152.575 427.343 139.976C424.956 127.377 413.168 114.778 410.958 139.976C410.958 139.976 396.842 144.638 392.333 114.247C392.333 114.247 378.482 136.908 368.108 139.593C357.735 142.278 360.653 131.862 360.653 131.862C360.653 131.862 354.258 141.894 336.664 145.081Z" fill="#FEB19E"/>
<path d="M410.869 389.804H308.373C306.715 389.807 305.095 389.311 303.723 388.38C302.351 387.448 301.291 386.124 300.681 384.581L297.351 376.113L269.237 304.472C268.74 303.209 268.56 301.843 268.714 300.494C268.867 299.145 269.35 297.854 270.118 296.736C270.886 295.617 271.917 294.704 273.12 294.077C274.323 293.451 275.661 293.13 277.017 293.142H378.335C379.98 293.143 381.587 293.635 382.951 294.555C384.316 295.474 385.376 296.78 385.997 298.306L418.473 378.385C418.99 379.638 419.192 381 419.059 382.35C418.927 383.7 418.464 384.996 417.713 386.125C416.962 387.253 415.944 388.179 414.751 388.821C413.557 389.463 412.224 389.8 410.869 389.804Z" fill="#1B3151"/>
<path d="M403.738 389.804H308.373C306.715 389.807 305.095 389.311 303.723 388.38C302.351 387.448 301.291 386.124 300.681 384.581L297.351 376.113L269.237 304.472C268.74 303.209 268.56 301.843 268.714 300.494C268.867 299.145 269.35 297.854 270.118 296.736C270.886 295.617 271.917 294.704 273.12 294.077C274.323 293.451 275.661 293.13 277.017 293.142H371.026C371.847 293.135 372.664 293.264 373.443 293.526C374.619 293.878 375.701 294.49 376.609 295.318C377.517 296.145 378.227 297.166 378.688 298.306L411.311 378.385C411.821 379.636 412.017 380.993 411.882 382.338C411.748 383.683 411.287 384.974 410.541 386.1C409.794 387.226 408.784 388.152 407.598 388.797C406.413 389.443 405.087 389.788 403.738 389.804Z" fill="#23406D"/>
<path d="M346.124 336.96C347.892 343.127 346.124 349.058 342.027 350.208C337.931 351.359 333.187 347.258 331.536 341.121C329.886 334.983 331.536 329.023 335.662 327.872C339.788 326.722 344.385 330.793 346.124 336.96Z" fill="#4E79B7"/>
<path opacity="0.49" d="M410.868 389.804H308.372C306.715 389.807 305.094 389.311 303.722 388.38C302.35 387.448 301.29 386.124 300.681 384.581L297.351 376.113C347.95 370.831 367.106 318.871 373.442 293.496V293.112H378.127C379.772 293.114 381.38 293.606 382.744 294.525C384.109 295.445 385.169 296.751 385.79 298.276L418.472 378.385C418.989 379.638 419.191 381 419.058 382.35C418.926 383.7 418.464 384.996 417.712 386.125C416.961 387.253 415.943 388.179 414.75 388.821C413.556 389.462 412.223 389.8 410.868 389.804Z" fill="#1B3151"/>
<path d="M543.159 389.804C543.159 389.804 531.578 345.545 415.761 323.032C415.761 323.032 406.92 302.643 388.59 301.434L391.39 314.239C378.427 316.701 365.18 317.307 352.047 316.039C333.069 313.649 346.861 333.035 359.651 342.595C372.44 352.155 375.004 358.203 394.602 353.984C414.199 349.765 418.738 348.997 418.738 348.997C418.738 348.997 443.699 375.376 471.282 389.775L543.159 389.804Z" fill="#FEB19E"/>
<path d="M251.201 265.85C247.393 266.513 243.785 268.034 240.65 270.298C237.515 272.563 234.936 275.512 233.107 278.921C226.182 290.901 220.317 298.1 208.883 294.914C197.448 291.727 199.01 267.444 217.134 260.539C235.258 253.635 251.201 265.85 251.201 265.85Z" fill="url(#paint2_radial_715_1016)"/>
<path d="M257.331 232.508C257.331 232.508 238.971 207.487 209.413 216.545C179.854 225.604 152.153 228.348 135.915 200.553C119.677 172.758 135.384 160.543 149.766 162.431C164.147 164.32 176.819 190.138 197.949 190.403C219.079 190.669 252.792 206.867 257.331 232.508Z" fill="url(#paint3_radial_715_1016)"/>
<path d="M470.604 174.411C470.604 174.411 462.883 135.493 491.233 122.421C519.583 109.35 525.3 143.754 504.524 148.416C483.748 153.078 472.461 163.494 470.604 174.411Z" fill="url(#paint4_radial_715_1016)"/>
<path d="M398.462 285.324C398.462 285.324 406.507 274.112 429.759 286.652C453.011 299.192 476.734 308.782 493.237 289.839C509.74 270.896 498.306 248.855 481.243 253.9C464.18 258.946 465.005 271.604 435.977 269.066C406.949 266.529 398.462 285.324 398.462 285.324Z" fill="url(#paint5_radial_715_1016)"/>
<path d="M264.092 77.4021C269.987 52.3909 254.516 27.3298 229.536 21.4266C204.555 15.5235 179.525 31.0136 173.629 56.0248C167.733 81.036 183.204 106.097 208.185 112C233.165 117.903 258.196 102.413 264.092 77.4021Z" fill="#33CCCC"/>
<path d="M218.873 100.939C237.752 100.939 253.058 85.6154 253.058 66.7124C253.058 47.8093 237.752 32.4854 218.873 32.4854C199.993 32.4854 184.688 47.8093 184.688 66.7124C184.688 85.6154 199.993 100.939 218.873 100.939Z" fill="#ABDAF7"/>
<path d="M238.116 65.1779H221.259V42.3697C221.259 41.5089 220.918 40.6833 220.31 40.0747C219.702 39.466 218.877 39.124 218.018 39.124C217.158 39.124 216.333 39.466 215.725 40.0747C215.117 40.6833 214.776 41.5089 214.776 42.3697V71.1381H238.116C238.898 71.1381 239.647 70.8272 240.2 70.2739C240.753 69.7205 241.063 68.97 241.063 68.1875C241.063 67.4049 240.753 66.6544 240.2 66.1011C239.647 65.5477 238.898 65.2369 238.116 65.2369V65.1779Z" fill="#33CCCC"/>
</g>
<defs>
<linearGradient id="paint0_linear_715_1016" x1="432.352" y1="371.452" x2="420.536" y2="211.148" gradientUnits="userSpaceOnUse">
<stop stop-color="#3855E1"/>
<stop offset="1" stop-color="#5C7EF7"/>
</linearGradient>
<linearGradient id="paint1_linear_715_1016" x1="293.755" y1="119.677" x2="421.89" y2="119.677" gradientUnits="userSpaceOnUse">
<stop stop-color="#3F2323"/>
<stop offset="1" stop-color="#5E3434"/>
</linearGradient>
<radialGradient id="paint2_radial_715_1016" cx="0" cy="0" r="1" gradientUnits="userSpaceOnUse" gradientTransform="translate(206.525 284.439) scale(48.5958 48.6555)">
<stop stop-color="#F7C759"/>
<stop offset="1" stop-color="#F79239"/>
</radialGradient>
<radialGradient id="paint3_radial_715_1016" cx="0" cy="0" r="1" gradientUnits="userSpaceOnUse" gradientTransform="translate(6582.68 4335.34) scale(3719.51 2037.01)">
<stop stop-color="#F7C759"/>
<stop offset="1" stop-color="#F79239"/>
</radialGradient>
<radialGradient id="paint4_radial_715_1016" cx="0" cy="0" r="1" gradientUnits="userSpaceOnUse" gradientTransform="translate(8417.09 2443.75) scale(551.544 639.986)">
<stop stop-color="#F7C759"/>
<stop offset="1" stop-color="#F79239"/>
</radialGradient>
<radialGradient id="paint5_radial_715_1016" cx="0" cy="0" r="1" gradientUnits="userSpaceOnUse" gradientTransform="translate(17144 4517.51) scale(1765.02 812.909)">
<stop stop-color="#F7C759"/>
<stop offset="1" stop-color="#F79239"/>
</radialGradient>
<clipPath id="clip0_715_1016">
<rect width="746" height="405" fill="white"/>
</clipPath>
</defs>
</svg>
