<svg width="507" height="384" viewBox="0 0 507 384" fill="none" xmlns="http://www.w3.org/2000/svg">
<path d="M168.086 255.541C168.086 253.332 166.295 251.541 164.086 251.541H73.3502C71.1411 251.541 69.3502 253.332 69.3502 255.541V257.81H168.086V255.541Z" fill="#312E63"/>
<rect width="92.4668" height="6.26893" rx="3.13447" transform="matrix(-1 0 0 1 166.519 257.811)" fill="#232056"/>
<path d="M167.678 257.637H153.457L173.234 366.329H177.329L167.678 257.637Z" fill="#312E63"/>
<path d="M153.456 257.637H163.595L170.325 350.345L153.456 257.637Z" fill="#232056"/>
<path d="M70.1615 257.637H84.3829L64.6062 366.329H60.5112L70.1615 257.637Z" fill="#312E63"/>
<path d="M70.1615 257.637L60.5112 366.329L79.5402 257.637H70.1615Z" fill="#232056"/>
<path d="M322.117 171.881C329.229 185.026 345.38 216.075 353.088 235.113" stroke="#FFBC00" stroke-width="4"/>
<path d="M339.323 158.115L358.68 222.638" stroke="#FFBC00" stroke-width="4"/>
<path d="M349.645 150.373L361.689 204.572" stroke="#FFBC00" stroke-width="4"/>
<path d="M359.109 141.77L368.143 196.829" stroke="#FFBC00" stroke-width="4"/>
<path d="M369.863 133.598L376.315 180.484" stroke="#FFBC00" stroke-width="4"/>
<path d="M383.198 127.145L387.499 176.612" stroke="#FFBC00" stroke-width="4"/>
<path d="M393.547 122.045L395.153 190.838" stroke="#FFBC00" stroke-width="4"/>
<path d="M409.607 113.479L391.138 204.489" stroke="#FFBC00" stroke-width="4"/>
<path d="M418.059 110.49L400.507 204.49" stroke="#FFBC00" stroke-width="4"/>
<path d="M428.88 105.715L403.718 204.488" stroke="#FFBC00" stroke-width="4"/>
<path d="M438.517 104.645L412.552 196.19" stroke="#FFBC00" stroke-width="4"/>
<path d="M449.759 103.307C442.264 142.388 419.512 191.372 419.512 191.372" stroke="#FFBC00" stroke-width="4"/>
<path d="M462.34 105.447C448.956 148.008 429.951 181.2 429.951 181.2" stroke="#FFBC00" stroke-width="4"/>
<path d="M468.603 109.117C454.693 149.669 442.264 167.549 442.264 167.549" stroke="#FFBC00" stroke-width="4"/>
<path d="M276.053 249.118C277.705 251.365 281.463 253.344 288.89 253.445C296.145 253.544 305.66 251.795 316.82 248.152C339.073 240.889 366.586 226.522 393.173 206.98C419.788 187.419 441.039 166.26 453.937 148.029C460.405 138.886 464.57 130.764 466.4 124.159C468.254 117.47 467.466 113.381 465.723 111.01C463.981 108.64 460.314 106.667 453.376 106.439C446.526 106.215 437.531 107.765 426.874 111.209C405.624 118.076 379.086 132.042 352.471 151.603C325.831 171.183 303.577 192.764 289.691 211.441C282.725 220.811 278.081 229.162 275.915 235.95C273.702 242.881 274.431 246.911 276.053 249.118Z" stroke="#FFBC00" stroke-width="12"/>
<path d="M379.673 101.96C378.557 112.141 377.262 116.959 369.188 121.778C362.836 157.417 392.186 135.122 403.133 118.106L397.955 97.6465C394.757 98.3285 386.623 100.146 379.673 101.96Z" fill="#F1B09B"/>
<path d="M397.955 97.6471C394.757 98.3291 386.623 100.147 379.673 101.96C378.962 108.449 378.178 112.759 375.613 116.28C387.39 117.235 395.415 104.256 397.955 97.6471Z" fill="#EC8D66"/>
<path d="M150.308 335.615C157.818 340.509 168.091 323.979 168.091 323.979L184.216 342.62C184.216 342.62 176.432 347.37 170.167 353.06C166.752 356.162 161.333 362.916 158.398 364.15C152.12 366.431 136.328 339.954 150.308 335.615Z" fill="#FDCBB4"/>
<path d="M184.216 342.621C184.216 342.621 176.431 347.37 170.166 353.061C166.751 356.162 161.333 362.917 158.397 364.15C157.962 363.944 157.525 363.712 157.087 363.457C164.074 361.317 166.104 353.993 168.758 352.259C170.743 350.962 178.25 346.449 175.001 344.923C171.753 343.396 169.885 335.252 163.424 330.09C164.84 328.389 167.642 324.815 167.642 324.815L184.216 342.621Z" fill="#F1A089"/>
<path d="M127.792 322.904C131.598 325.979 142.394 330.333 151.148 336.052C151.364 340.556 147.296 343.574 146.273 345.954C145.249 348.334 144.748 349.666 151.201 357.316C157.654 364.966 157.687 363.698 158.391 364.206C159.096 364.715 156.749 366.832 156.341 366.349C155.934 365.866 127.369 333.184 124.665 329.814C121.96 326.445 124.622 320.616 127.792 322.904Z" fill="#FFBC00"/>
<path d="M181.279 349.302C176.461 349.302 162.81 319.323 152.103 304.868C213.133 225.1 233.744 197.262 249.805 197.262C258.275 201.576 357.068 259.048 361.961 274.085C327.431 280.242 261.315 241.463 262.118 243.302C240.168 259.898 201.355 332.706 181.279 349.302Z" fill="#0B1F83"/>
<path d="M361.961 274.085C327.43 280.242 261.314 241.463 262.117 243.302C246.351 255.223 221.883 296.147 201.909 324.408C205.137 302.78 223.049 236.986 231.602 206.792C238.951 200.168 244.615 197.262 249.804 197.262C258.275 201.576 357.067 259.048 361.961 274.085Z" fill="#091258"/>
<path d="M154.97 301.12C166.022 313.7 173.249 337.256 181.28 343.413C209.653 314.236 243.649 248.387 259.442 240.089C268.275 237.413 293.169 265.519 359.618 270.337" stroke="#4B4FE2" stroke-width="2"/>
<path d="M213.232 350.716C221.86 348.288 216.184 329.671 216.184 329.671L240.832 329.81C240.832 329.81 239.28 338.796 239.437 347.258C239.523 351.871 241.038 360.396 240.034 363.418C237.617 369.645 207.292 364.095 213.232 350.716Z" fill="#FDCBB4"/>
<path d="M240.831 329.811C240.831 329.811 239.279 338.797 239.436 347.259C239.522 351.872 241.037 360.397 240.033 363.418C239.591 363.61 239.128 363.786 238.648 363.948C241.639 357.28 237.463 350.93 237.906 347.791C238.237 345.443 239.784 336.821 236.496 338.261C233.207 339.701 225.848 335.744 217.71 337.207C217.362 335.021 216.517 330.56 216.517 330.56L240.831 329.811Z" fill="#F1A089"/>
<path d="M188.841 359.293C193.66 358.453 204.047 353.196 214.115 350.374C217.647 353.176 217.24 358.225 218.357 360.563C219.474 362.9 220.147 364.154 230.153 364.335C240.16 364.516 239.227 363.656 240.073 363.461C240.92 363.266 240.968 366.427 240.336 366.415C239.704 366.404 196.299 366.38 191.982 366.197C187.665 366.013 185.031 360.172 188.841 359.293Z" fill="#FFBC00"/>
<path d="M370.259 275.154C399.168 276.011 402.826 246.245 401.042 229.381C340.279 211.982 249.86 175.311 239.9 192.442C233.208 203.952 199.336 335.001 202.693 335.917C211.526 338.326 226.516 334.043 255.425 335.917C263.456 308.346 263.991 233.664 270.951 239.018C328.769 272.21 341.35 274.298 370.259 275.154Z" fill="#0B1F83"/>
<path d="M270.951 239.017C271.946 239.588 272.927 240.15 273.895 240.703C269.76 235.508 261.48 222.999 260.338 213.276C260.303 212.928 260.272 212.586 260.244 212.25C260.266 212.588 260.297 212.931 260.338 213.276C261.302 222.922 264.826 237.137 267.439 244.371C268.428 240.07 269.561 237.948 270.951 239.017Z" fill="#021575"/>
<path d="M202.919 330.832C213.668 334.847 243.648 328.422 251.144 330.832C253.285 323.337 259.923 246.061 266.936 235.003C270.95 228.674 311.638 270.337 370.26 270.337C388.094 270.337 398.366 258.749 396.76 228.139" stroke="#4B4FE2" stroke-width="2"/>
<path d="M381.165 110.183C363.539 113.405 363.005 83.6415 365.053 70.6942C374.692 51.2956 402.838 67.5203 402.767 77.4018C402.721 83.6899 400.259 106.693 381.165 110.183Z" fill="#F1B09B"/>
<path d="M365.052 70.6944C374.691 51.2958 402.837 67.5205 402.766 77.4021C402.737 81.4015 401.731 92.163 396.089 100.365C395.33 98.6695 393.759 95.0113 393.545 93.9406C393.277 92.6022 399.434 84.8395 395.419 80.289C391.404 75.7385 391.404 82.1628 392.474 88.0517C392.474 89.1224 386.853 87.784 383.641 81.3597C381.499 76.5415 372.294 88.0517 364.45 88.0517C363.946 81.6277 364.345 75.1606 365.052 70.6944Z" fill="#EC8D66"/>
<path d="M353.969 80.1164C349.923 66.2803 360.463 62.2744 366.762 62.0539C368.283 57.2747 374.974 51.6871 379.609 51.7848C390.564 52.0158 394.63 59.8782 396.051 63.3882C410.841 69.6524 404.697 84.298 402.005 88.2722C401.835 89.0949 400.132 96.0901 398.753 100.682C396.125 98.8493 395.319 95.7008 394.793 94.0916C394.135 92.08 396.563 90.7042 397.781 84.7911C399 78.8779 393.246 76.888 390.969 78.831C388.693 80.7739 393.645 87.9587 391.074 87.4288C384.034 85.174 385.072 74.9354 377.728 80.6583C367.192 88.8694 356.637 89.2422 353.969 80.1164Z" fill="#05185A"/>
<path d="M377.85 80.6728C367.313 88.8839 356.625 89.2424 353.957 80.1166C352.465 75.0157 352.956 71.2509 354.486 68.5193C354.203 84.8682 369.197 83.5079 377.85 80.6728Z" fill="#312E63"/>
<rect width="70.7477" height="7.68905" transform="matrix(-0.974527 -0.224268 -0.224268 0.974527 331.753 197.109)" fill="#F6BC33"/>
<path d="M330.032 204.601L261.086 188.734L261.437 187.208L330.251 203.649L330.032 204.601Z" fill="#DB9C14"/>
<path d="M238.204 128.942C237.135 129.341 236.616 130.551 237.063 131.6L261.437 188.833L265.865 182.004L244.179 128.785C243.771 127.783 242.641 127.288 241.628 127.665L238.204 128.942Z" fill="#F6BC33"/>
<path d="M261.437 188.833L236.952 131.34C236.565 130.432 237.015 129.386 237.939 129.041L263.102 188.213L261.437 188.833Z" fill="#DB9C14"/>
<path d="M287.66 173.74C285.185 175.167 278.32 181.347 275.197 184.259C276.174 184.707 279.538 184.726 285.182 181.212C292.238 176.821 296.191 178.924 298.899 182.295C293.063 178.759 288.276 179.429 288.389 181.633C288.479 183.397 304.04 189.285 311.809 191.205L312.859 179.971C311.757 180.027 309.848 179.971 308.138 179.172C295.085 173.08 290.754 171.956 287.66 173.74Z" fill="#F1B09B"/>
<path d="M312.859 179.968C311.756 180.025 309.848 179.968 308.137 179.17C308.055 180.612 307.836 183.571 307.622 183.876C307.354 184.257 301.197 183.761 298.253 186.763C302.897 188.559 308.196 190.31 311.809 191.203L312.859 179.968Z" fill="#EC8D66"/>
<path d="M307.085 192.177L310.298 177.722C310.298 177.722 327.965 172.101 333.332 170.762C338.699 169.423 346.167 134.358 368.117 122.313C361.158 137.302 339.221 191.13 339.221 191.13L307.085 192.177Z" fill="#0D9FD7"/>
<path d="M310.298 177.721L307.085 192.176" stroke="white" stroke-width="2"/>
<path d="M413.89 131.146C413.462 129.218 406.573 121.063 402.915 117.494C369.991 142.923 368.92 123.383 369.723 121.509C358.481 124.454 342.956 157.646 326.627 205.828C353.663 214.393 390.334 230.722 401.309 230.722C405.592 211.717 419.274 155.373 413.89 131.146Z" fill="#12AAE4"/>
<path d="M401.309 230.722C390.334 230.722 353.663 214.394 326.627 205.828" stroke="white" stroke-width="2"/>
<path d="M402.915 117.494C369.991 142.923 368.92 123.383 369.723 121.509" stroke="white" stroke-width="2"/>
<path d="M356.936 134.357C347.853 148.704 337.415 173.994 326.627 205.827C327.335 206.051 328.049 206.281 328.769 206.515C336.216 179.06 356.936 134.357 356.936 134.357Z" fill="#0E8CC1"/>
<path d="M385.784 143.993C396.277 125.149 408.893 127.576 413.89 131.145C416.184 141.469 415.016 157.626 412.589 174.241C411.555 172.903 405.324 207.647 388.996 210.913C371.865 214.339 340.279 208.95 326.627 205.827C329.38 197.703 332.111 190.005 334.801 182.807C333.854 187.625 371.115 177.614 372.4 175.044C374.006 171.832 375.612 161.928 385.784 143.993Z" fill="#0E8CC1"/>
<path d="M309.253 185.408C310.232 185.786 317.096 187.228 320.406 188.973C321.731 189.671 324.173 189.078 324.244 189.046L325.857 201.265C325.128 201.335 323.245 201.662 321.549 202.414C307.775 206.24 303.965 201.082 292.858 196.624C281.751 192.166 283.708 188.001 293.921 191.587C304.135 195.174 309.577 191.858 308.541 191.81C307.506 191.762 302.269 190.304 296.38 188.697C300.361 185.664 306.406 184.135 309.253 185.408Z" fill="#F1B09B"/>
<path d="M321.55 202.415C307.776 206.241 303.966 201.083 292.859 196.625C286.872 194.222 284.681 191.905 285.532 190.84C290.743 195.658 291.563 195.123 292.859 195.926C307.89 204.759 317.527 204.224 322.613 200.208L321.55 189.284C322.8 189.411 324.191 189.071 324.244 189.047L325.858 201.266C325.128 201.336 323.245 201.663 321.55 202.415Z" fill="#EC8D66"/>
<path d="M386.591 146.802C392.806 132.491 401.1 124.811 411.753 129.546C428.616 137.041 403.959 208.913 386.859 209.707C372.4 210.378 340.993 208.504 325.021 203.686C324.486 199.403 323.415 193.514 323.415 186.019C337.066 186.019 374.278 180.262 376.152 176.247C379.632 168.79 377.758 167.146 386.591 146.802Z" fill="#12AAE4"/>
<path d="M323.415 186.02C323.415 193.514 324.486 199.403 325.021 203.686" stroke="white" stroke-width="2"/>
<path d="M406.564 253.217C397.879 260.605 370.909 275.241 332.512 274.687C348.968 280.921 396.279 283.691 406.564 253.217Z" fill="#FFBC00"/>
<path d="M298.459 255.76C310.005 262.235 336.493 275.602 350.077 277.267" stroke="#FFBC00" stroke-width="4"/>
<path d="M316.973 252.521C327.353 260.659 347.545 276.151 355.669 277.267" stroke="#FFBC00" stroke-width="4"/>
<path d="M332.011 245.436C336.316 253.876 349.138 271.714 365.993 275.546" stroke="#FFBC00" stroke-width="4"/>
<path d="M339.323 241.996C346.417 251.196 363.491 270.701 375.025 275.118" stroke="#FFBC00" stroke-width="4"/>
<path d="M351.367 236.832C356.933 247.793 369.8 270.537 376.746 273.825" stroke="#FFBC00" stroke-width="4"/>
<path d="M365.133 229.521C369.881 242.964 380.056 270.386 382.769 272.536" stroke="#FFBC00" stroke-width="4"/>
<path d="M376.528 223.135C379.466 237.171 384.997 264.928 384.454 272.535" stroke="#FFBC00" stroke-width="4"/>
<path d="M390.51 212.314C391.484 225.516 388.644 253.068 388.645 265.705" stroke="#FFBC00" stroke-width="4"/>
<path d="M403.846 203.281C400.817 216.009 396.389 236.885 392.088 266.135" stroke="#FFBC00" stroke-width="4"/>
<path d="M288.996 257.48C302.618 263.646 326.519 274.972 340.685 276.029" stroke="#FFBC00" stroke-width="4"/>
<path d="M416.749 193.387C411.243 206.203 400.044 237.744 395.742 264.198" stroke="#FFBC00" stroke-width="4"/>
<path d="M442.99 168.01C431.709 188.51 410.222 232.878 400.476 260.759" stroke="#FFBC00" stroke-width="4"/>
<path d="M471.703 115.961C474.441 142.582 426.414 214.997 403.916 257.317" stroke="#FFBC00" stroke-width="4"/>
<path d="M274.854 253.108C291.717 266.224 346.561 246.34 395.726 210.205C449.704 170.531 481.417 123.859 468.995 108.335C460.429 97.6277 434.293 101.912 402.975 116.367" stroke="#FFBC00" stroke-width="12"/>
<path d="M336.118 333.617L435.675 286.73L288.564 313.621L336.118 333.617Z" stroke="#312E63" stroke-width="7"/>
<path d="M418.842 232.344L416.885 235.478L414.926 239.004L460.843 363.243C461.663 365.461 464.2 366.509 466.346 365.516C468.287 364.619 469.196 362.368 468.424 360.375L418.842 232.344Z" fill="#312E63"/>
<path d="M311.488 268.193L304.521 265.261L261.246 360.524C260.257 362.701 261.35 365.257 263.608 366.046C265.603 366.744 267.799 365.797 268.663 363.868L311.488 268.193Z" fill="#312E63"/>
<path d="M344.4 277.596L340.286 276.813L336.368 276.225L329.661 361.922C329.475 364.305 331.358 366.342 333.748 366.342C335.89 366.342 337.671 364.693 337.836 362.558L344.4 277.596Z" fill="#312E63"/>
<circle r="34.4539" transform="matrix(-1 0 0 1 277.987 37.4188)" fill="#CDEBF7"/>
<circle r="36.9177" transform="matrix(-1 0 0 1 277.988 37.4177)" stroke="#1A9CDD"/>
<path d="M279.489 37.0476C279.489 37.876 278.817 38.5476 277.989 38.5476C277.16 38.5476 276.489 37.876 276.489 37.0476H279.489ZM276.489 20.0059C276.489 19.1774 277.16 18.5059 277.989 18.5059C278.817 18.5059 279.489 19.1774 279.489 20.0059H276.489ZM276.489 37.0476V20.0059H279.489V37.0476H276.489Z" fill="#1A9CDD"/>
<path d="M278.544 5.92773V10.7439" stroke="#1A9CDD" stroke-width="2"/>
<path d="M309.478 36.8613L304.662 36.8613" stroke="#1A9CDD" stroke-width="2"/>
<path d="M278.544 62.9805V67.7966" stroke="#1A9CDD" stroke-width="2"/>
<path d="M252.426 36.8613L247.61 36.8613" stroke="#1A9CDD" stroke-width="2"/>
<path d="M256.131 38.5469C255.303 38.5469 254.631 37.8753 254.631 37.0469C254.631 36.2184 255.303 35.5469 256.131 35.5469V38.5469ZM277.619 35.5469C278.447 35.5469 279.119 36.2184 279.119 37.0469C279.119 37.8753 278.447 38.5469 277.619 38.5469V35.5469ZM256.131 35.5469H277.619V38.5469H256.131V35.5469Z" fill="#1A9CDD"/>
<circle r="4.07519" transform="matrix(-1 0 0 1 277.989 37.4189)" fill="#1A9CDD"/>
<rect x="-0.5" y="0.5" width="111.434" height="85.3821" transform="matrix(-1 0 0 1 172.399 23.9473)" fill="#CDEBF7" stroke="#1A9CDD"/>
<rect x="-0.5" y="0.5" width="120.013" height="91.9733" transform="matrix(-1 0 0 1 176.688 20.6523)" stroke="#3E4D9B"/>
<path d="M60.9653 23.9473H74.1856L173.399 110.329L60.9653 23.9473Z" fill="white"/>
<path d="M173.399 62.469L126.423 23.9473H99.8667L173.399 89.9012V62.469Z" fill="white"/>
<path d="M151.207 218.521C141.749 221.066 142.196 226.079 144.093 228.736H144.511C140.912 221.759 148.11 220.438 151.207 219.6C154.806 218.626 157.903 215.667 150.286 213.703C138.099 210.561 142.419 205.837 151.374 203.238C158.491 201.173 171.686 200.968 177.489 201.079C175.592 200.608 168.952 200.3 158.657 201.079C139.991 202.491 136.894 210.879 144.93 213.039C153.718 215.401 156.145 217.191 151.207 218.521Z" fill="#CDEBF7"/>
<path d="M137.511 229.551C137.511 228.446 138.406 227.551 139.511 227.551H155.056C156.16 227.551 157.056 228.446 157.056 229.551V241.765C157.056 247.162 152.681 251.538 147.283 251.538C141.886 251.538 137.511 247.162 137.511 241.765V229.551Z" fill="#E85253"/>
<path d="M147.511 251.538H157.056C150.837 251.439 138.222 246.503 137.511 227.551V241.538C137.511 247.061 141.988 251.538 147.511 251.538Z" fill="#D22F3F"/>
<path d="M156.464 232.291C159.479 232.749 161.794 235.425 161.794 238.658C161.794 241.891 159.479 244.567 156.464 245.025" stroke="#E85253" stroke-width="3"/>
<path d="M96.1459 200.483C97.8427 208.226 95.4389 223.85 94.0248 230.694H90.4907C88.0161 221.015 91.1977 208.402 91.1977 202.83C91.1977 198.371 93.5544 191.195 94.7327 188.164C94.4968 189.044 94.4491 192.74 96.1459 200.483Z" fill="#1889D1"/>
<path d="M93.6709 230.399C97.3238 225.413 104.135 212.566 102.155 201.068C100.565 191.835 100.237 187.911 100.292 186.622C100.325 186.442 100.357 186.271 100.388 186.109C100.341 186.148 100.305 186.305 100.292 186.622C99.5603 190.566 98.2667 198.633 98.2667 203.121C98.2667 208.987 91.9036 218.96 90.1361 230.399H93.6709Z" fill="#1AA0D5"/>
<path d="M103.923 214.852C98.8328 219.311 95.6748 227.074 94.7321 230.398H91.5506C90.8436 225.998 95.4392 216.026 100.388 212.506C104.347 209.69 108.637 202.338 110.286 199.014C110.286 202.436 109.014 210.394 103.923 214.852Z" fill="#1889D1"/>
<path d="M104.278 221.014C100.884 223.595 98.6217 228.347 97.9146 230.4H94.7331C95.0866 227.174 98.9752 219.548 102.51 217.788C105.338 216.38 108.402 212.313 109.58 210.455C109.227 212.899 107.671 218.433 104.278 221.014Z" fill="#1AA0D5"/>
<path d="M93.6703 230.107C94.9665 225.707 96.569 215.5 92.6098 209.868C87.6976 202.881 84.5279 191.849 84.8266 188.817C84.8291 188.795 84.8315 188.772 84.8339 188.75C84.8313 188.772 84.8289 188.794 84.8266 188.817C84.1245 195.258 83.7856 203.154 87.3085 212.215C90.1365 219.489 90.8435 227.173 90.8435 230.107H93.6703Z" fill="#1AA0D5"/>
<path d="M88.0161 215.732C91.9753 219.956 92.2581 226.487 91.9046 229.225H90.4919C89.7849 226.292 85.1893 219.839 82.0077 215.146C78.8262 210.453 79.1797 201.36 79.1797 195.494C79.1797 200.187 83.067 210.453 88.0161 215.732Z" fill="#1889D1"/>
<path d="M79.8861 218.08C83.5626 220.896 87.0741 226.88 88.3703 229.519H91.5518C91.9053 228.639 86.2492 218.667 82.7142 215.734C79.1791 212.801 75.6441 205.175 74.2301 201.068C73.523 204.295 74.5246 213.974 79.8861 218.08Z" fill="#1AA0D5"/>
<path d="M76.7193 226.828H110.882L104.214 251.443H82.6939L76.7193 226.828Z" fill="#F4BD34"/>
<path d="M106.777 231.195L107.445 226.807H79.8579L80.4681 231.195M106.777 231.195H80.4681M106.777 231.195L106.108 235.582M80.4681 231.195L81.0783 235.582M106.108 235.582H81.0783M106.108 235.582L105.44 239.97M81.0783 235.582L81.6886 239.97M105.44 239.97H81.6886M105.44 239.97L104.915 243.418M81.6886 239.97L82.168 243.418M104.915 243.418H82.168M104.915 243.418L104.294 247.492M82.168 243.418L82.7347 247.492M104.294 247.492L103.674 251.04H83.3013L82.7347 247.492M104.294 247.492H82.7347" stroke="#FFDD79"/>
<path d="M507 366.342H-1.88947e-05" stroke="#312E63"/>
</svg>
