<svg width="544" height="470" viewBox="0 0 544 470" fill="none" xmlns="http://www.w3.org/2000/svg">
<path opacity="0.7" d="M129.659 156.713L306.663 434.992L484.375 156.713H129.659Z" stroke="#2B2B39" stroke-linecap="round" stroke-linejoin="round" stroke-dasharray="3 3"/>
<circle cx="459.036" cy="162.321" r="79.952" fill="white"/>
<circle cx="459.036" cy="162.321" r="78.952" stroke="#FFAF2E" stroke-opacity="0.6" stroke-width="2"/>
<mask id="mask0_1149_2180" style="mask-type:alpha" maskUnits="userSpaceOnUse" x="314" y="54" width="230" height="225">
<path d="M538.989 162.322C538.989 118.166 503.193 54 459.037 54C418.014 54 384.207 109.383 379.615 152.651C338.881 147.492 284.303 127.504 333.951 164.901C353.645 179.736 365.766 201.224 389.412 201.653C403.142 225.906 429.178 242.274 459.037 242.274C481.01 242.274 500.913 233.41 515.365 219.062L511.571 254.863C511.571 323.854 557.888 228.347 538.989 162.322Z" fill="#C4C4C4"/>
</mask>
<g mask="url(#mask0_1149_2180)">
<path d="M455.273 119.093C433.758 136.255 435.951 172.742 434.652 192.602C433.739 206.495 430.88 226.406 429.064 237.801L469.374 243.736V173.883C469.374 150.599 470.995 121.982 477.347 115.818C472.923 115.328 469.016 115.454 466.338 115.818C464.214 115.801 461.555 116.159 458.645 117.337C457.364 118.097 456.423 118.437 455.273 119.093Z" fill="white"/>
<path opacity="0.5" d="M455.273 119.094C433.758 136.256 435.951 172.743 434.652 192.603C433.739 206.496 430.88 226.407 429.064 237.802C444.394 243.443 451.112 244.786 469.374 243.737V173.884C469.374 155.884 470.343 134.698 473.719 123.161C470.087 128.983 465.053 157.084 465.821 173.884C466.589 190.684 466.077 223.411 461.211 232.525C456.339 241.639 431.234 234.803 433.539 227.715C435.844 220.626 435.844 197.589 437.893 171.008C439.533 149.742 450.164 127.538 455.273 119.094Z" fill="#FFB83B"/>
<path d="M461.212 232.524C456.341 241.638 431.236 234.803 433.541 227.715C439.432 236.828 453.524 234.044 455.829 230.499C458.134 226.955 461.725 218.094 461.725 203.158C461.725 191.209 464.798 168.307 466.335 158.35C465.832 163.913 465.613 169.316 465.823 173.884C466.591 190.684 466.079 223.411 461.212 232.524Z" fill="#FFF9EF"/>
<path d="M437.893 171.007C439.178 154.391 445.945 137.202 451.281 126.451C448.268 132.949 442.303 149.742 442.508 164.931C442.713 180.121 438.13 199.107 435.811 206.702C436.356 196.729 436.868 184.312 437.893 171.007Z" fill="#FFF9EF"/>
<path d="M425.083 265.435L416.114 264.169C417.483 254.8 426.979 209.031 430.914 178.906C431.771 172.334 432.66 165.458 433.564 158.361C437.052 130.872 449.127 122.768 458.641 117.338C437.126 134.5 435.948 172.742 434.649 192.602C433.736 206.496 430.877 226.407 429.06 237.801C428.8 239.437 425.293 264.193 425.083 265.435Z" fill="#FFAF2E"/>
<path d="M430.914 178.906C431.771 172.334 432.66 165.458 433.564 158.361C433.298 166.965 432.66 181.102 430.914 195.564C427.631 222.766 424.059 247.461 416.114 264.17C417.483 254.8 426.979 209.031 430.914 178.906Z" fill="#F3A00D"/>
<path d="M511.166 264.675C506.812 245.688 500.404 171.007 500.404 171.007C500.404 171.007 505.569 144.654 497.074 131.767C491.644 123.525 477.347 115.818 477.347 115.818C470.995 121.982 469.375 150.599 469.375 173.883V243.736V267.966C480.421 270.244 498.867 271.257 511.166 264.675Z" fill="#FFAF2E"/>
<path d="M472.602 127.717C470.125 139.745 469.375 158.047 469.375 173.883V233.537C470.451 224.761 472.374 201.74 471.456 179.867C470.539 157.994 471.838 135.986 472.602 127.717Z" fill="#F9A319"/>
<path d="M511.166 264.675C506.812 245.689 500.404 171.007 500.404 171.007C500.404 171.007 505.569 144.654 497.074 131.768C497.074 145.438 490.415 163.918 494.257 182.399C499.426 207.252 503.734 229.993 498.867 247.207C494.974 260.979 477.58 266.785 469.375 267.966C480.421 270.244 498.867 271.257 511.166 264.675Z" fill="#F9A319"/>
<path d="M539.6 190.247C541.137 174.551 525.769 151.513 508.347 134.299C500.598 126.642 484.778 117.591 477.346 115.818L500.403 171.007C500.403 171.007 507.565 178.905 516.679 192.602C519.501 186.438 531.404 182.399 539.6 190.247Z" fill="#FFAF2E"/>
<path d="M539.601 190.247C541.138 174.551 525.765 151.514 508.348 134.299C504.301 130.302 498.056 125.924 491.951 122.4C493.916 125.776 498.15 133.489 499.379 137.337C500.916 142.147 533.966 161.374 531.149 186.063C534.069 186.481 537.016 187.773 539.601 190.247Z" fill="#F9A319"/>
<path d="M513.937 186.06C514.421 181.281 518.976 178.493 522.203 177.696C529.459 175.904 536.709 178.095 540.337 183.472C543.504 188.161 539.937 195.023 536.71 197.612C537.315 188.649 533.892 185.463 526.432 186.658C518.976 187.853 516.759 192.434 516.359 196.416C514.542 195.023 513.332 192.035 513.937 186.06Z" fill="#F9A319"/>
<path d="M526.431 186.659C518.975 187.854 516.758 192.434 516.353 196.417C517.028 204.715 518.248 224.219 517.764 235.849C517.163 250.387 516.353 255.366 513.736 261.739C511.114 268.111 514.579 274.731 519.617 273.536C524.656 272.341 528.768 266.518 527.562 261.739C526.351 256.959 527.562 252.179 529.574 248.794C531.591 245.408 536.709 216.332 536.709 197.612C537.314 188.65 533.886 185.464 526.431 186.659Z" fill="#FFD0B7"/>
<path d="M433.566 158.361C437.054 130.872 449.13 122.768 458.644 117.338C450.69 121.573 432.756 126.451 419.674 149.458C408.563 168.998 400.12 174.144 396.65 175.057C400.842 178.938 408.102 190.608 407.408 198.095C411.921 194.808 424.853 183.776 430.916 178.906C431.773 172.334 432.663 165.458 433.566 158.361Z" fill="#FFAF2E"/>
<path d="M430.915 178.906C431.771 172.334 432.661 165.458 433.564 158.361C431.092 170.778 421.754 178.096 416.632 179.869C412.529 181.286 408.403 189.067 406.857 192.779C407.336 194.666 407.555 196.478 407.406 198.096C411.919 194.808 424.851 183.776 430.915 178.906Z" fill="#F9A319"/>
<path d="M403.474 187.224C400.605 178.362 396.396 175.605 394.598 175.31C395.199 174.719 396.791 173.354 398.766 172.822C401.23 172.157 408.182 172.822 411.321 177.918C413.98 182.234 416.928 189.218 411.321 196.087C406.837 201.582 397.197 201.035 392.936 200.075C397.644 199.484 406.059 195.201 403.474 187.224Z" fill="#F9A319"/>
<path d="M392.934 200.076C397.642 199.485 406.057 195.201 403.473 187.225C401.41 180.851 398.699 176.322 394.597 175.31C393.628 175.667 391.723 176.456 384.188 173.265C374.772 169.278 344.053 155.318 341.811 153.324C339.568 151.33 334.636 144.462 327.685 144.683C320.734 144.905 323.2 157.534 331.496 159.75C339.793 161.966 346.744 167.948 350.779 172.38C354.816 176.811 376.565 198.303 392.934 200.076Z" fill="#FFD0B7"/>
<path d="M458.428 117.347V103.603L477.345 94.5527V115.818C468.911 131.353 457.66 127.399 458.428 117.347Z" fill="#FFD0B7"/>
<path d="M460.52 102.603L477.346 94.5527V115.818C477.332 115.849 477.313 115.879 477.299 115.91C476.452 117.457 475.581 118.809 474.691 119.98C471.562 115.323 463.286 108.097 458.429 104.489V103.775L460.52 102.603Z" fill="url(#paint0_linear_1149_2180)"/>
<path d="M449.04 68.9603C449.04 77.0264 453.133 78.0075 456.146 77.5819L474.569 97.3795C474.783 97.8051 476.846 99.5603 476.846 103.702C476.846 107.902 480.19 99.1852 482.667 97.3795C487.799 93.6414 491.287 93.5305 492.913 87.3654C494.31 82.0733 492.34 78.3269 490.724 77.5819C489.755 77.1562 488.721 76.2409 487.171 75.9855C485.62 75.7296 485.229 73.1116 485.229 71.8342C485.122 70.8765 484.702 69.5443 482.23 68.0022C480.693 67.0446 476.72 66.6184 475.212 68.0022C474.243 68.5346 472.045 69.0882 471.011 67.0446C469.977 65.0009 467.779 65.7671 466.81 66.4054C463.97 67.427 457.38 64.4261 454.819 56.5781C451.745 60.6287 449.04 63.4132 449.04 68.9603Z" fill="#2B2B39"/>
<path d="M490.725 77.5812C489.757 77.1551 488.723 76.2398 487.172 75.9844C495.163 81.8609 488.723 91.2763 483.6 93.8073C479.502 95.8321 477.392 101.247 476.847 103.701C476.847 107.901 480.191 99.1841 482.669 97.3784C487.801 93.6403 491.289 93.5294 492.914 87.3647C494.311 82.0726 492.341 78.3258 490.725 77.5812Z" fill="#13131C"/>
<path d="M466.812 66.4054C463.972 67.427 457.382 64.4257 454.821 56.5781C454.867 61.2987 457.196 70.3841 466.137 68.9603C467.534 68.4978 469.164 67.5775 471.027 69.4182C472.89 71.2589 477.603 67.0441 482.232 68.0022C480.695 67.0441 476.722 66.618 475.214 68.0022C474.245 68.5342 472.047 69.0878 471.013 67.0441C469.979 65.0004 467.786 65.7666 466.812 66.4054Z" fill="#13131C"/>
<path d="M465.523 104.404C473.021 102.105 475.969 96.8467 476.509 94.5053C476.728 93.5472 477.263 90.8864 477.156 89.7157C476.378 87.4166 474.031 90.6733 472.955 92.5895C471.516 95.144 471.256 86.2031 472.955 83.968C475.279 80.9022 471.661 80.0905 470.045 79.1784C469.29 78.7523 467.204 78.0288 464.876 78.5397C462.547 79.0505 461.322 77.6878 460.996 76.9428C460.135 75.5595 457.895 73.6221 455.827 76.9428C450.914 84.3513 451.841 94.0796 452.921 98.0179C453.997 101.104 458.025 106.703 465.523 104.404Z" fill="#FFD0B7"/>
</g>
<g filter="url(#filter0_d_1149_2180)">
<circle cx="138.98" cy="156.841" r="80.98" fill="white"/>
<circle cx="138.98" cy="156.841" r="79.98" stroke="#217BF4" stroke-opacity="0.6" stroke-width="2"/>
</g>
<mask id="mask1_1149_2180" style="mask-type:alpha" maskUnits="userSpaceOnUse" x="58" y="54" width="183" height="204">
<path d="M58 157.195C58 112.471 94.256 54.072 138.98 54.072C246.785 51.0353 243.79 144.753 237.674 191.991H212.124C199.109 219.301 171.248 238.175 138.98 238.175C128.241 238.175 117.99 236.085 108.613 232.289C107.976 232.031 107.343 231.765 106.715 231.492C104.606 236.672 100.515 248.677 101.021 255.257C90.8981 263.481 66.0878 247.538 68.1168 196.42C61.6707 184.799 58 171.426 58 157.195Z" fill="#C4C4C4"/>
</mask>
<g mask="url(#mask1_1149_2180)">
<path d="M231.822 173.464C226.869 174.966 220.725 177.087 216.165 175.98C212.511 175.092 212.786 173.938 212.373 171.517C213.531 169.552 218.427 165.776 227.905 163.849C239.751 161.44 240.533 170.822 231.822 173.464Z" fill="#FEBE9D"/>
<path d="M177.959 138.072C176.5 134.528 172.487 133.937 170.664 134.085C157.377 139.4 165.453 177.718 168.58 182.812C171.706 187.906 175.353 189.9 179.001 191.45C182.648 193.001 189.943 192.115 191.767 191.007C193.591 189.9 194.112 188.792 196.196 188.571C198.28 188.349 201.667 187.685 202.97 186.356C204.272 185.027 205.314 183.698 208.441 183.698C211.568 183.698 214.173 181.483 215.215 180.154C216.257 178.825 217.039 178.604 218.862 178.161C220.686 177.718 222.51 177.718 223.031 175.503C223.552 173.288 223.812 168.858 223.552 166.644C223.291 164.429 223.291 164.429 221.989 164.65C220.686 164.872 217.299 166.644 216.257 166.644C215.215 166.644 213.391 166.422 211.567 167.087C209.744 167.751 203.751 170.188 199.843 171.295C195.935 172.402 190.204 172.624 190.725 171.073C191.246 169.523 193.07 165.093 189.422 165.093C185.775 165.093 185.775 162.657 184.212 157.563C182.648 152.469 179.783 142.501 177.959 138.072Z" fill="#217BF4"/>
<path d="M216.519 176.39C217.647 176.316 220.218 175.859 221.468 174.619M217.561 169.081C218.342 168.417 220.374 167.088 222.25 167.088L217.561 169.081ZM219.384 170.189L221.468 169.303L219.384 170.189ZM216.779 173.29C217.995 173.142 220.739 172.581 221.99 171.518L216.779 173.29Z" stroke="#2068D9" stroke-width="1.07894"/>
<path d="M217.225 178.621C216.75 176.855 216.275 174.097 216.778 171.96C216.257 173.511 214.746 177.143 212.87 179.269C210.526 181.927 207.66 181.706 207.138 179.491C206.617 177.276 203.491 178.605 202.449 181.263C201.407 183.921 199.062 187.243 195.154 187.464C191.493 187.672 189.662 188.462 188.588 188.926C188.515 188.957 188.446 188.987 188.38 189.015C187.338 189.458 187.598 187.686 188.641 186.578C189.683 185.471 190.985 182.592 190.725 181.041C189.422 183.478 186.817 186.8 182.648 187.907C178.48 189.015 176.135 186.357 179.261 183.921C182.388 181.484 184.732 179.269 185.514 177.276C185.809 176.522 185.398 176.782 184.574 177.3C183.219 178.153 180.749 179.707 178.48 178.605C174.832 176.833 175.353 171.739 178.219 170.853C179.135 170.57 180.503 170.49 181.975 170.404C185.109 170.222 188.713 170.013 189.422 167.752C187.859 168.638 178.741 169.967 178.48 164.43C178.219 158.893 177.698 155.127 176.395 152.027C175.963 150.996 175.76 149.649 175.549 148.244C175.123 145.417 174.663 142.357 172.227 141.173C171.531 140.836 168.656 140.965 164.727 141.646C160.681 154.61 166.139 178.837 168.58 182.813C171.706 187.908 175.353 189.901 179.001 191.452C182.648 193.002 189.943 192.116 191.767 191.009C192.363 190.647 192.82 190.284 193.238 189.953C194.099 189.272 194.793 188.721 196.196 188.572C198.28 188.351 201.667 187.686 202.97 186.357C203.063 186.262 203.156 186.167 203.247 186.072C204.433 184.844 205.539 183.699 208.441 183.699C211.568 183.699 214.173 181.485 215.215 180.156C215.878 179.309 216.437 178.912 217.225 178.621Z" fill="#1771EA"/>
<path d="M171.104 186.191C172.399 184.753 174.598 182.73 176.656 182.147C179.783 181.261 178.219 180.818 175.614 181.704C173.009 182.59 172.488 181.925 172.227 179.046C171.967 176.167 173.009 171.072 174.572 167.529C176.135 163.985 178.219 152.911 173.79 148.703C171.753 146.767 167.456 146.987 163.434 148.974C162.428 162.17 166.548 179.502 168.58 182.811C169.389 184.13 170.234 185.242 171.104 186.191Z" fill="#2068D9"/>
<path d="M214.694 176.612C216.987 173.954 216.691 169.155 216.257 167.088C216.952 168.86 217.925 173.024 216.257 175.504C214.173 178.605 214.173 177.276 214.694 176.612Z" fill="#3881F2"/>
<path d="M151.907 240.62C159.619 237.608 169.884 239.07 174.052 240.177C174.574 240.31 175.094 240.177 176.136 237.077C177.179 233.976 176.397 226.224 176.136 225.559C175.876 224.895 175.876 224.452 176.136 223.345C177.439 216.036 172.489 198.538 170.405 188.793C168.321 179.047 171.186 169.966 174.052 163.322C176.918 156.677 174.573 148.039 173.792 139.18C173.01 130.32 164.152 129.656 152.168 127.219C140.183 124.783 124.812 124.783 118.038 139.401C111.264 154.02 117.517 173.067 118.038 183.92C118.559 194.773 113.348 204.075 109.961 213.599C106.574 223.123 107.356 230.211 106.314 236.412C105.48 241.374 107.182 243.5 108.138 243.943C108.224 245.05 108.398 248.018 108.398 251.03C108.398 254.796 109.961 256.789 113.869 256.567C117.777 256.346 124.03 254.131 129.501 250.587C134.972 247.044 142.267 244.386 151.907 240.62Z" fill="#217BF4"/>
<path d="M152.168 198.759C145.081 204.075 136.362 203.041 132.888 201.86C132.888 202.82 134.556 205.226 141.225 207.176C149.563 209.612 155.294 204.075 157.639 199.645C159.515 196.101 163.631 191.081 165.455 189.014C163.979 190.047 159.254 193.443 152.168 198.759Z" fill="#3881F2"/>
<path d="M174.052 240.177C169.884 239.07 159.619 237.608 151.907 240.62C150.849 241.033 149.819 241.433 148.816 241.822C140.688 244.979 134.372 247.433 129.501 250.587C124.03 254.131 117.777 256.346 113.869 256.567C109.961 256.789 108.398 254.796 108.398 251.03C108.398 248.018 108.224 245.05 108.138 243.942C107.182 243.499 105.48 241.373 106.314 236.412C106.648 234.424 106.795 232.344 106.951 230.122C107.283 225.415 107.66 220.069 109.961 213.599C110.745 211.396 111.626 209.204 112.511 207.003C115.452 199.688 118.438 192.262 118.038 183.92C117.9 181.043 117.359 177.591 116.764 173.797C115.117 163.28 113.06 150.144 118.038 139.401C118.123 139.217 118.21 139.034 118.298 138.855C128.54 130.695 138.696 127.22 147.211 126.402C148.905 126.612 150.566 126.894 152.168 127.219C153.45 127.48 154.697 127.721 155.902 127.953C160.569 128.853 164.607 129.632 167.665 130.999C168.189 131.503 168.585 132.02 168.842 132.534C172.489 139.843 164.934 148.26 158.941 152.468C152.949 156.676 154.252 158.448 161.026 156.676C167.03 155.105 166.075 155.623 158.705 159.616C157.76 160.128 156.709 160.697 155.554 161.327C145.394 166.864 156.857 164.648 165.194 162.877C173.531 161.105 171.968 165.313 170.144 167.085C169.38 167.827 168.525 168.258 167.77 168.639C166.722 169.168 165.867 169.599 165.715 170.629C165.455 172.4 163.631 174.394 161.286 175.28C161.101 175.35 160.913 175.42 160.722 175.491C158.497 176.317 155.952 177.262 154.512 179.709C152.949 182.367 149.041 182.81 144.352 182.588C139.662 182.367 133.409 184.138 139.141 188.79C144.873 193.441 152.949 190.119 157.118 188.347C147.478 198.535 133.67 191.004 131.064 187.461C128.459 183.917 127.156 182.81 123.769 183.696C120.383 184.581 119.341 188.789 122.467 189.675C123.852 190.067 125.289 189.895 126.459 189.754C127.93 189.577 128.98 189.45 128.98 190.561C128.98 192.248 124.873 195.205 121.242 197.82C120.583 198.294 119.94 198.757 119.341 199.199C115.432 202.078 119.861 204.515 122.727 205.4C125.593 206.286 124.812 207.394 120.122 211.824C113.609 218.248 126.114 224.227 137.578 217.361C146.749 211.868 154.773 211.381 157.639 211.824C154.339 212.636 146.332 215.545 140.704 220.684C135.961 225.015 129.678 226.224 124.091 227.299C121.393 227.819 118.856 228.306 116.735 229.1C110.222 231.536 113.609 236.409 119.08 236.631C121.998 236.749 127.14 233.968 133.043 230.776C138.207 227.984 143.953 224.877 149.302 223.12C160.765 219.355 168.581 222.234 172.75 223.785C165.976 223.342 146.957 228.879 137.057 234.416C132.268 237.095 128.699 238.115 125.582 239.006C122.254 239.957 119.443 240.76 116.214 243.276C109.961 248.149 118.298 251.471 124.291 250.585C126.968 250.189 130.736 248.026 135.04 245.555C140.369 242.495 146.518 238.964 152.428 237.739C160.333 236.1 170.334 237.873 175.295 239.199C174.768 240.234 174.41 240.268 174.052 240.177Z" fill="#1771EA"/>
<path d="M117.701 180.205C118.779 178.901 120.332 176.92 121.164 175.505C122.467 173.29 123.248 172.404 125.072 173.954C126.896 175.505 129.762 175.284 131.325 173.511C131.294 173.634 131.263 173.754 131.233 173.873C130.491 176.782 129.977 178.801 135.233 178.163C137.155 177.929 139.913 178.243 142.58 178.546C147.507 179.105 152.125 179.63 150.604 176.612C148.259 171.961 146.696 160.665 151.386 156.679C155.137 153.489 158.333 149 159.462 147.155C161.547 142.946 161.338 134.752 143.83 135.637C136.881 135.989 129.3 134.531 122.208 133.123C120.606 134.829 119.196 136.901 118.037 139.401C113.059 150.145 115.117 163.281 116.764 173.798C117.121 176.073 117.458 178.226 117.701 180.205Z" fill="#2068D9"/>
<path d="M163.892 231.982C169.311 232.159 170.492 228.807 170.405 227.109C170.405 225.78 171.968 225.78 171.187 231.539C170.405 237.298 161.026 234.197 152.949 234.861C144.873 235.526 133.409 240.621 130.543 242.17C144.612 231.76 157.118 231.76 163.892 231.982Z" fill="#3881F2"/>
<path d="M169.882 224.672C170.49 226.961 171.601 232.734 171.184 237.518M112.304 245.27C112.304 246.894 112.46 250.807 113.086 253.465L112.304 245.27ZM118.557 242.391C119.165 244.384 120.328 248.814 120.12 250.586L118.557 242.391ZM122.725 240.176C123.16 241.726 124.028 246.023 124.028 250.807L122.725 240.176ZM127.936 240.619V246.377V240.619ZM132.104 237.518C132.626 238.847 133.511 242.125 132.886 244.606L132.104 237.518ZM136.273 235.082C136.707 236.558 137.576 240.087 137.576 242.391L136.273 235.082ZM141.484 233.753V239.511V233.753ZM146.434 230.873C146.868 232.793 147.476 237.341 146.434 240.176V230.873ZM150.081 229.766C150.689 231.021 151.801 234.196 151.384 236.853L150.081 229.766ZM156.334 228.659C156.334 230.578 156.334 234.595 156.334 235.303V228.659ZM159.721 226.887C159.981 228.659 160.503 232.955 160.503 235.968L159.721 226.887ZM166.755 229.545C166.842 231.316 166.86 235.259 166.234 236.853L166.755 229.545Z" stroke="#2068D9" stroke-width="1.07894"/>
<path d="M114.911 241.285C131.933 233.533 167.904 218.782 174.573 224.452" stroke="#3881F2" stroke-width="1.07894"/>
<path d="M106.314 236.413C105.48 241.374 107.182 243.501 108.138 243.943C108.179 244.472 108.24 245.423 108.293 246.601C110.673 244.682 115.954 240.577 118.038 239.514C114.13 240.621 108.969 242.836 108.293 237.963C107.616 233.091 110.222 227.997 111.785 225.339C113.348 222.681 115.218 214.707 113.241 205.184C112.118 208 110.96 210.79 109.961 213.6C106.574 223.124 107.356 230.212 106.314 236.413Z" fill="#2068D9"/>
<path d="M87.289 247.55C87.6452 242.385 88.5509 236.105 91.2066 232.237C93.3348 229.136 94.3161 229.803 96.7262 230.278C98.1507 232.058 100.608 238.006 99.0409 247.55C97.0823 259.479 86.6629 256.63 87.289 247.55Z" fill="#FEBE9D"/>
<path d="M85.9913 240.177C86.4082 239.291 86.6861 238.036 86.7729 237.519C87.5545 231.761 86.7729 226.224 86.7729 216.7C86.7729 207.176 89.118 197.209 91.202 193.665C93.2864 190.122 92.7652 187.021 93.8075 185.249C94.8495 183.477 97.9759 181.484 96.9339 175.504C95.8916 169.523 99.5391 168.859 99.7998 161.328C100.06 153.798 101.623 144.274 106.574 137.629C111.524 130.984 129.761 126.555 131.585 139.18C133.408 151.804 126.635 160.221 123.769 165.758C120.903 171.295 117.255 183.255 116.734 186.356C116.213 189.457 113.868 198.317 113.868 202.082C113.868 205.847 112.826 212.713 111.263 218.693C109.7 224.673 106.313 231.982 105.271 232.647C104.229 233.311 103.708 233.754 103.708 234.862C103.708 235.969 103.187 239.734 102.926 241.063C102.665 242.392 102.405 242.835 101.623 242.392C100.842 241.949 99.5391 241.949 97.1943 241.949C94.8496 241.949 90.9416 242.392 88.5969 242.171C86.2521 241.949 85.4705 241.285 85.9913 240.177Z" fill="#217BF4"/>
<path d="M96.1532 234.198C91.1511 235.261 88.5109 234.345 87.8162 233.754C89.2925 234.198 92.8014 234.557 95.632 233.754C97.9768 233.09 101.277 233.164 102.406 233.533C101.19 233.533 98.2376 233.666 96.1532 234.198Z" fill="#3881F2"/>
<path d="M99.8008 234.639C99.5404 235.525 99.2279 237.518 100.062 238.404C100.895 239.29 100.235 240.102 99.8008 240.397M90.6822 236.632C90.8558 237.297 90.9948 238.98 90.1614 240.397L90.6822 236.632ZM94.3297 235.082L94.0693 239.954L94.3297 235.082Z" stroke="#2068D9" stroke-width="1.07894"/>
<path d="M99.8149 241.992C100.493 240.8 101.265 238.95 101.103 237.298C100.842 234.64 97.1949 233.754 95.1108 234.197C97.716 233.09 103.448 230.653 105.011 225.116C106.574 219.579 106.053 216.257 101.103 215.814C100.061 215.814 99.0188 215.592 102.666 212.934C106.313 210.277 112.045 205.182 106.574 202.082C101.103 198.981 97.4556 196.544 96.674 193.222C99.2792 194.994 102.406 196.987 103.708 197.209C104.835 197.401 104.792 197.261 104.255 195.5C104.17 195.224 104.074 194.91 103.969 194.551C103.187 191.893 101.364 185.249 101.364 183.255C102.145 185.692 103.448 189.457 106.835 191.007C110.222 192.558 111.264 188.349 110.743 185.47C110.222 182.591 109.961 180.376 113.348 177.939C116.735 175.503 122.206 166.865 118.298 163.1C114.39 159.335 107.356 152.469 107.616 147.153C107.819 143.02 107.391 141.699 105.477 139.234C105.823 138.683 106.188 138.147 106.574 137.629C110.112 132.88 120.436 129.263 126.705 132.193C127.291 132.547 127.871 132.905 128.446 133.268C130.051 134.553 131.195 136.475 131.585 139.18C133.104 149.69 128.663 157.284 125.479 162.728C124.839 163.823 124.249 164.831 123.769 165.758C120.904 171.295 117.256 183.255 116.735 186.356C116.574 187.316 116.237 188.828 115.85 190.569C114.987 194.454 113.869 199.482 113.869 202.082C113.869 205.847 112.827 212.713 111.264 218.693C109.701 224.673 106.313 231.982 105.271 232.647C104.229 233.311 103.708 233.754 103.708 234.862C103.708 235.969 103.187 239.734 102.927 241.063C102.666 242.392 102.406 242.835 101.624 242.392C101.201 242.152 100.626 242.042 99.8149 241.992Z" fill="#1771EA"/>
<path d="M119.433 176.787C118.069 180.926 117 184.782 116.736 186.355C116.574 187.315 116.238 188.826 115.851 190.568C114.988 194.453 113.87 199.481 113.87 202.08C113.87 203.256 113.768 204.733 113.581 206.391C112.2 203.683 109.981 200.701 107.096 200.088C102.585 199.129 105.298 199.167 107.291 199.194C107.601 199.198 107.893 199.202 108.138 199.202C109.962 199.202 110.743 198.315 108.659 197.208C106.992 196.322 104.491 191.523 103.448 189.234C104.577 191.523 107.877 196.1 112.046 196.1C113.348 196.1 114.391 194.993 113.609 192.778C112.915 190.81 115.1 182.373 119.433 176.787Z" fill="#2068D9"/>
<path d="M133.19 123.72L135.001 113.418L147.909 116.105C147.607 117.449 147.637 121.614 148.362 126.631C149.086 131.647 151.23 134.32 152.438 135.141L133.19 123.72Z" fill="#FEBE9D"/>
<path d="M135.113 113.418L147.758 116.098C147.537 117.102 147.498 119.685 147.791 123.021C138.765 121.949 135.578 116.172 135.113 113.418Z" fill="#F2AD8A"/>
<path d="M127.928 158.409C127.454 155.321 129.589 154.66 131.487 153.778C132.646 153.239 134.069 152.537 134.571 151.168C137.902 152.473 141.232 152.801 146.434 152.13C146.671 155.252 147.193 162.466 147.382 166.347C147.62 171.198 149.281 178.916 143.824 176.27C138.367 173.624 136.707 173.404 134.097 174.065C131.487 174.726 129.589 174.065 129.352 169.875C129.115 165.685 128.403 159.29 127.928 158.409Z" fill="#8CB9FF"/>
<path d="M133.64 174.188C132.914 172.631 131.817 169.118 132.165 165.042C132.636 159.522 134.048 155.106 135.696 159.301C137.014 162.657 137.343 166.587 137.343 168.132C138.285 167.617 140.215 165.439 140.403 160.846C140.639 155.105 140.874 155.326 141.58 158.638C142.286 161.95 142.522 162.391 143.228 158.638C143.322 158.137 143.4 157.682 143.47 157.271C143.917 154.655 144.07 153.757 146.379 153.363C146.346 152.905 146.315 152.492 146.288 152.131C141.127 152.803 137.823 152.474 134.519 151.168C134.021 152.538 132.608 153.242 131.459 153.781C131.302 153.855 131.143 153.927 130.985 153.999C129.241 154.791 127.496 155.584 127.928 158.418C128.399 159.301 129.105 165.704 129.34 169.899C129.563 173.87 131.262 174.676 133.64 174.188Z" fill="#7EAEFA"/>
<path opacity="0.5" d="M128.391 160.427C129.284 158.552 130.847 155.971 132.411 155.533C134.77 154.873 135.242 154.433 135.949 153.772C136.657 153.112 137.365 153.552 137.601 154.433C137.837 155.313 138.545 154.433 139.252 153.553C139.96 152.672 141.376 153.333 141.612 153.993C141.696 154.229 141.991 154.072 142.497 153.802C143.282 153.383 144.577 152.694 146.379 152.786C146.362 152.551 146.345 152.331 146.33 152.129C141.158 152.798 137.846 152.47 134.534 151.168C134.035 152.534 132.619 153.235 131.467 153.773C131.31 153.846 131.151 153.918 130.992 153.99C129.244 154.781 127.496 155.571 127.928 158.396C128.068 158.656 128.228 159.4 128.391 160.427Z" fill="#70A2F2"/>
<path d="M145.122 119.473C136.525 118.409 129.648 111.026 127.362 107.627C122.789 108.736 121.874 108.07 121.645 104.967C121.417 101.864 127.362 100.312 128.505 95.2139C129.648 90.1157 133.535 80.5848 144.511 76.1514C155.486 71.7184 164.861 86.1263 165.089 90.5597C165.318 94.9927 164.635 105.541 161.888 111.617C158.981 118.049 155.869 120.803 145.122 119.473Z" fill="#FEBE9D"/>
<path d="M127.8 107.187C123.253 108.292 122.185 108.322 121.957 105.229C117.638 106.112 108.317 109.333 105.589 115.143C102.178 122.405 105.589 123.564 107.862 124.669C110.135 125.774 108.999 128.866 106.043 129.308C103.088 129.75 102.861 127.541 102.633 126.216C101.269 132.18 106.043 132.18 108.089 131.296C106.725 134.831 107.18 137.482 110.363 138.366C113.546 139.249 110.363 142.563 110.363 145.656C110.363 148.749 113.773 150.516 114 152.725C114.228 154.934 116.956 156.039 119.684 156.923C122.412 157.806 121.275 158.911 120.139 160.899C119.002 162.887 120.821 164.433 121.048 167.084C121.275 169.736 123.094 169.956 125.367 170.398C123.094 166.643 124.458 165.317 125.822 164.213L125.865 164.178C127.21 163.089 128.318 162.192 127.868 159.132C127.414 156.039 129.46 155.376 131.279 154.492C133.097 153.609 135.598 152.283 133.779 148.307C131.96 144.33 137.644 141.679 139.008 137.703C140.372 133.726 137.189 128.866 135.825 127.099C134.461 125.332 133.097 122.681 132.642 121.576C132.188 120.472 132.642 120.472 132.87 120.693C134.007 121.797 134.234 120.913 134.461 119.809C134.643 118.925 134.84 116.33 134.916 115.143C131.449 112.68 129.043 109.04 127.8 107.187Z" fill="#2B2B39"/>
<path d="M147.516 122.461V119.603C153.168 120.003 156.395 118.965 158.702 116.717C163.392 122.24 159.239 127.1 158.558 128.205C157.193 126.437 154.465 125.774 153.783 125.774C153.101 125.774 152.419 125.995 151.737 124.891C151.055 123.786 150.828 122.461 149.464 121.577C148.373 120.87 147.711 121.872 147.516 122.461Z" fill="#2B2B39"/>
<path d="M121.642 117.336C123.018 118.343 125.38 121.178 123.827 124.458" stroke="#151523" stroke-width="0.8"/>
<path d="M127.799 119.828C130.736 122.09 135.925 127.708 133.184 132.086C129.757 137.559 129.023 139.529 129.023 143.688" stroke="#151523" stroke-width="0.8"/>
<path d="M122.024 146.896C123.592 146.237 126.211 143.516 124.141 137.898C122.071 132.279 124.69 128.972 126.258 128.021" stroke="#151523" stroke-width="0.8"/>
<path d="M114.134 130.156C112.245 131.979 109.601 136.019 114.134 137.594C119.801 139.563 121.161 141.532 119.348 145.469" stroke="#151523" stroke-width="0.8"/>
<path d="M113.169 141.195C113.75 141.875 114.563 143.824 113.169 146.181" stroke="#151523" stroke-width="0.8"/>
<path d="M110.219 117.031C109.438 117.77 108.396 119.778 110.48 121.904C113.085 124.562 112.825 126.112 111.522 127.884" stroke="#151523" stroke-width="0.8"/>
<path opacity="0.5" d="M115.469 107.876C114.447 109.248 113.437 110.788 112.652 112.337C111.909 113.804 111.361 115.29 111.2 116.651C111.038 118.012 111.262 119.272 112.093 120.261C112.291 120.496 112.485 120.724 112.673 120.945C113.421 121.825 114.078 122.598 114.552 123.333C115.141 124.246 115.421 125.064 115.241 125.907C115.06 126.753 114.405 127.667 113.009 128.752C112.017 129.523 110.662 130.371 108.864 131.332C108.768 131.556 108.68 131.776 108.601 131.992C110.685 130.904 112.24 129.95 113.36 129.079C114.798 127.963 115.544 126.967 115.753 125.986C115.964 125.001 115.625 124.075 115.009 123.12C114.518 122.359 113.835 121.556 113.085 120.674L113.085 120.673C112.899 120.455 112.71 120.232 112.518 120.004C111.786 119.133 111.564 117.995 111.718 116.695C111.872 115.396 112.398 113.957 113.131 112.512C114.021 110.756 115.207 109.006 116.369 107.508C116.069 107.626 115.768 107.749 115.469 107.876Z" fill="#1C1C2A"/>
<path opacity="0.5" d="M129.474 109.801C129.023 111.306 128.68 113.338 128.809 115.512C128.974 118.302 129.92 121.34 132.432 123.788C135.5 126.777 136.584 128.888 136.584 130.713C136.584 132.546 135.495 134.155 134.005 136.165C132.505 138.188 131.621 140.182 131.739 142.582C131.841 144.673 132.7 147.046 134.521 149.994C134.429 149.487 134.249 148.923 133.962 148.293C133.867 148.085 133.792 147.88 133.736 147.679C132.745 145.714 132.267 144.05 132.194 142.561C132.083 140.296 132.91 138.401 134.374 136.425C135.849 134.436 137.04 132.712 137.04 130.713C137.04 128.704 135.843 126.483 132.755 123.474C130.342 121.122 129.425 118.199 129.264 115.486C129.146 113.5 129.434 111.635 129.83 110.207C129.708 110.07 129.589 109.935 129.474 109.801Z" fill="#1C1C2A"/>
<path opacity="0.5" d="M124.935 170.397C124.485 169.875 124.057 169.265 123.723 168.587C122.982 167.081 122.71 165.246 123.677 163.274C124.818 160.95 124.4 158.882 124.016 156.978C123.964 156.723 123.913 156.472 123.867 156.223C123.668 155.16 123.547 154.146 123.759 153.131C123.97 152.122 124.513 151.092 125.681 150.008C126.921 148.858 127.386 147.666 127.479 146.43C127.557 145.395 127.372 144.325 127.186 143.243C127.153 143.054 127.12 142.864 127.089 142.675C126.876 141.387 126.718 140.066 126.998 138.674C127.277 137.286 127.995 135.81 129.564 134.227L129.571 134.22L129.577 134.213C130.665 132.917 130.831 131.166 130.244 129.394C129.673 127.67 128.387 125.906 126.504 124.461C127.044 123.431 127.411 120.97 125.493 117.742C124.245 115.641 123.469 113.79 123.386 112.011C123.326 110.717 123.631 109.446 124.414 108.131C124.237 108.123 124.073 108.105 123.922 108.076C123.172 109.398 122.868 110.698 122.93 112.031C123.018 113.918 123.838 115.844 125.099 117.965C127.04 121.232 126.51 123.59 126.04 124.361C124.611 125.296 122.637 127.083 121.283 129.459C119.978 131.747 119.244 134.591 120.142 137.739C120.067 137.707 119.989 137.675 119.909 137.644C116.862 136.434 115.823 135.041 115.718 133.722C115.612 132.372 116.468 130.989 117.492 129.77C118.524 128.54 119.86 126.677 120.414 124.631C120.973 122.57 120.737 120.314 118.612 118.358C117.035 116.907 116.626 115.037 116.767 113.266C116.908 111.49 117.601 109.834 118.195 108.857L117.803 108.63C117.181 109.654 116.46 111.374 116.312 113.231C116.165 115.093 116.592 117.111 118.299 118.681C120.278 120.503 120.498 122.579 119.973 124.518C119.444 126.471 118.158 128.274 117.139 129.488C116.11 130.713 115.142 132.218 115.264 133.756C115.388 135.326 116.628 136.821 119.737 138.055C119.976 138.15 120.199 138.248 120.406 138.347C121.53 138.887 122.187 139.489 122.53 140.107C122.871 140.722 122.916 141.38 122.763 142.065C122.453 143.455 121.34 144.903 120.327 146.178L120.199 146.339C120.004 146.584 119.815 146.822 119.641 147.048C118.599 148.402 118.112 149.561 118.142 150.742C118.164 151.62 118.473 152.487 119.012 153.43C118.273 152.882 117.532 152.276 116.924 151.585C116.058 150.6 115.476 149.459 115.554 148.082C115.591 147.433 115.774 146.723 116.153 145.943C116.67 144.881 117.036 143.93 117.184 143.095C117.332 142.258 117.263 141.518 116.884 140.902C116.504 140.285 115.836 139.829 114.865 139.514C114.034 139.244 112.966 139.071 111.631 138.992C111.732 139.132 111.8 139.286 111.842 139.452C113.04 139.535 113.988 139.697 114.721 139.935C115.63 140.231 116.188 140.635 116.493 141.13C116.797 141.624 116.871 142.245 116.734 143.019C116.597 143.796 116.251 144.704 115.741 145.753C115.344 146.57 115.143 147.329 115.1 148.037C114.86 149.005 114.505 150.553 114.208 152.084C114.173 152.26 114.14 152.437 114.107 152.613C114.114 152.654 114.119 152.695 114.123 152.736C114.157 153.069 114.248 153.377 114.386 153.663C114.465 153.183 114.556 152.677 114.655 152.166C114.839 151.223 115.044 150.273 115.231 149.457C115.462 150.373 115.96 151.172 116.578 151.874C117.489 152.91 118.677 153.753 119.689 154.471L120.013 154.168C119.108 152.845 118.624 151.778 118.598 150.731C118.571 149.689 118.995 148.627 120.006 147.315C120.079 147.219 120.155 147.122 120.233 147.023C120.205 147.793 120.228 148.798 120.361 149.866C120.541 151.314 120.927 152.899 121.678 154.179C122.351 155.327 122.085 156.682 121.421 157.957C121.421 157.958 121.42 157.959 121.419 157.961C121.551 158.225 121.54 158.514 121.436 158.836C121.576 158.616 121.708 158.389 121.828 158.157C122.518 156.833 122.86 155.3 122.074 153.959C121.365 152.751 120.99 151.232 120.813 149.812C120.642 148.433 120.659 147.165 120.728 146.399C121.717 145.153 122.877 143.646 123.209 142.159C123.38 141.395 123.335 140.624 122.931 139.896C122.539 139.189 121.822 138.548 120.695 137.991C119.667 134.832 120.37 131.976 121.682 129.674C122.966 127.422 124.829 125.711 126.199 124.793C128.035 126.196 129.269 127.897 129.81 129.531C130.362 131.199 130.189 132.777 129.23 133.925C127.611 135.561 126.848 137.11 126.551 138.588C126.254 140.063 126.424 141.45 126.638 142.745C126.671 142.942 126.704 143.136 126.737 143.327C126.924 144.411 127.098 145.42 127.025 146.398C126.939 147.529 126.521 148.616 125.367 149.687C124.14 150.825 123.544 151.933 123.312 153.042C123.082 154.145 123.218 155.228 123.418 156.303C123.466 156.559 123.517 156.814 123.569 157.07C123.952 158.979 124.338 160.899 123.266 163.083C122.227 165.2 122.524 167.178 123.312 168.779C123.575 169.314 123.893 169.808 124.235 170.253C124.461 170.303 124.695 170.35 124.935 170.397Z" fill="#1C1C2A"/>
<path d="M105.855 115.251C108.111 113.731 110.504 112.591 111.1 113.874C112.233 116.312 114.498 114.761 115.178 112.987C115.857 111.214 116.084 111.657 117.217 114.317C117.701 115.456 118.02 114.888 118.458 114.11C119.042 113.07 119.837 111.655 121.521 113.43C122.94 114.925 124.254 113.435 125.488 112.035C126.815 110.53 128.049 109.13 129.223 111.657C129.986 113.3 130.544 115.068 131.068 116.733C131.583 118.364 132.065 119.896 132.68 121.115C132.558 120.531 132.89 120.565 133.074 120.745C134.207 121.853 134.433 120.966 134.66 119.858C134.841 118.971 135.037 116.367 135.113 115.176C131.658 112.705 129.038 109.047 127.798 107.187C123.268 108.296 122.427 108.332 122.2 105.229C117.896 106.115 108.608 109.346 105.89 115.176C105.878 115.201 105.867 115.226 105.855 115.251Z" fill="#1C1C2A"/>
<path d="M132.614 121.602C132.159 120.494 132.614 120.494 132.841 120.715C133.356 121.217 133.684 121.31 133.911 121.159C135.45 122.636 138.984 125.945 140.804 127.363C142.623 128.781 147.325 130.318 149.449 130.909C148.68 129.358 147.215 125.502 147.5 122.488C147.694 121.897 148.357 120.893 149.449 121.602C150.814 122.488 151.041 123.818 151.724 124.926C152.406 126.034 153.088 125.812 153.771 125.812C154.454 125.812 157.184 126.477 158.549 128.25C158.928 128.545 160.005 129.225 161.279 129.579C162.871 130.022 164.919 132.238 164.236 134.454C163.554 136.67 160.823 138.886 159.459 141.324C158.094 143.761 156.046 151.074 148.994 152.404C147.765 152.635 146.633 152.822 145.581 152.964C140.594 153.638 137.4 153.308 134.206 151.997C134.513 151.119 134.46 149.969 133.751 148.415C131.931 144.426 137.618 141.767 138.984 137.778C140.349 133.789 137.164 128.914 135.798 127.142C134.434 125.369 133.069 122.71 132.614 121.602Z" fill="#8CB9FF"/>
<path d="M142.812 128.375C144.103 130.17 146.62 132.676 149.754 132.973C154.409 133.415 155.073 129.221 154.63 127.235C152.635 128.78 149.089 130.104 149.31 127.014C149.341 126.584 149.376 126.175 149.41 125.786C149.568 123.949 149.688 122.549 149.143 121.398C148.178 120.897 147.591 121.823 147.411 122.38C147.134 125.381 148.562 129.222 149.31 130.767C147.795 130.336 144.933 129.4 142.812 128.375Z" fill="#7EAEFA"/>
<path d="M140.839 152.447C140.179 152.276 139.529 152.075 138.88 151.842C139.232 150.965 139.171 149.815 138.359 148.262C137.083 145.82 139.031 143.876 141.093 141.821C142.397 140.521 143.746 139.175 144.352 137.63C145.462 134.798 143.943 131.52 142.41 129.223C144.358 130.308 147.374 131.899 149.562 132.758C152.949 134.086 152.168 136.523 147.738 134.308C145.915 133.422 145.915 136.301 149.562 137.852C153.21 139.402 159.983 139.181 162.328 133.865C164.673 128.549 167.539 129.214 165.715 134.308C163.891 139.402 160.244 144.939 157.378 146.711C155.99 147.569 153.99 147.804 151.942 148.044C149.762 148.301 147.526 148.563 145.915 149.59C143.517 151.119 142.843 152.363 142.791 152.854C142.382 152.788 141.979 152.712 141.583 152.625L140.839 152.447Z" fill="#7EAEFA"/>
<path opacity="0.5" d="M134.171 151.168C134.279 150.388 134.121 149.426 133.554 148.218C132.412 145.784 134.156 143.847 136 141.798C137.167 140.502 138.374 139.16 138.916 137.62C138.997 137.391 139.062 137.159 139.113 136.924L141.714 139.387C143.346 140.932 148.941 141.152 151.739 140.49C149.874 141.595 147.542 141.814 143.113 141.152C138.683 140.489 137.285 142.476 139.849 143.801C142.413 145.126 149.873 143.139 152.438 141.372C150.116 145.17 145.693 145.712 142.454 146.108C142.115 146.149 141.79 146.189 141.481 146.231C140.343 146.385 139.093 146.27 137.975 146.168C135.887 145.977 134.264 145.829 134.72 147.555C135.222 149.459 134.635 150.674 134.171 151.168Z" fill="#70A2F2"/>
<path d="M136.787 84.9294C138.228 79.7874 142.644 79.6841 144.671 80.2752C145.797 80.4868 144.897 77.8374 148.726 77.3941C152.556 76.9508 155.034 79.389 156.16 81.1621C157.286 82.9352 158.188 84.7083 159.99 86.2596C160.891 88.9192 163.819 91.8007 164.495 92.4654C164.495 93.1305 164.756 97.5358 164.756 99.5304C168.586 96.6493 166.973 94.017 167.875 91.5789C168.595 89.6285 168.025 88.402 167.649 88.0327C167.724 86.9983 167.784 84.6195 167.424 83.3785C166.973 81.8268 165.396 81.6054 164.72 81.6054C165.171 80.497 164.72 79.389 164.045 78.9454C163.369 78.5021 162.693 77.3941 161.792 75.621C160.891 73.8479 157.286 70.9666 155.709 70.3017C154.133 69.6367 154.133 68.5286 153.682 68.0853C147.825 62.9876 142.644 65.204 141.517 65.6473C140.391 66.0906 139.715 65.6473 139.265 65.4257C130.479 60.1064 124.847 67.6421 123.27 69.8585C113.809 73.8479 110.43 78.9457 111.106 86.0381C111.781 93.1305 109.754 95.7901 108.177 97.3417C106.6 98.893 107.05 100.445 108.402 102.218C110.88 105.764 106.6 106.207 105.023 107.094C103.446 107.98 104.573 110.418 103.897 111.526C103.221 112.635 103.446 114.851 105.248 116.624C107.951 111.526 115.611 109.31 119.891 108.424C124.171 107.537 128.226 101.553 131.38 98.893C134.534 96.2334 134.985 91.3571 136.787 84.9294Z" fill="#2B2B39"/>
<path opacity="0.5" d="M130.866 99.3852C131.215 94.0094 132.262 87.598 134.442 82.7457C135.783 79.761 137.538 77.3984 139.791 76.2108C141.998 75.0477 144.725 74.9899 148.104 76.666C148.06 76.9984 147.973 77.3133 147.854 77.6073C148.017 77.5631 148.19 77.5238 148.378 77.4905C148.474 77.1964 148.541 76.8848 148.571 76.5577C148.671 75.4441 148.325 74.1783 147.196 72.8532C145.983 71.4286 144.737 70.3359 143.628 69.3634C143.287 69.0654 142.96 68.7786 142.651 68.497C141.701 67.6325 140.917 66.8158 140.402 65.8595C140.182 65.8315 139.99 65.771 139.82 65.7012C140.197 66.5293 140.752 67.2428 141.415 67.929C140.335 67.5017 138.992 67.1111 137.549 66.922C134.682 66.5464 131.378 66.9625 128.979 69.5233C126.464 72.2088 124.359 76.0567 122.658 80.0241C120.956 83.9947 119.652 88.1017 118.745 91.3178C117.846 94.5075 116.33 97.7461 114.316 100.265C112.817 102.14 111.052 103.604 109.07 104.364C109.042 104.56 108.979 104.738 108.889 104.902C111.113 104.146 113.058 102.557 114.672 100.538C116.731 97.9633 118.27 94.6686 119.181 91.4356C120.085 88.2294 121.384 84.1419 123.075 80.1954C124.769 76.2448 126.85 72.4523 129.313 69.8226C131.285 67.7171 133.919 67.1334 136.411 67.262C133.991 68.1728 129.899 70.5494 126.919 75.09C124.801 78.3163 123.558 83.0105 122.322 87.6769L122.224 88.0472C120.947 92.8598 119.655 97.6018 117.419 100.774C115.641 103.297 113.156 104.842 110.764 105.748C108.74 106.514 106.791 106.819 105.412 106.874C105.236 106.948 105.074 107.022 104.934 107.101C104.849 107.148 104.773 107.2 104.703 107.255L104.701 107.322C106.126 107.36 108.475 107.089 110.927 106.161C113.38 105.233 115.949 103.64 117.792 101.026C120.082 97.7755 121.392 92.9473 122.661 88.1584L122.748 87.8333C123.994 83.1296 125.222 78.4949 127.3 75.3293C130.681 70.1774 135.519 67.882 137.532 67.3668C139.025 67.567 140.406 67.9886 141.479 68.4344C138.742 68.5916 134.276 70.0489 132.328 75.1319C131.663 76.868 130.77 79.7105 129.72 83.0511L129.64 83.3042C128.555 86.758 127.304 90.7273 125.962 94.5719C124.619 98.4171 123.187 102.131 121.74 105.074C121.106 106.363 120.471 107.501 119.841 108.435C119.85 108.433 119.859 108.432 119.869 108.43C120.076 108.387 120.283 108.332 120.489 108.267C121.044 107.396 121.598 106.384 122.148 105.266C123.607 102.299 125.046 98.5656 126.39 94.7151C127.735 90.8633 128.988 86.8877 130.073 83.4346L130.148 83.1969C131.202 79.8435 132.092 77.0106 132.752 75.2873C134.854 69.8025 140.013 68.7289 142.402 68.8748C142.703 69.148 143.017 69.4234 143.341 69.7068C144.446 70.6761 145.659 71.7395 146.849 73.1367C147.793 74.2453 148.133 75.2797 148.135 76.1861C144.734 74.5467 141.903 74.5945 139.576 75.821C137.194 77.0766 135.385 79.5448 134.028 82.5672C131.753 87.6307 130.703 94.3402 130.384 99.8416C130.547 99.6835 130.707 99.5311 130.866 99.3852Z" fill="#1C1C2A"/>
<path opacity="0.5" d="M108.745 102.911C111.36 101.975 112.893 99.7067 113.915 96.9332C114.544 95.2277 114.985 93.318 115.367 91.3841C115.519 90.6148 115.662 89.8438 115.803 89.0797C116.018 87.9155 116.23 86.7676 116.469 85.6645C117.587 80.5046 120.924 73.7209 122.977 70.0156C122.748 70.1135 122.523 70.2119 122.301 70.3111C120.228 74.1206 117.109 80.5806 116.027 85.5727C115.787 86.6794 115.572 87.8419 115.355 89.013C115.214 89.7761 115.072 90.5428 114.923 91.3C114.541 93.2282 114.105 95.1109 113.489 96.783C112.48 99.5218 111.003 101.659 108.521 102.518C108.606 102.654 108.68 102.785 108.745 102.911Z" fill="#1C1C2A"/>
<path d="M164.515 93.0589C164.844 93.0846 165.175 93.1014 165.504 93.1107C166.171 93.1295 166.839 93.117 167.48 93.084C167.498 92.9341 167.518 92.7852 167.544 92.6374C166.888 92.673 166.201 92.6875 165.517 92.6684C165.174 92.6588 164.834 92.6407 164.499 92.6133C164.502 92.7265 164.508 92.8773 164.515 93.0589Z" fill="#3A0A44"/>
<path d="M160.177 86.7528C163.092 88.18 165.947 88.5057 167.834 88.4354C167.75 88.277 167.66 88.1572 167.579 88.0773L167.581 88.0456L167.584 87.9997C165.619 88.0357 162.658 87.6314 159.705 86.0078C159.797 86.0926 159.892 86.1768 159.988 86.26C160.044 86.4237 160.107 86.5881 160.177 86.7528Z" fill="#3A0A44"/>
<path opacity="0.5" d="M144.737 70.6677C145.75 69.5258 148.902 67.8387 154.077 68.865C154.16 69.0294 154.255 69.205 154.383 69.3816C149.093 68.2102 145.983 69.9357 145.075 70.9592L144.737 70.6677Z" fill="#1C1C2A"/>
<path opacity="0.5" d="M163.045 81.6698C163.614 81.7744 164.189 81.6962 164.763 81.3503C164.736 81.4526 164.702 81.5559 164.66 81.6589C164.773 81.6589 164.913 81.6651 165.068 81.6833C164.386 82.1176 163.678 82.2361 162.963 82.1048C161.957 81.9199 160.978 81.2466 160.07 80.3795C158.654 79.0273 157.339 77.1291 156.304 75.6336C156.012 75.2111 155.741 74.821 155.497 74.4843C154.673 73.3461 153.287 73.1188 151.814 73.3407C150.345 73.5619 148.857 74.2232 147.938 74.7668L147.707 74.3873C148.659 73.8242 150.203 73.1356 151.746 72.9031C153.284 72.6713 154.891 72.8866 155.863 74.2272C156.117 74.5784 156.395 74.9794 156.693 75.4098C157.727 76.9023 159.003 78.7447 160.382 80.0614C161.27 80.9093 162.171 81.5087 163.045 81.6698Z" fill="#1C1C2A"/>
<path d="M148.176 71.3748C149.53 70.3336 152.915 69.0991 155.622 72.4903C158.331 75.8816 160.964 78.0683 161.941 78.7377M151.335 75.8374C153.366 76.3579 157.744 78.1128 159.008 80.9685C160.587 84.5382 163.521 86.7694 165.778 86.5463M163.972 88.7772C164.349 89.3723 165.417 90.3836 166.681 89.6696M147.047 66.9131C148.025 66.7644 150.252 66.6007 151.335 67.1362" stroke="#151523" stroke-width="0.8"/>
<path d="M142.812 71.28C139.815 71.2061 133.192 73.4082 130.674 82.8075M130 75.0487C128.277 78.2259 124.515 85.911 123.257 91.2313C121.683 97.8817 120.559 106.306 109.32 108.079M111.568 96.7734C112.617 95.1478 114.58 90.9211 114.041 87.0194C113.367 82.1424 114.266 77.4872 118.312 74.8269M136.744 65.7379C132.772 65.4423 124.381 66.802 122.583 74.6051C120.784 82.4084 116.888 92.3397 115.165 96.3298" stroke="#151523" stroke-width="0.8"/>
</g>
<path d="M345.646 78.1543H281.918C279.103 78.1543 276.821 80.436 276.821 83.2511V97.698C276.821 100.513 279.103 102.795 281.918 102.795H333.852L349.75 107.962L345.378 102.795H345.646C348.461 102.795 350.743 100.513 350.743 97.698V83.2511C350.743 80.436 348.461 78.1543 345.646 78.1543Z" fill="#FFBE56"/>
<path fill-rule="evenodd" clip-rule="evenodd" d="M293.911 92.4607C295.227 92.4607 296.295 91.393 296.295 90.0761C296.295 88.7591 295.227 87.6914 293.911 87.6914C292.594 87.6914 291.526 88.7591 291.526 90.0761C291.526 91.393 292.594 92.4607 293.911 92.4607ZM307.423 92.4607C308.74 92.4607 309.808 91.393 309.808 90.0761C309.808 88.7591 308.74 87.6914 307.423 87.6914C306.106 87.6914 305.039 88.7591 305.039 90.0761C305.039 91.393 306.106 92.4607 307.423 92.4607ZM322.923 90.0761C322.923 91.393 321.855 92.4607 320.538 92.4607C319.221 92.4607 318.154 91.393 318.154 90.0761C318.154 88.7591 319.221 87.6914 320.538 87.6914C321.855 87.6914 322.923 88.7591 322.923 90.0761ZM333.654 92.4607C334.97 92.4607 336.038 91.393 336.038 90.0761C336.038 88.7591 334.97 87.6914 333.654 87.6914C332.337 87.6914 331.269 88.7591 331.269 90.0761C331.269 91.393 332.337 92.4607 333.654 92.4607Z" fill="white"/>
<path d="M249.953 389.251C249.953 432.201 284.771 467.018 327.72 467.018C370.67 467.018 405.49 432.201 405.49 389.251C405.49 346.3 370.67 311.482 327.72 311.482C284.771 311.482 249.953 346.3 249.953 389.251Z" fill="white"/>
<path d="M327.72 466.018C285.323 466.018 250.953 431.648 250.953 389.251C250.953 346.853 285.323 312.482 327.72 312.482C370.118 312.482 404.49 346.853 404.49 389.251C404.49 431.648 370.118 466.018 327.72 466.018Z" stroke="#2773D9" stroke-opacity="0.6" stroke-width="2"/>
<path d="M342.525 338.17C334.63 354.537 321.077 344.776 317.964 338.169C324.14 338.167 322.16 325.649 321.274 319.391H339.516C339.171 329.031 341.378 335.927 342.525 338.17Z" fill="#FCC4AC"/>
<path d="M342.525 338.17C334.63 354.537 321.077 344.776 317.964 338.169C324.14 338.167 322.16 325.649 321.274 319.391H339.516C339.171 329.031 341.378 335.927 342.525 338.17Z" fill="url(#paint1_linear_1149_2180)"/>
<path d="M301.017 346.229C300.924 372.986 293.615 443.749 292.532 454.762C291.96 460.588 306.179 465.68 322.101 466.819C342.786 468.299 360.087 461.323 363.82 458.142C364.85 426.339 366.48 356.919 366.48 351.02C358.743 345.507 347.662 340.346 342.525 338.168C332.33 344.485 325.041 342.327 320.254 337.439C313.059 338.783 304.376 344.181 301.017 346.229Z" fill="#33CCCC"/>
<path d="M301.017 346.229C300.924 372.986 293.615 443.749 292.532 454.762C291.96 460.588 306.179 465.68 322.101 466.819C342.786 468.299 360.087 461.323 363.82 458.142C364.85 426.339 366.48 356.919 366.48 351.02C358.743 345.507 347.662 340.346 342.525 338.168C332.33 344.485 325.041 342.327 320.254 337.439C313.059 338.783 304.376 344.181 301.017 346.229Z" fill="url(#paint2_linear_1149_2180)"/>
<path d="M301.017 346.229C300.924 372.986 293.615 443.749 292.532 454.762C291.96 460.588 306.179 465.68 322.101 466.819C342.786 468.299 360.087 461.323 363.82 458.142C364.85 426.339 366.48 356.919 366.48 351.02C358.743 345.507 347.662 340.346 342.525 338.168C332.33 344.485 325.041 342.327 320.254 337.439C313.059 338.783 304.376 344.181 301.017 346.229Z" fill="#33CCCC"/>
<path opacity="0.35" d="M319.238 337.653C319.361 337.624 319.485 337.597 319.603 337.57C320.297 342.027 320.982 348.008 321.218 354.174C321.514 361.928 321.095 370.002 319.061 375.711C316.554 382.763 316.554 391.329 317.185 399.302C317.451 402.711 317.835 406.007 318.189 409.026V409.027V409.038C318.248 409.544 318.307 410.042 318.362 410.532C318.756 413.942 319.076 416.945 319.076 419.262C319.076 419.766 319.076 420.259 319.076 420.744C319.095 424.694 319.11 428.117 318.012 432.171C316.786 436.724 314.161 442.063 308.605 449.864C307.916 450.842 307.753 452.221 307.985 453.849C308.211 455.473 308.822 457.315 309.64 459.186C310.561 461.302 311.738 463.444 312.9 465.336C312.737 465.304 312.57 465.271 312.407 465.238C311.294 463.406 310.181 461.359 309.3 459.335C308.477 457.448 307.852 455.572 307.615 453.901C307.384 452.234 307.532 450.74 308.3 449.65V449.649C313.845 441.866 316.441 436.568 317.652 432.074C318.736 428.071 318.721 424.698 318.706 420.745V420.743C318.706 420.259 318.701 419.766 318.701 419.262C318.701 416.97 318.386 413.99 317.992 410.574C317.938 410.083 317.879 409.583 317.82 409.074V409.07V409.07C317.465 406.051 317.081 402.748 316.81 399.331C316.18 391.349 316.18 382.717 318.711 375.586C320.716 369.948 321.139 361.934 320.844 354.188C320.612 348.049 319.933 342.093 319.238 337.653Z" fill="white"/>
<path opacity="0.35" d="M295.499 459.434C295.676 459.556 295.858 459.677 296.05 459.797C295.321 458.067 294.78 456.374 294.568 454.867C294.341 453.239 294.499 451.859 295.188 450.882C300.744 443.081 303.369 437.742 304.6 433.189C305.693 429.135 305.679 425.712 305.664 421.761V421.753C305.659 421.271 305.659 420.781 305.659 420.28C305.659 417.963 305.344 414.96 304.95 411.549C304.891 411.06 304.832 410.561 304.772 410.056V410.044V410.044C304.418 407.024 304.034 403.729 303.768 400.32C303.137 392.347 303.137 383.781 305.649 376.728C307.678 371.02 308.097 362.946 307.801 355.192C307.634 350.826 307.245 346.553 306.782 342.848C306.664 342.912 306.545 342.977 306.432 343.041C306.885 346.702 307.264 350.909 307.427 355.206C307.722 362.951 307.299 370.965 305.295 376.604C302.763 383.735 302.763 392.367 303.393 400.349C303.664 403.766 304.049 407.069 304.403 410.088V410.088V410.092C304.462 410.6 304.521 411.101 304.58 411.592C304.974 415.007 305.285 417.988 305.285 420.28C305.285 420.783 305.29 421.275 305.29 421.758V421.762C305.304 425.716 305.319 429.089 304.241 433.092C303.024 437.585 300.429 442.884 294.883 450.666V450.667C294.115 451.758 293.967 453.252 294.199 454.919C294.396 456.318 294.868 457.861 295.499 459.434Z" fill="white"/>
<path opacity="0.35" d="M326.305 467.318C325.374 465.724 324.468 464.004 323.724 462.299C322.902 460.413 322.276 458.536 322.045 456.865C321.809 455.198 321.956 453.704 322.725 452.614V452.613C328.27 444.83 330.87 439.532 332.082 435.039C333.161 431.035 333.146 427.662 333.131 423.709V423.707C333.131 423.223 333.126 422.731 333.126 422.227C333.126 419.935 332.816 416.954 332.422 413.539C332.363 413.046 332.304 412.544 332.245 412.035V412.035C331.895 409.016 331.506 405.712 331.24 402.296C330.609 394.313 330.605 385.681 333.141 378.55C335.145 372.912 335.564 364.898 335.273 357.153C335.057 351.534 334.471 346.069 333.84 341.778C333.963 341.755 334.086 341.731 334.205 341.705C334.835 346.011 335.431 351.497 335.643 357.138C335.938 364.893 335.52 372.966 333.491 378.675C330.984 385.727 330.979 394.293 331.609 402.266C331.88 405.675 332.264 408.971 332.614 411.99V411.99C332.673 412.5 332.732 413.002 332.791 413.496C333.185 416.906 333.5 419.909 333.5 422.227C333.5 422.73 333.5 423.223 333.505 423.708C333.52 427.659 333.535 431.081 332.442 435.136C331.21 439.688 328.59 445.028 323.03 452.828C322.34 453.806 322.183 455.185 322.409 456.813C322.641 458.438 323.252 460.279 324.064 462.151C324.837 463.924 325.793 465.717 326.763 467.366C326.61 467.35 326.458 467.334 326.305 467.318Z" fill="white"/>
<path opacity="0.35" d="M341.71 468.288C340.578 466.435 339.445 464.355 338.548 462.298C337.726 460.411 337.101 458.535 336.864 456.864C336.633 455.197 336.78 453.703 337.549 452.613V452.612C343.094 444.829 345.69 439.53 346.906 435.037C347.985 431.034 347.97 427.661 347.955 423.707C347.955 423.223 347.95 422.73 347.95 422.226C347.95 419.933 347.64 416.952 347.246 413.537C347.187 413.045 347.128 412.544 347.069 412.034V412.033C346.719 409.014 346.33 405.711 346.064 402.295C345.429 394.312 345.429 385.68 347.965 378.549C349.969 372.911 350.388 364.897 350.097 357.151C349.866 351.132 349.206 345.289 348.531 340.877C348.664 340.94 348.797 341.005 348.935 341.07C349.6 345.465 350.24 351.215 350.467 357.137C350.762 364.892 350.344 372.965 348.315 378.674C345.808 385.726 345.803 394.292 346.433 402.265C346.704 405.675 347.088 408.97 347.438 411.989V411.996C347.497 412.504 347.556 413.004 347.615 413.495C348.009 416.905 348.325 419.908 348.325 422.226C348.325 422.728 348.325 423.221 348.329 423.705V423.707C348.344 427.657 348.359 431.08 347.266 435.134C346.034 439.687 343.414 445.027 337.854 452.827C337.165 453.804 337.007 455.184 337.233 456.812C337.465 458.436 338.076 460.278 338.888 462.149C339.809 464.263 340.986 466.404 342.149 468.296C342.001 468.293 341.858 468.291 341.71 468.288Z" fill="white"/>
<path opacity="0.35" d="M356.752 467.545C355.777 465.888 354.817 464.085 354.038 462.299C353.216 460.413 352.591 458.536 352.359 456.865C352.123 455.198 352.275 453.704 353.039 452.614L353.044 452.613C358.589 444.83 361.185 439.532 362.396 435.039C363.475 431.035 363.465 427.663 363.45 423.709C363.445 423.224 363.445 422.731 363.445 422.227C363.445 419.935 363.13 416.954 362.736 413.539C362.677 413.047 362.623 412.546 362.564 412.038V412.035C362.209 409.016 361.825 405.712 361.554 402.296C360.924 394.313 360.919 385.681 363.455 378.55C365.459 372.912 365.883 364.898 365.587 357.153C365.494 354.742 365.336 352.361 365.129 350.088C365.267 350.178 365.395 350.268 365.528 350.358C365.72 352.545 365.873 354.829 365.957 357.138C366.252 364.893 365.834 372.966 363.805 378.675C361.298 385.727 361.293 394.293 361.923 402.266C362.194 405.676 362.578 408.971 362.933 411.991C362.992 412.5 363.046 413.002 363.105 413.496C363.499 416.906 363.815 419.909 363.815 422.227C363.815 422.73 363.819 423.223 363.819 423.708C363.834 427.659 363.849 431.081 362.756 435.136C361.524 439.688 358.904 445.028 353.344 452.828C352.659 453.806 352.497 455.185 352.728 456.813C352.955 458.438 353.566 460.279 354.383 462.151C355.171 463.966 356.151 465.801 357.146 467.481C357.018 467.503 356.885 467.525 356.752 467.545Z" fill="white"/>
<path d="M310.212 293.076C309.966 298.681 310.212 312.378 310.212 322.411C310.212 339.37 335.63 326.22 339.516 319.389C347.169 305.935 338.708 293.803 337.093 293.076H310.212Z" fill="url(#paint3_linear_1149_2180)"/>
<path d="M310.212 293.076C309.966 298.681 310.212 312.378 310.212 322.411C310.212 339.37 335.63 326.22 339.516 319.389C347.169 305.935 338.708 293.803 337.093 293.076H310.212Z" fill="#FCC4AC"/>
<path d="M339.919 288.132C345.474 287.077 344.662 291.575 344.342 292.307C357.614 295.964 341.48 322.775 339.5 323.333L339.486 318.33C339.466 316.336 343.366 314.305 341.234 310.801C338.402 306.15 337.787 315.289 337.787 315.289C335.777 314.231 335.048 306.647 336.92 302.355C330.35 305.254 326.041 299.854 325.208 298.312C320.574 301.006 313.472 299.924 311.187 297.706C310.822 298.943 310.098 301.247 310.098 305.282C304.799 302.428 302.066 291.894 304.868 292.856C304.509 271.878 323.022 279.42 325.208 281.913C327.39 284.406 327.907 283.708 328.193 283.521C335.994 279.713 339.786 283.487 339.057 285.891C338.323 288.296 339.702 288.18 339.919 288.132Z" fill="#6E000E"/>
<path d="M230.208 381.937C226.236 382.29 222.786 379.92 223.558 379.652C233.892 376.066 247.783 380.532 255.814 382.996C258.632 388.691 253.954 395.003 251.264 397.447C249.908 396.077 247.103 394.306 245.263 394.306C235.916 393.793 226.921 407.204 217.779 400.528C210.466 395.187 223.018 385.908 230.208 381.937Z" fill="#F4B88E"/>
<path d="M230.208 381.937C226.236 382.29 222.786 379.92 223.558 379.652C233.892 376.066 247.783 380.532 255.814 382.996C258.632 388.691 253.954 395.003 251.264 397.447C249.908 396.077 247.103 394.306 245.263 394.306C235.916 393.793 226.921 407.204 217.779 400.528C210.466 395.187 223.018 385.908 230.208 381.937Z" fill="#FCC4AC"/>
<path d="M301.016 346.227C301.986 364.166 299.046 395.066 296.81 410.79C294.446 416.715 244.134 398.265 245.471 394.698C246.808 391.13 250.156 385.903 251.81 381.704C252.944 378.822 281.903 392.395 282.973 387.526C284.045 382.658 284.869 355.3 301.016 346.227Z" fill="#33CCCC"/>
<path d="M301.016 346.227C301.986 364.166 299.046 395.066 296.81 410.79C294.446 416.715 244.134 398.265 245.471 394.698C246.808 391.13 250.156 385.903 251.81 381.704C252.944 378.822 281.903 392.395 282.973 387.526C284.045 382.658 284.869 355.3 301.016 346.227Z" fill="url(#paint4_linear_1149_2180)"/>
<path d="M301.016 346.227C301.986 364.166 299.046 395.066 296.81 410.79C294.446 416.715 244.134 398.265 245.471 394.698C246.808 391.13 250.156 385.903 251.81 381.704C252.944 378.822 281.903 392.395 282.973 387.526C284.045 382.658 284.869 355.3 301.016 346.227Z" fill="#33CCCC"/>
<path opacity="0.35" fill-rule="evenodd" clip-rule="evenodd" d="M298.61 347.6C294.98 357.375 293.97 371.424 295.61 382.078C296.428 387.392 296.866 392.059 296.162 395.88C295.463 399.687 293.631 402.647 289.896 404.57C288.513 405.282 287.234 405.194 285.887 404.702C284.884 404.336 283.861 403.754 282.737 403.115C282.332 402.884 281.914 402.646 281.478 402.408C278.206 400.619 274.109 398.912 267.992 400.795C263.224 402.262 258.49 400.736 254.716 398.364C250.938 395.989 248.161 392.792 247.31 390.987L246.973 391.146C247.863 393.033 250.699 396.278 254.518 398.679C258.341 401.081 263.19 402.662 268.101 401.151C274.083 399.31 278.071 400.969 281.299 402.735C281.719 402.964 282.128 403.197 282.528 403.424C283.662 404.069 284.725 404.674 285.759 405.051C287.174 405.568 288.566 405.673 290.066 404.901C293.921 402.918 295.812 399.85 296.526 395.947C297.245 392.058 296.792 387.335 295.975 382.021C294.345 371.42 295.354 357.437 298.959 347.729L298.61 347.6ZM290.895 358.442C291.013 357.813 291.123 357.234 291.218 356.713L290.852 356.646C290.757 357.165 290.648 357.742 290.53 358.37C289.89 361.763 288.972 366.63 288.49 371.608C287.92 377.499 287.955 383.593 289.812 387.604C291.995 392.315 291.112 395.573 289.144 397.181C287.163 398.799 284.01 398.813 281.502 396.891C280.144 395.85 277.988 394.576 275.187 394.2C272.38 393.823 268.945 394.349 265.038 396.882C264.039 397.53 262.467 397.642 260.672 397.294C258.885 396.949 256.914 396.154 255.149 395.04C253.382 393.926 251.833 392.499 250.879 390.894C249.926 389.294 249.568 387.524 250.165 385.702L249.811 385.586C249.174 387.531 249.564 389.413 250.559 391.085C251.552 392.753 253.15 394.219 254.95 395.355C256.751 396.491 258.765 397.304 260.601 397.66C262.429 398.014 264.12 397.921 265.24 397.194C269.078 394.706 272.425 394.204 275.137 394.569C277.853 394.933 279.95 396.17 281.275 397.186C283.899 399.197 287.245 399.212 289.38 397.469C291.527 395.715 292.375 392.249 290.15 387.447C288.338 383.537 288.291 377.534 288.861 371.644C289.341 366.684 290.255 361.837 290.895 358.442Z" fill="white"/>
<path d="M251.81 381.703C250.156 385.902 246.808 391.129 245.471 394.697C245.242 395.308 246.528 396.355 248.828 397.642C252.521 394.907 255.715 386.1 256.849 382.039C254.043 381.279 252.088 380.996 251.81 381.703Z" fill="#105CC1"/>
<path d="M355.678 469.344C357.431 468.53 363.346 456.747 366.478 448.553L359.377 442.861C349.389 446.213 345.252 456.207 347.759 455.796C350.265 455.384 350.497 456.738 348.34 459.583C340.051 470.493 353.265 470.466 355.678 469.344Z" fill="#FCC4AC"/>
<path d="M387.449 408.231C391.866 393.668 377.505 359.841 366.478 351.02C366.478 354.621 365.789 371.288 365.415 393.418C371.743 404.757 356.141 439.252 354.683 442.162C353.22 445.072 365.966 455.947 368.049 451.739C370.133 447.531 382.48 424.606 387.449 408.231Z" fill="#33CCCC"/>
<path d="M387.449 408.231C391.866 393.668 377.505 359.841 366.478 351.02C366.478 354.621 365.789 371.288 365.415 393.418C371.743 404.757 356.141 439.252 354.683 442.162C353.22 445.072 365.966 455.947 368.049 451.739C370.133 447.531 382.48 424.606 387.449 408.231Z" fill="url(#paint5_linear_1149_2180)"/>
<path d="M387.449 408.231C391.866 393.668 377.505 359.841 366.478 351.02C366.478 354.621 365.789 371.288 365.415 393.418C371.743 404.757 356.141 439.252 354.683 442.162C353.22 445.072 365.966 455.947 368.049 451.739C370.133 447.531 382.48 424.606 387.449 408.231Z" fill="#33CCCC"/>
<path opacity="0.35" fill-rule="evenodd" clip-rule="evenodd" d="M368.047 360.676C367.451 359.938 366.904 359.262 366.432 358.66L366.136 358.89C366.614 359.499 367.17 360.181 367.771 360.923C369.707 363.311 372.154 366.325 374.223 369.586C376.941 373.865 378.98 378.519 378.409 382.688C378.035 385.379 378.621 388.188 379.576 390.992C380.236 392.935 381.073 394.891 381.896 396.811C382.26 397.658 382.625 398.499 382.965 399.329C384.083 402.048 384.989 404.652 385.137 407.047C385.279 409.431 384.669 411.603 382.743 413.477C379.039 417.091 378.276 420.361 377.542 423.482C377.449 423.889 377.355 424.294 377.252 424.697C376.818 426.438 376.277 428.139 375.109 429.86C373.942 431.581 372.144 433.333 369.185 435.159C368.032 435.868 366.988 437.204 366.097 438.8C365.2 440.4 364.442 442.281 363.876 444.106C363.304 445.931 362.92 447.706 362.772 449.095C362.698 449.789 362.679 450.395 362.733 450.865C362.748 451.013 362.772 451.15 362.807 451.274C361.472 450.515 360.069 449.475 358.813 448.351C358.133 445.267 358.443 441.567 359.61 438.311C360.783 435.033 362.802 432.237 365.496 430.962C367.998 429.779 369.318 428.29 370.027 426.594C370.726 424.91 370.815 423.039 370.879 421.117C370.884 421.038 370.884 420.96 370.889 420.881C370.948 419.023 371.012 417.114 371.583 415.217C372.174 413.248 373.312 411.289 375.572 409.435C377.818 407.595 378.577 405.729 378.434 403.835C378.301 401.961 377.286 400.094 376.084 398.24C375.705 397.655 375.306 397.071 374.912 396.488C374.041 395.208 373.164 393.927 372.489 392.628C371.504 390.743 370.963 388.862 371.44 386.957C373.878 377.238 367.958 370.964 366.097 369.234L365.841 369.506C367.678 371.21 373.464 377.352 371.076 386.866C370.569 388.9 371.16 390.882 372.159 392.8C372.844 394.119 373.74 395.43 374.617 396.72C375.016 397.299 375.405 397.874 375.774 398.443C376.976 400.294 377.936 402.092 378.064 403.862C378.192 405.611 377.513 407.367 375.341 409.146C373.016 411.048 371.839 413.072 371.228 415.111C370.642 417.054 370.578 419.007 370.514 420.856C370.514 420.938 370.509 421.022 370.509 421.104C370.44 423.036 370.352 424.84 369.682 426.451C369.017 428.05 367.766 429.476 365.338 430.625C362.521 431.958 360.448 434.855 359.261 438.186C358.069 441.519 357.744 445.317 358.463 448.491L358.478 448.549L358.522 448.589C359.98 449.899 361.645 451.106 363.181 451.904L363.378 451.587C363.324 451.55 363.265 451.477 363.216 451.345C363.166 451.214 363.127 451.04 363.102 450.824C363.053 450.391 363.068 449.816 363.142 449.135C363.284 447.775 363.664 446.024 364.23 444.217C364.792 442.41 365.54 440.553 366.422 438.982C367.303 437.405 368.308 436.135 369.382 435.475C372.371 433.629 374.213 431.843 375.42 430.069C376.621 428.295 377.178 426.544 377.616 424.787C377.715 424.38 377.813 423.973 377.907 423.564C378.636 420.452 379.379 417.279 383.004 413.744C385.018 411.782 385.654 409.498 385.506 407.024C385.358 404.562 384.427 401.909 383.309 399.187C382.965 398.346 382.6 397.499 382.231 396.648C381.413 394.735 380.581 392.801 379.926 390.872C378.98 388.089 378.414 385.346 378.774 382.738C379.369 378.429 377.262 373.676 374.538 369.386C372.455 366.105 369.987 363.066 368.047 360.676Z" fill="white"/>
<path d="M361.648 424.938C365.568 413.621 368.991 399.826 365.415 393.42C375.019 400.153 367.725 415.219 361.648 424.938Z" fill="#105CC1"/>
<path d="M354.683 442.163C353.22 445.073 365.966 455.949 368.049 451.74C368.212 451.416 368.433 450.981 368.704 450.446C365.651 449.764 358.776 446.725 355.673 440.027C355.195 441.094 354.846 441.833 354.683 442.163Z" fill="#33CCCC"/>
<path d="M354.683 442.163C353.22 445.073 365.966 455.949 368.049 451.74C368.212 451.416 368.433 450.981 368.704 450.446C365.651 449.764 358.776 446.725 355.673 440.027C355.195 441.094 354.846 441.833 354.683 442.163Z" fill="url(#paint6_linear_1149_2180)"/>
<path d="M354.683 442.163C353.22 445.073 365.966 455.949 368.049 451.74C368.212 451.416 368.433 450.981 368.704 450.446C365.651 449.764 358.776 446.725 355.673 440.027C355.195 441.094 354.846 441.833 354.683 442.163Z" fill="#105CC1"/>
<path d="M264.173 307.764H200.445C197.63 307.764 195.348 310.045 195.348 312.861V327.307C195.348 330.122 197.63 332.404 200.445 332.404H252.38L268.277 337.571L263.905 332.404H264.173C266.988 332.404 269.27 330.122 269.27 327.307V312.861C269.27 310.045 266.988 307.764 264.173 307.764Z" fill="#8BBAFA"/>
<path fill-rule="evenodd" clip-rule="evenodd" d="M212.438 322.07C213.755 322.07 214.822 321.002 214.822 319.685C214.822 318.369 213.755 317.301 212.438 317.301C211.121 317.301 210.053 318.369 210.053 319.685C210.053 321.002 211.121 322.07 212.438 322.07ZM225.95 322.07C227.267 322.07 228.335 321.002 228.335 319.685C228.335 318.369 227.267 317.301 225.95 317.301C224.633 317.301 223.566 318.369 223.566 319.685C223.566 321.002 224.633 322.07 225.95 322.07ZM241.45 319.685C241.45 321.002 240.382 322.07 239.065 322.07C237.749 322.07 236.681 321.002 236.681 319.685C236.681 318.369 237.749 317.301 239.065 317.301C240.382 317.301 241.45 318.369 241.45 319.685ZM252.181 322.07C253.498 322.07 254.565 321.002 254.565 319.685C254.565 318.369 253.498 317.301 252.181 317.301C250.864 317.301 249.796 318.369 249.796 319.685C249.796 321.002 250.864 322.07 252.181 322.07Z" fill="white"/>
<defs>
<filter id="filter0_d_1149_2180" x="0" y="0.861328" width="277.96" height="277.961" filterUnits="userSpaceOnUse" color-interpolation-filters="sRGB">
<feFlood flood-opacity="0" result="BackgroundImageFix"/>
<feColorMatrix in="SourceAlpha" type="matrix" values="0 0 0 0 0 0 0 0 0 0 0 0 0 0 0 0 0 0 127 0" result="hardAlpha"/>
<feOffset dy="-17"/>
<feGaussianBlur stdDeviation="29"/>
<feColorMatrix type="matrix" values="0 0 0 0 0.696557 0 0 0 0 0.836898 0 0 0 0 0.818186 0 0 0 0.05 0"/>
<feBlend mode="normal" in2="BackgroundImageFix" result="effect1_dropShadow_1149_2180"/>
<feBlend mode="normal" in="SourceGraphic" in2="effect1_dropShadow_1149_2180" result="shape"/>
</filter>
<linearGradient id="paint0_linear_1149_2180" x1="461.6" y1="95.7498" x2="464.812" y2="115.555" gradientUnits="userSpaceOnUse">
<stop stop-color="#F4AF8A"/>
<stop offset="1" stop-color="#F9C0A1" stop-opacity="0"/>
</linearGradient>
<linearGradient id="paint1_linear_1149_2180" x1="325.229" y1="333.268" x2="333.266" y2="337.373" gradientUnits="userSpaceOnUse">
<stop stop-color="#F3AD8F"/>
<stop offset="1" stop-color="#FCC4AC" stop-opacity="0"/>
</linearGradient>
<linearGradient id="paint2_linear_1149_2180" x1="354.537" y1="440.783" x2="334.433" y2="430.501" gradientUnits="userSpaceOnUse">
<stop stop-color="#026CF0"/>
<stop offset="1" stop-color="#307FE2" stop-opacity="0"/>
</linearGradient>
<linearGradient id="paint3_linear_1149_2180" x1="307.627" y1="315.989" x2="323.461" y2="317.76" gradientUnits="userSpaceOnUse">
<stop stop-color="#FEA568"/>
<stop offset="1" stop-color="#F4B88E"/>
</linearGradient>
<linearGradient id="paint4_linear_1149_2180" x1="278.295" y1="410.877" x2="279.335" y2="402.264" gradientUnits="userSpaceOnUse">
<stop stop-color="#0154F7"/>
<stop offset="1" stop-color="#307FE2" stop-opacity="0"/>
</linearGradient>
<linearGradient id="paint5_linear_1149_2180" x1="386.631" y1="411.212" x2="379.46" y2="408.185" gradientUnits="userSpaceOnUse">
<stop stop-color="#0071FF"/>
<stop offset="1" stop-color="#307FE2" stop-opacity="0"/>
</linearGradient>
<linearGradient id="paint6_linear_1149_2180" x1="386.631" y1="411.213" x2="379.46" y2="408.186" gradientUnits="userSpaceOnUse">
<stop stop-color="#0071FF"/>
<stop offset="1" stop-color="#307FE2" stop-opacity="0"/>
</linearGradient>
</defs>
</svg>
