<svg width="106" height="106" viewBox="0 0 106 106" fill="none" xmlns="http://www.w3.org/2000/svg">
<g filter="url(#filter0_d_1150_2362)">
<rect x="20" y="10" width="66" height="66" rx="24" fill="url(#paint0_linear_1150_2362)"/>
</g>
<path d="M36.5 57.9998C36.5 54.8172 37.7643 51.7649 40.0147 49.5145C42.2652 47.2641 45.3174 45.9998 48.5 45.9998C51.6826 45.9998 54.7348 47.2641 56.9853 49.5145C59.2357 51.7649 60.5 54.8172 60.5 57.9998H36.5ZM48.5 44.4998C43.5275 44.4998 39.5 40.4723 39.5 35.4998C39.5 30.5273 43.5275 26.4998 48.5 26.4998C53.4725 26.4998 57.5 30.5273 57.5 35.4998C57.5 40.4723 53.4725 44.4998 48.5 44.4998ZM62.369 29.7758C63.1182 31.591 63.5025 33.536 63.5 35.4998C63.5025 37.4635 63.1182 39.4085 62.369 41.2238L59.8535 39.3938C60.2827 38.1404 60.5012 36.8246 60.5 35.4998C60.5017 34.1751 60.2837 32.8592 59.855 31.6058L62.369 29.7758ZM67.322 26.1758C68.7593 29.0735 69.5048 32.2652 69.5 35.4998C69.5 38.8493 68.7155 42.0158 67.322 44.8238L64.8545 43.0298C65.9423 40.6687 66.5038 38.0994 66.5 35.4998C66.5 32.8118 65.9105 30.2603 64.8545 27.9698L67.322 26.1758Z" fill="white"/>
<defs>
<filter id="filter0_d_1150_2362" x="0" y="0" width="106" height="106" filterUnits="userSpaceOnUse" color-interpolation-filters="sRGB">
<feFlood flood-opacity="0" result="BackgroundImageFix"/>
<feColorMatrix in="SourceAlpha" type="matrix" values="0 0 0 0 0 0 0 0 0 0 0 0 0 0 0 0 0 0 127 0" result="hardAlpha"/>
<feMorphology radius="2" operator="erode" in="SourceAlpha" result="effect1_dropShadow_1150_2362"/>
<feOffset dy="10"/>
<feGaussianBlur stdDeviation="11"/>
<feColorMatrix type="matrix" values="0 0 0 0 0.427083 0 0 0 0 0.671455 0 0 0 0 1 0 0 0 0.36 0"/>
<feBlend mode="normal" in2="BackgroundImageFix" result="effect1_dropShadow_1150_2362"/>
<feBlend mode="normal" in="SourceGraphic" in2="effect1_dropShadow_1150_2362" result="shape"/>
</filter>
<linearGradient id="paint0_linear_1150_2362" x1="33.5" y1="10" x2="65" y2="76" gradientUnits="userSpaceOnUse">
<stop stop-color="#9BF7F7"/>
<stop offset="1" stop-color="#33CCCC"/>
</linearGradient>
</defs>
</svg>
