<svg width="608" height="455" viewBox="0 0 608 455" fill="none" xmlns="http://www.w3.org/2000/svg">
<path d="M131.537 402.826C117.792 395.224 110.827 379.435 105.264 364.583C70.129 270.808 61.275 157.361 147.679 88.3073C181.032 61.6481 228.285 44.2216 271.031 49.6664C278.711 50.6447 286.478 52.5367 292.87 56.9692C302.317 63.5174 307.61 74.9265 309.381 86.4001C314.507 119.63 303.685 152.246 297.89 184.589C293.523 208.954 287.656 255.08 311.653 272.01C316.612 275.506 322.673 276.962 328.635 277.94C366.559 284.158 404.833 270.231 442.149 282.179C489.284 297.27 518.301 352.628 504.435 401.15" fill="#F7F7F9"/>
<path d="M80.4916 399.428L545.334 400.065" stroke="black" stroke-width="2" stroke-miterlimit="10"/>
<path opacity="0.5" d="M120.399 171.959C120.202 172.501 112.431 184.066 110.033 187.63C109.66 188.18 108.843 188.305 108.292 187.899L86.7312 171.959H120.399Z" fill="#CCCDCE"/>
<path opacity="0.5" d="M71.9568 172.741L166.866 173.514C167.531 173.518 168.006 172.942 167.804 172.377L142.5 101.814C142.371 101.453 141.995 101.207 141.573 101.207H52.3374C51.7028 101.207 51.2392 101.742 51.3912 102.291L71.022 172.085C71.1284 172.468 71.5122 172.737 71.9568 172.741Z" fill="#CCCDCE"/>
<path d="M75.2894 171.565L170.198 172.327C170.863 172.331 171.338 171.766 171.137 171.209L145.836 101.677C145.707 101.321 145.331 101.082 144.909 101.082H55.67C55.0354 101.082 54.5718 101.609 54.7238 102.147L74.3546 170.917C74.461 171.292 74.8448 171.562 75.2894 171.565Z" fill="white" stroke="black" stroke-miterlimit="10"/>
<path d="M122.398 171.805C122.2 172.332 114.429 183.521 112.032 186.975C111.659 187.51 110.842 187.631 110.291 187.233L88.73 171.805H122.398Z" fill="white" stroke="black" stroke-miterlimit="10"/>
<path d="M84.5044 163.876L155.424 163.917C156.442 163.917 157.176 163.057 156.887 162.196L145.217 127.438C145.027 126.865 144.43 126.475 143.754 126.475L75.3274 126.592C74.347 126.592 73.6212 127.4 73.8454 128.242L83.0224 162.841C83.182 163.447 83.7976 163.876 84.5044 163.876Z" fill="white" stroke="black" stroke-miterlimit="10"/>
<path d="M65.4778 119.594L93.0278 120.011" stroke="black" stroke-miterlimit="10"/>
<path d="M66.8914 114.619L84.7856 114.824" stroke="black" stroke-miterlimit="10"/>
<path d="M140.984 133.439H129.683" stroke="#F7B525" stroke-width="2" stroke-miterlimit="10"/>
<path d="M116.322 133.394L124.032 133.262" stroke="#F7B525" stroke-width="2" stroke-miterlimit="10"/>
<path d="M110.846 133.439L84.7096 133.853" stroke="#F7B525" stroke-width="2" stroke-miterlimit="10"/>
<path d="M142.633 140.076L121.912 140.281" stroke="#00162C" stroke-width="2" stroke-miterlimit="10"/>
<path d="M115.083 140.488L87.3012 140.697" stroke="#00162C" stroke-width="2" stroke-miterlimit="10"/>
<path d="M117.557 148.729H90.0106" stroke="#1B236D" stroke-width="2" stroke-miterlimit="10"/>
<path d="M141.193 104.232L136.952 110.659" stroke="black" stroke-miterlimit="10"/>
<path d="M142.838 110.247L135.774 104.646" stroke="black" stroke-miterlimit="10"/>
<path d="M155.583 119.961L171.122 119.752L176.065 137.379H160.763" stroke="black" stroke-miterlimit="10"/>
<path d="M168.763 129.811C170.03 129.545 170.739 127.824 170.347 125.967C169.956 124.111 168.611 122.822 167.344 123.088C166.077 123.354 165.367 125.075 165.759 126.932C166.151 128.788 167.496 130.077 168.763 129.811Z" stroke="black" stroke-miterlimit="10"/>
<path d="M67.8925 111.07C68.9905 110.807 69.6083 109.46 69.2724 108.061C68.9365 106.662 67.774 105.741 66.676 106.003C65.5779 106.266 64.9601 107.613 65.296 109.012C65.632 110.411 66.7945 111.332 67.8925 111.07Z" fill="#4F71BA" stroke="black" stroke-miterlimit="10"/>
<path d="M74.2571 110.937C75.3551 110.674 75.9729 109.327 75.637 107.928C75.301 106.529 74.1386 105.608 73.0405 105.87C71.9425 106.133 71.3247 107.48 71.6606 108.879C71.9965 110.278 73.159 111.199 74.2571 110.937Z" fill="#F23645" stroke="black" stroke-miterlimit="10"/>
<path d="M81.7282 110.872C82.8263 110.61 83.4441 109.263 83.1082 107.864C82.7722 106.465 81.6098 105.543 80.5117 105.806C79.4137 106.068 78.7959 107.415 79.1318 108.814C79.4677 110.214 80.6302 111.135 81.7282 110.872Z" fill="#DE9A46" stroke="black" stroke-miterlimit="10"/>
<path d="M169.256 76.4623C174.146 76.4623 178.11 72.2914 178.11 67.1462C178.11 62.001 174.146 57.8301 169.256 57.8301C164.366 57.8301 160.402 62.001 160.402 67.1462C160.402 72.2914 164.366 76.4623 169.256 76.4623Z" fill="#FF6666"/>
<path d="M166.892 76.4623C171.782 76.4623 175.746 72.2914 175.746 67.1462C175.746 62.001 171.782 57.8301 166.892 57.8301C162.002 57.8301 158.038 62.001 158.038 67.1462C158.038 72.2914 162.002 76.4623 166.892 76.4623Z" stroke="black" stroke-miterlimit="10"/>
<path d="M551.528 350.319C557.211 350.319 561.819 345.478 561.819 339.505C561.819 333.533 557.211 328.691 551.528 328.691C545.845 328.691 541.238 333.533 541.238 339.505C541.238 345.478 545.845 350.319 551.528 350.319Z" stroke="#6836C4" stroke-miterlimit="10"/>
<path d="M308.507 249.155C310.733 249.155 312.539 247.148 312.539 244.673C312.539 242.198 310.733 240.191 308.507 240.191C306.28 240.191 304.475 242.198 304.475 244.673C304.475 247.148 306.28 249.155 308.507 249.155Z" stroke="black" stroke-miterlimit="10"/>
<path d="M388.432 83.7695L388.185 90.5528L387.942 97.3323L382.337 93.4117L376.736 89.4912L382.584 86.6322L388.432 83.7695Z" stroke="black" stroke-miterlimit="10"/>
<path d="M49.0238 207.59L55.3204 209.774L61.617 211.958L56.5592 216.625L51.5052 221.297L50.2626 214.441L49.0238 207.59Z" fill="#FFC631"/>
<path d="M401.823 283.295C403.811 283.295 405.422 281.599 405.422 279.507C405.422 277.415 403.811 275.719 401.823 275.719C399.836 275.719 398.225 277.415 398.225 279.507C398.225 281.599 399.836 283.295 401.823 283.295Z" fill="#24ABFC"/>
<path d="M84.0788 299.742L76.5738 287.882L87.9168 280.488L95.4218 292.352L84.0788 299.742Z" stroke="black" stroke-miterlimit="10"/>
<path d="M143.169 400.313H127.912C127.334 400.313 126.84 399.937 126.734 399.418L121.406 373.104C121.269 372.432 121.836 371.811 122.584 371.811H146.832C147.554 371.811 148.113 372.387 148.021 373.043L144.358 399.357C144.282 399.903 143.773 400.313 143.169 400.313Z" fill="white" stroke="black" stroke-miterlimit="10"/>
<path d="M125.867 382.105L128.144 395.452C128.242 396.028 128.786 396.456 129.428 396.456H141.409C142.025 396.456 142.553 396.066 142.679 395.52C143.591 391.588 146.881 376.649 144.073 377.29C142.827 377.574 132.206 379.728 127.6 380.08C126.491 380.164 125.696 381.1 125.867 382.105Z" fill="#C4E2FA"/>
<path opacity="0.26" d="M128.379 364.735C127.729 361.22 129.238 357.667 131.1 354.611C132.958 351.555 135.227 348.685 136.359 345.291C137.549 341.727 136.868 338.178 134.512 335.331C135.044 335.3 135.675 335.418 136.021 335.96C137.974 339.027 140.064 343.073 138.525 346.755C137.746 348.617 136.207 350.285 135.082 351.953C133.783 353.879 132.548 355.862 131.632 358.001C130.135 361.497 129.827 365.103 130.773 368.765C129.322 368.034 128.668 366.32 128.379 364.735Z" fill="#A4A5A5"/>
<path opacity="0.26" d="M135.379 365.554C135.428 363.306 136.796 361.308 138.316 359.666C139.836 358.024 141.584 356.545 142.701 354.6C143.876 352.557 143.91 350.282 142.831 348.223C143.157 348.272 143.53 348.424 143.67 348.803C144.476 350.945 145.24 353.709 143.838 355.779C143.127 356.826 141.976 357.656 141.079 358.54C140.041 359.56 139.038 360.621 138.21 361.823C136.853 363.784 136.211 365.968 136.325 368.349C135.535 367.708 135.356 366.567 135.379 365.554Z" fill="#A4A5A5"/>
<path d="M126.179 388.562L123.663 373.828C123.599 373.627 123.853 373.441 124.192 373.437L131.032 373.361" stroke="#070707" stroke-miterlimit="10" stroke-linecap="round"/>
<path d="M126.43 389.93L126.707 391.617" stroke="#070707" stroke-miterlimit="10" stroke-linecap="round" stroke-linejoin="round"/>
<path d="M332.249 336.615L359.871 399.792L321.928 400.179L300.895 349.901L298.266 343.319L332.249 336.615Z" fill="white" stroke="black" stroke-miterlimit="10"/>
<path d="M332.682 336.615C316.103 340.744 305.797 348.923 300.683 354.049C286.972 312.576 273.057 262.958 273.057 262.958C273.057 262.958 298.498 260.16 301.534 264.156C303.457 266.685 320.473 307.249 332.682 336.615Z" fill="#33CCCC"/>
<path d="M232.993 266.679L273.057 262.959C273.057 262.959 314.085 339.668 314.465 346.057C314.845 352.45 289.621 399.156 289.621 399.156L191.509 398.708L215.73 295.317L232.993 266.679Z" fill="#33CCCC"/>
<path d="M228.41 222.229L232.993 266.678C232.993 266.678 245.944 287.438 260.889 283.453C273.547 280.078 272.247 261.438 272.247 261.438L268.861 237.536C268.861 237.532 229.007 214.679 228.41 222.229Z" fill="white" stroke="black" stroke-miterlimit="10"/>
<path d="M229.178 222.084C229.178 222.084 240.776 239.757 257.971 240.599C275.166 241.441 286.63 213.246 285.695 201.746C284.761 190.246 267.034 161.911 253.836 161.63C240.639 161.349 216.513 180.005 216.114 188.983C215.715 197.962 214.78 208.761 219.18 213.25C223.577 217.735 229.178 222.084 229.178 222.084Z" fill="white" stroke="black" stroke-miterlimit="10"/>
<path d="M248.976 168.66C248.03 179.606 242.881 190.905 233.411 195.546C232.735 195.876 231.998 196.18 231.264 196.051C230.755 195.963 230.299 195.679 229.854 195.398C228.319 194.435 226.735 193.491 224.983 193.108C223.235 192.725 221.266 192.991 219.925 194.234C218.876 195.209 218.329 196.657 218.044 198.102C216.794 204.491 220.335 211.225 225.598 214.675C227.187 215.718 228.98 216.564 229.797 218.505C230.219 219.506 230.132 220.704 229.448 221.531C228.095 223.157 225.644 222.137 223.953 220.985C220.392 218.558 216.927 215.79 214.563 212.082C210.995 206.478 210.338 199.399 210.296 192.653C210.22 180.44 211.744 166.491 218.834 156.363C225.321 147.1 236.679 143.161 247.296 143.388C256.823 143.593 266.574 146.96 273.235 154.126C279.418 160.777 282.986 169.733 285.217 178.609C286.322 183.007 287.101 187.497 287.614 192.013C287.865 194.215 288.036 196.422 288.078 198.644C288.124 201.003 287.413 203.964 287.569 206.368C287.573 206.409 287.519 206.417 287.508 206.375C286.007 199.042 281.158 192.816 275.489 188.221C269.61 183.455 262.808 180.152 256.291 176.421C253.148 174.624 249.713 172.394 248.976 168.66Z" fill="#020202"/>
<path d="M225.348 149.459C233.888 147.727 239.214 138.487 237.245 128.821C235.276 119.156 226.757 112.724 218.218 114.456C209.678 116.188 204.352 125.428 206.321 135.093C208.29 144.759 216.809 151.191 225.348 149.459Z" fill="#020202"/>
<path d="M229.163 147.692C233.328 147.169 237.291 145.011 240.099 141.732C241.935 139.589 243.276 137.007 244.207 134.292C245.263 131.206 245.799 127.793 244.929 124.643" stroke="black" stroke-miterlimit="10"/>
<path d="M226.381 149.14C220.685 151.642 213.727 150.619 208.897 146.569C204.068 142.52 201.575 135.607 202.624 129.207" stroke="black" stroke-miterlimit="10"/>
<path d="M248.854 167.352C249.151 173.323 248.767 179.398 246.225 184.846C243.629 190.409 239.37 195.459 235.342 199.922" stroke="black" stroke-miterlimit="10"/>
<path d="M221.544 201.256C221.544 201.256 221.544 206.34 227.183 208.46" stroke="black" stroke-miterlimit="10"/>
<path d="M295.169 302.305L314.465 346.057C314.465 346.057 314.347 349.386 312.957 352.313" stroke="white" stroke-miterlimit="10"/>
<path d="M317.984 393.521C316.149 394.45 311.847 381.501 311.847 381.501C311.847 381.501 300.975 367.002 298.71 367.157C296.636 367.301 304.065 385.892 305.36 389.1C305.467 389.361 305.345 389.653 305.091 389.748C304.494 389.972 303.263 390.412 301.089 391.083C297.738 392.118 296.438 389.801 294.249 391.159C292.06 392.516 285.897 391.344 285.897 391.344L284.031 391.871L277.651 393.123C277.651 393.123 274.136 391.761 271.784 390.719C269.431 389.68 270.104 388.425 270.104 388.425L276.864 387.151L276.161 376.758L271.457 374.676C246.567 385.619 157.624 403.106 147.717 403.447C147.06 403.47 146.566 402.826 146.729 402.154C148.037 396.744 155.253 372.693 161.238 348.832C167.447 344.949 198.786 337.222 204.942 344.449L201.879 357.849C201.879 357.849 282.652 343.376 286.433 343.114C290.221 342.849 304.874 357.087 304.874 357.087C304.874 357.087 317.342 378.297 317.828 379.871C318.307 381.448 319.823 392.588 317.984 393.521Z" fill="white" stroke="black" stroke-miterlimit="10"/>
<path d="M285.228 391.322L285.346 377.009L283.077 372.971" fill="white"/>
<path d="M285.228 391.322L285.346 377.009L283.077 372.971" stroke="black" stroke-miterlimit="10"/>
<path d="M295.161 390.817L294.378 376.567L292.524 370.592" fill="white"/>
<path d="M295.161 390.817L294.378 376.567L292.524 370.592" stroke="black" stroke-miterlimit="10"/>
<path d="M276.807 387.193L276.982 388.373" stroke="black" stroke-miterlimit="10"/>
<path d="M313.249 339.963C313.249 339.963 324.904 332.763 329.718 334.048" stroke="white" stroke-miterlimit="10"/>
<path d="M232.712 266.901L216.938 314.062L207.609 345.237C182.776 340.304 167.31 345.703 160.805 349.142C172.55 313.205 186.956 270.977 189.419 269.604C195.149 266.404 232.712 266.901 232.712 266.901Z" fill="#33CCCC"/>
<path d="M204.98 344.856C204.98 344.856 212.804 314.882 214.214 314.029" stroke="white" stroke-miterlimit="10"/>
<path d="M163.902 344.737C163.902 344.737 186.143 336.27 204.071 342.507" stroke="white" stroke-miterlimit="10"/>
<path d="M229.797 269.381C236.858 283.524 251.936 291.851 263.465 287.896C271.689 285.075 274.846 276.646 276.135 266.686" stroke="white" stroke-miterlimit="10"/>
<path d="M202.772 357.678C202.772 357.678 194.032 358.353 188.119 365.652" stroke="black" stroke-miterlimit="10"/>
<path d="M465.519 312.944L458.31 392.118C457.923 396.391 454.567 399.648 450.562 399.648L350.147 399.614C345.526 399.614 341.913 395.325 342.38 390.392L349.798 312.705C350.2 308.485 353.484 305.266 357.432 305.209L457.645 303.757C462.293 303.692 465.971 307.98 465.519 312.944Z" fill="#EAF4FE" stroke="#0A0A0A" stroke-miterlimit="10"/>
<path d="M453.12 408.009L268.288 406.997C266.106 406.985 264.347 405.211 264.358 403.035V402.928C264.37 400.752 266.148 398.993 268.333 399.004L453.165 400.016C455.346 400.028 457.106 401.802 457.094 403.979V404.085C457.079 406.261 455.301 408.021 453.12 408.009Z" fill="#C7E1F8" stroke="#020202" stroke-miterlimit="10"/>
<path d="M336 407.209L268.565 406.838C266.391 406.826 264.636 405.059 264.647 402.887V402.78C264.659 400.608 266.429 398.86 268.607 398.871L336.042 399.243C338.215 399.254 339.971 401.021 339.959 403.19V403.296C339.948 405.469 338.177 407.22 336 407.209Z" fill="white" stroke="black" stroke-miterlimit="10"/>
<path d="M415.998 339.854C418.222 338.657 419.651 336.995 419.19 336.142C418.728 335.288 416.552 335.566 414.328 336.763C412.103 337.96 410.674 339.622 411.135 340.475C411.597 341.328 413.773 341.05 415.998 339.854Z" fill="#FCFFFF"/>
<path d="M276.815 403.068L302.978 403.22" stroke="#92BBF4" stroke-miterlimit="10"/>
<path d="M316 402.719L322.183 402.76" stroke="#0A0A0A" stroke-miterlimit="10"/>
<path d="M326.173 402.943L331.979 402.993" stroke="#0A0A0A" stroke-miterlimit="10"/>
<path opacity="0.68" d="M450.562 399.649L350.147 399.614C345.526 399.614 341.913 395.326 342.38 390.393L349.798 312.706C350.2 308.485 353.484 305.266 357.432 305.209L378.678 304.902C384.397 314.829 395.538 335.349 398.867 350.114C403.412 370.278 421.036 399.52 450.562 399.649Z" fill="#C6E2FA"/>
<path d="M349.877 388.858L357.66 313.316C357.808 311.887 358.925 310.799 360.267 310.78L390.549 310.34" stroke="#0A0A0A" stroke-miterlimit="10"/>
<path d="M406.214 361.874C411.194 361.816 415.178 357.326 415.113 351.846C415.049 346.367 410.959 341.972 405.979 342.031C401 342.089 397.015 346.579 397.08 352.059C397.145 357.538 401.234 361.933 406.214 361.874Z" fill="#FCFFFF"/>
<path d="M147.809 246.067H111.796C110.109 246.067 108.741 244.702 108.741 243.019V221.683C108.741 220 110.109 218.635 111.796 218.635H147.809C149.496 218.635 150.864 220 150.864 221.683V243.019C150.864 244.702 149.496 246.067 147.809 246.067Z" fill="white" stroke="#020202" stroke-miterlimit="10"/>
<path d="M137.423 261.432H100.274C98.2794 261.432 96.6606 259.817 96.6606 257.826V233.76C96.6606 231.77 98.2794 230.154 100.274 230.154H137.423C139.418 230.154 141.037 231.77 141.037 233.76V257.826C141.033 259.82 139.418 261.432 137.423 261.432Z" fill="#05CDCD"/>
<path d="M101.813 234.977V255.785H134.155" stroke="white" stroke-miterlimit="10"/>
<path d="M107.339 244.369H104.853V255.593H107.339V244.369Z" fill="white" stroke="white" stroke-miterlimit="10"/>
<path d="M113.392 241.184H110.599V255.592H113.392V241.184Z" fill="white" stroke="white" stroke-miterlimit="10"/>
<path d="M119.913 238.453H116.808V255.591H119.913V238.453Z" fill="white" stroke="white" stroke-miterlimit="10"/>
<path d="M125.97 244.066H122.865V255.593H125.97V244.066Z" fill="white" stroke="white" stroke-miterlimit="10"/>
<path d="M330.589 91.7311L304.977 98.0367C304.631 98.1239 304.281 97.9078 304.198 97.5552L300.865 83.6056C300.782 83.253 300.994 82.9004 301.34 82.8132L326.952 76.5076C327.298 76.4204 327.648 76.6365 327.731 76.9892L331.064 90.9387C331.147 91.2913 330.934 91.6439 330.589 91.7311Z" fill="#FF6666"/>
<path d="M301.131 83.2787L314.822 86.0769L326.899 76.4727" stroke="white" stroke-miterlimit="10"/>
<path d="M516.735 153.709H486.712V172.622H516.735V153.709Z" stroke="#B1B0B5" stroke-miterlimit="10"/>
<path d="M486.712 172.621H472.61" stroke="#B1B0B5" stroke-miterlimit="10"/>
<path d="M516.739 172.621L535.39 173.163" stroke="#B1B0B5" stroke-miterlimit="10"/>
<path d="M490.352 173.703V187.213" stroke="#B1B0B5" stroke-miterlimit="10"/>
<path d="M480.799 188.836H512.191" stroke="#B1B0B5" stroke-miterlimit="10"/>
<path d="M522.196 175.326V190.997" stroke="#B1B0B5" stroke-miterlimit="10"/>
<path d="M507.52 271.456H463.266C457.265 271.456 452.401 266.603 452.401 260.616V260.43C452.401 254.443 457.265 249.59 463.266 249.59H507.52C513.521 249.59 518.385 254.443 518.385 260.43V260.616C518.385 266.599 513.521 271.456 507.52 271.456Z" fill="#FFC53B"/>
<path d="M480.031 280.492L471.614 270.641L480.491 262.826L488.908 272.677L480.031 280.492Z" stroke="black" stroke-miterlimit="10"/>
<path d="M340.951 188.542H317.357C316.658 188.542 316.092 187.977 316.092 187.279V168.821C316.092 168.124 316.658 167.559 317.357 167.559H340.951C341.65 167.559 342.217 168.124 342.217 168.821V187.279C342.217 187.981 341.65 188.542 340.951 188.542Z" fill="#6786E3"/>
<path d="M341.882 186.831H318.288C317.589 186.831 317.023 186.266 317.023 185.568V167.11C317.023 166.413 317.589 165.848 318.288 165.848H341.882C342.581 165.848 343.148 166.413 343.148 167.11V185.568C343.148 186.266 342.581 186.831 341.882 186.831Z" stroke="black" stroke-miterlimit="10"/>
<path d="M418.049 167.975H346.651V174.693H418.049V167.975Z" fill="#05CDCD" stroke="#020202" stroke-miterlimit="10"/>
<path d="M385.894 180.453H347.594V185.253H385.894V180.453Z" stroke="#020202" stroke-miterlimit="10"/>
<path d="M317.805 197.732H362.254" stroke="#020202" stroke-miterlimit="10"/>
<path d="M317.805 204.928H352.325" stroke="#020202" stroke-miterlimit="10"/>
<path d="M317.805 212.129H340.503" stroke="#020202" stroke-miterlimit="10"/>
<path opacity="0.68" d="M451.805 199.361L452.059 231.814C452.063 232.129 451.831 232.394 451.524 232.428C448.537 232.762 433.895 234.286 426.812 233.05C426.672 233.028 426.599 232.872 426.66 232.743C428.127 229.672 442.491 200.067 451.805 199.361Z" fill="#B4B3B8"/>
<path d="M426.147 199.361H451.805C451.805 199.361 453.089 224.102 446.033 229.96C446.033 229.96 426.147 232.565 423.582 231.261C423.582 231.261 425.524 218.665 426.166 216.06C426.808 213.455 425.505 201.314 426.147 199.361Z" fill="white" stroke="black" stroke-miterlimit="10"/>
<path d="M438.303 207.342C439.231 207.342 439.983 206.549 439.983 205.571C439.983 204.594 439.231 203.801 438.303 203.801C437.376 203.801 436.624 204.594 436.624 205.571C436.624 206.549 437.376 207.342 438.303 207.342Z" fill="white" stroke="black" stroke-miterlimit="10"/>
<path d="M430.149 213.66H443.224" stroke="black" stroke-miterlimit="10"/>
<path d="M435.754 219.602H443.099" stroke="black" stroke-miterlimit="10"/>
<path d="M429.4 224.402L437.992 224.531" stroke="black" stroke-miterlimit="10"/>
<path d="M528.679 406.94C528.679 407.824 518.35 408.586 510.481 408.711C509.443 408.726 496.956 408.901 496.88 407.82C496.85 407.365 499.039 406.861 500.532 406.516C504.18 405.678 506.635 405.723 512.609 405.647C518.605 405.572 519.091 405.488 521.174 405.647C521.71 405.689 528.679 406.216 528.679 406.94Z" fill="#CCCDCE"/>
<path d="M531.905 371.901L529.75 397.067L528.987 405.962C528.945 406.47 528.523 406.86 528.018 406.86H501.364C500.889 406.86 500.479 406.512 500.407 406.03L495.676 375.325L495.163 371.97C495.072 371.37 495.524 370.832 496.12 370.832H530.94C531.506 370.832 531.954 371.329 531.905 371.901Z" fill="#05CDCD"/>
<path d="M513.49 370.806C512.787 364.25 511.811 358.957 511.032 355.291C509.903 349.971 509.094 347.582 508.109 342.399C507.011 336.632 506.544 331.858 506.32 328.696C506.285 328.499 506.179 328.032 505.769 327.592C505.484 327.285 505.107 327.05 504.674 326.921C500.004 325.537 495.334 324.15 490.664 322.766" stroke="black" stroke-miterlimit="10"/>
<path d="M506.529 370.746C506.187 366.188 505.571 361.176 504.553 355.803C503.629 350.931 502.501 346.449 501.292 342.392C501.25 342.202 501.148 341.861 500.874 341.512C500.669 341.254 500.407 341.038 500.095 340.879C497.823 339.719 495.554 338.555 493.282 337.395" stroke="black" stroke-miterlimit="10"/>
<path d="M519.194 370.976C520.646 364.493 521.208 359.211 521.459 355.654C521.911 349.246 521.535 345.72 522.329 338.516C522.819 334.072 523.503 330.489 523.982 328.244C524.358 327.66 524.826 327.046 525.399 326.436C527.869 323.823 530.974 322.796 532.764 322.363" stroke="black" stroke-miterlimit="10"/>
<path d="M500.741 341.533C501.539 338.011 501.068 334.253 499.415 330.996" stroke="black" stroke-miterlimit="10"/>
<path d="M503.181 350.505C502.839 350.789 502.368 350.895 501.912 350.967C498.526 351.506 494.908 350.671 492.195 348.719" stroke="black" stroke-miterlimit="10"/>
<path d="M504.085 353.883C505.563 353.512 506.597 352.207 506.992 350.831C507.384 349.458 507.251 348.006 507.11 346.592" stroke="black" stroke-miterlimit="10"/>
<path d="M497.568 324.778C498.492 322.257 497.492 319.235 495.205 317.627" stroke="black" stroke-miterlimit="10"/>
<path d="M502.413 326.223C500.247 329.028 496.143 330.405 492.541 329.537" stroke="black" stroke-miterlimit="10"/>
<path d="M506.855 333.595C509.698 331.445 511.385 328.04 511.294 324.643" stroke="black" stroke-miterlimit="10"/>
<path d="M508.09 341.918C505.776 342.157 503.367 340.936 502.333 339.002" stroke="black" stroke-miterlimit="10"/>
<path d="M510.899 354.368C514.824 352.495 517.397 348.419 517.237 344.328" stroke="black" stroke-miterlimit="10"/>
<path d="M509.234 347.658C512.863 345.766 515.109 341.804 514.729 337.959" stroke="black" stroke-miterlimit="10"/>
<path d="M521.717 351.286C523.743 351.232 525.612 350.159 526.973 348.768C528.333 347.376 529.26 345.674 530.172 343.994" stroke="black" stroke-miterlimit="10"/>
<path d="M522.044 342.322C518.882 340.415 516.686 337.192 516.192 333.723" stroke="black" stroke-miterlimit="10"/>
<path d="M523.062 335.232C527.197 334.379 530.985 332.16 533.596 329.07" stroke="black" stroke-miterlimit="10"/>
<path d="M524.206 327.542C522.819 325.324 522.196 322.696 522.451 320.145" stroke="black" stroke-miterlimit="10"/>
<path d="M494.916 318.147C495.373 318.147 495.744 317.804 495.744 317.381C495.744 316.958 495.373 316.615 494.916 316.615C494.458 316.615 494.087 316.958 494.087 317.381C494.087 317.804 494.458 318.147 494.916 318.147Z" fill="#C81733"/>
<path d="M522.394 320.763C522.931 320.763 523.366 320.379 523.366 319.906C523.366 319.432 522.931 319.049 522.394 319.049C521.856 319.049 521.421 319.432 521.421 319.906C521.421 320.379 521.856 320.763 522.394 320.763Z" fill="#C81733"/>
<path d="M514.683 338.91C515.166 338.91 515.557 338.506 515.557 338.008C515.557 337.509 515.166 337.105 514.683 337.105C514.201 337.105 513.809 337.509 513.809 338.008C513.809 338.506 514.201 338.91 514.683 338.91Z" fill="#C81733"/>
<path d="M492.096 349.708C492.661 349.708 493.118 349.284 493.118 348.76C493.118 348.237 492.661 347.812 492.096 347.812C491.532 347.812 491.074 348.237 491.074 348.76C491.074 349.284 491.532 349.708 492.096 349.708Z" fill="#C81733"/>
<path d="M530.172 345.022C530.764 345.022 531.244 344.577 531.244 344.029C531.244 343.48 530.764 343.035 530.172 343.035C529.58 343.035 529.101 343.48 529.101 344.029C529.101 344.577 529.58 345.022 530.172 345.022Z" fill="#C81733"/>
<path opacity="0.28" d="M529.75 397.068L528.987 405.963C528.945 406.471 528.523 406.861 528.018 406.861H501.364C500.889 406.861 500.479 406.513 500.407 406.031L495.676 375.326C502.151 379.103 502.185 388.055 507.232 392.722C509.892 395.187 513.935 394.967 517.537 394.891C521.71 394.804 526.053 395.176 529.75 397.068Z" fill="#3D9585"/>
<path d="M527.486 377.264L526.52 403.237" stroke="white" stroke-miterlimit="10"/>
</svg>
