<svg width="106" height="106" viewBox="0 0 106 106" fill="none" xmlns="http://www.w3.org/2000/svg">
<g filter="url(#filter0_d_1152_2479)">
<rect x="20" y="10" width="66" height="66" rx="24" fill="url(#paint0_linear_1152_2479)"/>
</g>
<path fill-rule="evenodd" clip-rule="evenodd" d="M47.6349 51.6224C51.1525 51.6224 54.0042 48.402 54.0042 44.4294C54.0042 40.4568 51.1525 37.2363 47.6349 37.2363C44.1173 37.2363 41.2656 40.4568 41.2656 44.4294C41.2656 48.402 44.1173 51.6224 47.6349 51.6224Z" fill="white"/>
<path fill-rule="evenodd" clip-rule="evenodd" d="M53.1641 50.8145C51.7321 52.3565 49.7827 53.3053 47.635 53.3053C45.4873 53.3053 43.5378 52.3565 42.1058 50.8145C41.8592 50.7454 41.6126 50.6772 41.3731 50.6427C41.1336 50.6082 40.9019 50.6082 40.6859 50.6459C40.4705 50.6828 40.2715 50.7583 40.0391 50.8522C39.8067 50.9453 39.5416 51.0577 39.2098 51.2824C38.8786 51.5072 38.4799 51.8443 38.099 52.407C37.7173 52.9681 37.3527 53.7556 37.0208 54.6923C36.6889 55.6283 36.3905 56.7152 36.2249 57.7643C36.0593 58.8126 36.0259 59.8249 36.0095 60.5922C35.9925 61.3604 35.9925 61.8854 36.0593 62.3911C36.1254 62.8968 36.2576 63.3833 36.5568 63.8705C36.8552 64.3577 37.3193 64.845 37.8666 65.2191C38.4138 65.5939 39.0442 65.8564 39.9069 65.9872C40.769 66.1181 41.8635 66.1181 43.1903 66.1181H47.038H47.635H48.2319H52.0796C53.4065 66.1181 54.5009 66.1181 55.363 65.9872C56.2257 65.8564 56.8561 65.5939 57.4034 65.2191C57.9506 64.845 58.4147 64.3577 58.7132 63.8705C59.0124 63.3833 59.1445 62.8968 59.2106 62.3911C59.2774 61.8854 59.2774 61.3604 59.2604 60.5922C59.244 59.8249 59.2106 58.8126 59.045 57.7643C58.8795 56.7152 58.581 55.6283 58.2491 54.6923C57.9172 53.7556 57.5526 52.9681 57.171 52.407C56.79 51.8443 56.3913 51.5072 56.0602 51.2824C55.7283 51.0577 55.4632 50.9453 55.2308 50.8522C54.9984 50.7583 54.7994 50.6828 54.5841 50.6459C54.368 50.6082 54.1363 50.6082 53.8968 50.6427C53.6573 50.6772 53.4107 50.7454 53.1641 50.8145Z" fill="white"/>
<path fill-rule="evenodd" clip-rule="evenodd" d="M54.4239 47.973C55.5558 49.1401 57.063 49.8529 58.7166 49.8529C62.2333 49.8529 65.0843 46.6325 65.0843 42.6599C65.0843 38.6873 62.2333 35.4668 58.7166 35.4668C56.4583 35.4668 54.4736 36.7953 53.3438 38.798C54.6186 40.1129 55.4187 42.0073 55.4187 44.1112C55.4187 45.5319 55.0535 46.858 54.4239 47.973Z" fill="white"/>
<path fill-rule="evenodd" clip-rule="evenodd" d="M63.8933 49.3125C62.5034 50.808 60.6271 51.7463 58.5547 51.8009L58.7836 52.1107C59.1654 52.6718 59.5301 53.4593 59.8621 54.3961C60.1942 55.332 60.4928 56.4189 60.6584 57.468C60.8241 58.5163 60.8575 59.5286 60.8738 60.2959C60.8909 61.0641 60.8909 61.5891 60.8241 62.0948C60.758 62.6005 60.6257 63.087 60.3264 63.5742C60.1039 63.937 59.7896 64.3007 59.4178 64.6161H62.8084C64.1357 64.6161 65.2306 64.6161 66.093 64.4853C66.9561 64.3544 67.5867 64.092 68.1342 63.7171C68.6816 63.343 69.1459 62.8558 69.4445 62.3685C69.7438 61.8813 69.876 61.3949 69.9421 60.8892C70.009 60.3834 70.009 59.8585 69.9919 59.0903C69.9755 58.3229 69.9421 57.3107 69.7765 56.2623C69.6108 55.2132 69.3122 54.1263 68.9802 53.1904C68.6482 52.2536 68.2835 51.4662 67.9017 50.9051C67.5206 50.3424 67.1218 50.0052 66.7904 49.7805C66.4584 49.5557 66.1932 49.4434 65.9608 49.3502C65.7283 49.2563 65.5292 49.1809 65.3138 49.1439C65.0976 49.1062 64.8659 49.1062 64.6263 49.1407C64.3867 49.1753 64.14 49.2435 63.8933 49.3125Z" fill="white"/>
<defs>
<filter id="filter0_d_1152_2479" x="0" y="0" width="106" height="106" filterUnits="userSpaceOnUse" color-interpolation-filters="sRGB">
<feFlood flood-opacity="0" result="BackgroundImageFix"/>
<feColorMatrix in="SourceAlpha" type="matrix" values="0 0 0 0 0 0 0 0 0 0 0 0 0 0 0 0 0 0 127 0" result="hardAlpha"/>
<feMorphology radius="2" operator="erode" in="SourceAlpha" result="effect1_dropShadow_1152_2479"/>
<feOffset dy="10"/>
<feGaussianBlur stdDeviation="11"/>
<feColorMatrix type="matrix" values="0 0 0 0 0.427083 0 0 0 0 0.671455 0 0 0 0 1 0 0 0 0.36 0"/>
<feBlend mode="normal" in2="BackgroundImageFix" result="effect1_dropShadow_1152_2479"/>
<feBlend mode="normal" in="SourceGraphic" in2="effect1_dropShadow_1152_2479" result="shape"/>
</filter>
<linearGradient id="paint0_linear_1152_2479" x1="33.5" y1="10" x2="65" y2="76" gradientUnits="userSpaceOnUse">
<stop stop-color="#5CA1FE"/>
<stop offset="1" stop-color="#217BF4"/>
</linearGradient>
</defs>
</svg>
